<svg width="39" height="42" viewBox="0 0 39 42" fill="none" xmlns="http://www.w3.org/2000/svg">
<path d="M17.7498 8.00155C21.5415 8.3795 30.4373 11.4101 30.8748 20.9478C30.4693 27.0298 27.5 30.4333 24.2795 32.2102C20.3083 34.4013 15.2645 33.7871 11.5368 31.2037C8.52434 29.116 5.96576 25.8021 6.37478 20.9478C9.17478 20.9478 12.8125 20.9478 15 20.9478M17.7498 8.00155C12.8331 7.79963 2.59986 10.1062 0.999855 20.9478C-1.00014 34.4999 9.4999 41.5 17.9999 41.5M17.7498 8.00155C17.6664 5.16821 17.7498 7.79996 17.7498 0.999962C25 -1.02818e-05 38.5 5.99999 38.5 20.9478C38.5 36.5 26.5 41.5 17.9999 41.5M17.9999 41.5V24.5M17.9999 24.5V18.8125L22.9471 22.3125L17.9999 24.5Z" stroke="white" stroke-linecap="round"/>
</svg>
