<?xml version="1.0" encoding="utf-8"?>
<!-- Generator: Adobe Illustrator 27.7.0, SVG Export Plug-In . SVG Version: 6.00 Build 0)  -->
<svg version="1.1" id="Слой_1" xmlns="http://www.w3.org/2000/svg" xmlns:xlink="http://www.w3.org/1999/xlink" x="0px" y="0px"
	 viewBox="0 0 449.9 91" style="enable-background:new 0 0 449.9 91;" xml:space="preserve">
<style type="text/css">
	.st0{fill:#EA1D2D;}
	.st1{fill:#838081;}
	.st2{fill:#837F80;}
	.st3{fill:#A19E9F;}
</style>
<g>
	<path class="st0" d="M92,0c0,30.3,0,60.7,0,91c-30.7,0-61.3,0-92,0C0,60.7,0,30.4,0,0C30.6,0,61.3,0,92,0z M45.3,37.2
		c2-1.5,4-2.8,5.9-4.4c0.2-0.2,0.2-1.3-0.1-1.6c-3-3.6-6.7-6.2-11.3-7.6c-3.8-1.1-7.7-1.3-11.6-0.5c-5.7,1.2-10.3,4.4-13.7,9.1
		c-4.4,6.1-5.7,12.8-3.5,20c2.9,9.3,10.5,15.5,20.6,16.4c4.3,0.4,8.5-0.3,12.3-2.6c4.3-2.6,7.3-6.2,9.1-10.8c1.2-3.2,1-6.6,1.1-10
		c0-1.2-0.5-1.5-1.5-1.5c-3.7,0-7.4,0-11.1,0c-1.9,0-3.8,0-5.7,0c-0.8,0-1.2,0.3-1.1,1.2c0.1,1.5,0,3.1,0,4.6c0,1.5,0.3,1.7,1.8,1.7
		c2.8,0,5.6,0,8.6,0c-0.1,0.8-0.2,1.2-0.3,1.5c-1.4,4.7-7.8,7.7-12,7.4c-3.6-0.2-6.8-1.7-9.4-4.3c-2.7-2.7-4.3-6-4.5-9.9
		c-0.2-2.8,0.6-5.4,2.1-7.7c2.8-4.5,6.9-7.1,12.2-7.3C38,30.9,42,33,45.3,37.2z M71.5,23.1c0,6.5,0,12.9,0,19.3
		c0,3.8-0.1,7.6-0.3,11.3c-0.2,3.4-3.8,6.6-7.2,6.2c-1.6-0.2-3.2-1.2-4.7-2c-0.7-0.4-1.1-0.6-1.7,0.1c-1.5,1.5-2.9,3.1-4.5,4.5
		c-0.9,0.8-0.6,1.3,0.1,1.9c4.4,3.5,9.4,5.2,14.8,3.8c7.4-1.9,11.5-6.6,11.9-14.3c0.4-9.1,0.1-18.3,0.2-27.5c0-1,0-2,0-3.2
		C77.1,23.1,74.3,23.1,71.5,23.1z"/>
	<path class="st1" d="M136.2,50.3c-2.8,0-5.4,0-8,0c-1,0-1.5-0.2-1.4-1.4c0.1-1.3,0-2.6,0-3.9c0-0.7,0.2-1,0.9-1
		c5.1,0,10.2,0,15.2,0c0.1,0,0.2,0.1,0.3,0.1c0,3.3,0.2,6.6-0.1,9.8c-0.1,1.2-1.2,2.3-2.1,3.3c-2.9,3.4-6.7,5.2-11.1,6
		c-8.9,1.5-17.6-3.7-20.4-12.4c-2.9-8.8,2.1-17.9,9.8-21.2c6.9-3,15.8-1.6,20.8,4.4c1.1,1.3,1.1,1.4-0.2,2.5c-1.2,1-2.4,2.1-3.7,3.1
		c-1.9-2.1-3.9-4.1-6.8-4.7c-5.9-1.1-10.6,0.8-12.9,7c-1.9,5,0.5,11.2,4.3,13.5c4.4,2.7,10.5,2.2,14.3-1.2
		C136.6,53.1,136.1,51.7,136.2,50.3z"/>
	<path class="st1" d="M189,28.2C199,27.9,207.3,36,207.2,46c0,9.2-8,17.8-18.8,17.5c-9.1-0.2-17.4-7.9-17.4-17.9
		C171,36.4,179.1,27.8,189,28.2z M199.7,46c0.3-6.2-4.1-11.4-11.4-11.3c-6.1,0.1-9.9,4.8-10.1,10.9C178.1,52,182.8,57,188.6,57
		C195.2,57,200.1,52.7,199.7,46z"/>
	<path class="st1" d="M413,48.5c0-6.5,0-13.1,0-19.8c2.3,0,4.5,0,6.7,0c0.2,0,0.5,0.7,0.5,1c0,4.5,0,9,0,13.5c0,6.1,0,12.2,0,18.2
		c0,0.6-0.2,1.6-0.6,1.8c-0.8,0.4-1.7,0.1-2.5-0.7c-4.5-4.9-9-9.7-13.5-14.5c-1.5-1.6-3-3.2-4.5-4.7c-0.3-0.3-0.7-0.4-1-0.7
		c0,5.6,0,11,0,16.5c0,0.8,0,1.6,0,2.4c0.1,1-0.2,1.4-1.3,1.4c-1.9-0.1-3.8,0-5.8,0c0-0.3-0.1-0.5-0.1-0.7
		c0.1-10.6,0.1-21.2,0.2-31.9c0-0.2,0-0.5,0-0.7c0.1-0.5,0.2-1.5,0.4-1.5c0.7-0.1,1.4,0.1,2.1,0.3c0.4,0.1,0.7,0.6,1,0.9
		c5.7,6.1,11.5,12.3,17.2,18.4c0.3,0.3,0.4,0.6,0.7,0.9C412.8,48.7,412.9,48.6,413,48.5z"/>
	<path class="st1" d="M241.1,62.8c-2.5,0-4.7,0.1-7-0.1c-0.5,0-1.1-0.6-1.5-1.1c-2.3-3.1-4.6-6.1-6.7-9.3c-1-1.5-2.2-1.7-3.7-1.5
		c-0.8,0.1-1.5,0.2-2.4,0.4c0,0.3-0.1,0.6-0.1,1c0,3.1-0.1,6.2,0,9.2c0,1.1-0.4,1.6-1.3,1.6c-1.7,0.1-3.4,0.1-5.1,0
		c-0.2,0-0.6-0.5-0.7-0.8c-0.1-0.4,0-0.9,0-1.4c0-10.2,0-20.4,0-30.6c0-1.2,0.3-1.6,1.5-1.5c3.9,0.1,7.7-0.1,11.6,0.1
		c4.1,0.2,7.7,1.4,10.2,5c1.4,2.1,1.8,4.4,1.7,6.9c-0.1,3.8-2.2,6.3-5.1,8.4c-0.7,0.5-0.5,0.9-0.1,1.4c2.7,3.7,5.4,7.5,8.2,11.2
		C240.7,62,240.9,62.4,241.1,62.8z M219.7,34.9c0,3.2,0,6.1,0,9c0,0.2,0.5,0.7,0.7,0.7c1.7,0.1,3.5,0,5.2,0c3.5-0.1,4.9-2,4.6-5.5
		c-0.2-2.2-1.3-3.4-3.4-3.7C224.6,35,222.2,35,219.7,34.9z"/>
	<path class="st1" d="M345.3,41.9c0.2,0.2,0.7,0.5,0.7,0.7c0.1,1.7,0,3.4,0,5.3c-3.9,0-7.7,0-11.7,0c0,2.9,0,5.6,0,8.5
		c5.4,0,10.7,0,16.1,0c0,2.2,0,4.3,0,6.5c-7.8,0-15.5,0-23.4,0c0-11.3,0-22.7,0-34.1c0.4,0,0.8-0.1,1.2-0.1c6.9,0,13.7,0,20.6,0
		c0.9,0,1.2,0.3,1.1,1.1c-0.1,1.4-0.1,2.8,0,4.1c0.1,1-0.3,1.3-1.3,1.3c-4.8,0-9.6,0-14.6,0c0,2,0,4.1,0,6.1c0,0.2,0.7,0.5,1.1,0.5
		c3.2,0.1,6.4,0.1,9.6,0.1C345.1,41.9,345.2,41.9,345.3,41.9z"/>
	<path class="st1" d="M386.7,63c-2.3,0-4.3,0.1-6.3,0c-0.5,0-1.1-0.6-1.4-1c-0.5-0.8-0.7-1.8-1.2-2.6c-0.2-0.4-0.8-0.8-1.3-0.8
		c-4-0.1-8,0-12,0c-0.8,0-1.2,0.2-1.5,1c-0.3,0.9-0.7,1.9-1.1,2.8c-0.1,0.3-0.5,0.7-0.8,0.7c-2.3,0.1-4.6,0-7,0
		c0.5-1.2,0.9-2.2,1.4-3.2c4.4-10.2,8.9-20.3,13.3-30.5c0.3-0.8,0.8-1.3,1.7-1.3c0.9,0,1.3,0.6,1.6,1.3c4.6,10.6,9.2,21.2,13.8,31.8
		C386.3,61.6,386.4,62.2,386.7,63z M366,52.5c0.3,0.1,0.5,0.2,0.7,0.2c2.4,0,4.8,0,7.2,0c0.8,0,1-0.4,0.7-1.1
		c-1.2-2.9-2.3-5.9-3.4-8.8c-0.1-0.4-0.4-0.7-0.8-1.2C368.9,45.3,367.5,48.8,366,52.5z"/>
	<path class="st1" d="M289.7,63c-2.4,0-4.6,0-6.7,0c-0.4,0-0.9-0.5-1.2-0.9c-0.4-0.6-0.7-1.3-0.9-2.1c-0.3-1.2-1-1.6-2.3-1.6
		c-3.8,0.1-7.6,0.1-11.4,0c-0.9,0-1.6,0.1-1.6,1.2c0,0.1,0,0.2-0.1,0.2c-1.5,3.6-0.9,3.1-4.4,3.1c-1.4,0-2.7,0-4.3,0
		c0.5-1.2,0.9-2.2,1.4-3.2c4.4-10,8.7-20,13.1-30c0.3-0.6,0.6-1.3,1.1-1.6c0.9-0.6,1.9-0.1,2.4,1.1c4,9.1,8,18.3,11.9,27.4
		C287.8,58.7,288.7,60.7,289.7,63z M277.6,52.3c0-0.1-0.1-0.2-0.1-0.3c-1.4-3.5-2.8-7.1-4.3-10.9c-1.6,4-3,7.7-4.5,11.4
		c0.3,0.1,0.5,0.2,0.8,0.2c2.4,0,4.8,0,7.2,0C277.1,52.7,277.4,52.4,277.6,52.3z"/>
	<path class="st1" d="M449.9,52.1c0-0.2-0.1-0.7-0.2-0.9c-0.1-0.2-0.3-0.6-0.4-0.7c0,0,0,0,0,0c-0.6-1.1-1-2.5-1.9-3.3
		c-1.5-1.4-3.3-2.5-5.1-3.5c-2.3-1.3-4.7-2.2-7-3.5c-1.4-0.8-1.8-2-1.4-3.5c0.3-1.2,1.6-2.1,2.9-2.3c3-0.3,5.4,0.6,7.2,3.1
		c0.4,0.6,0.7,0.6,1.2,0.2c1-0.8,2-1.6,3.1-2.3c0.9-0.6,0.9-1.1,0.3-1.9c-1.9-2.6-4.3-4.2-7.4-4.9c-3.8-0.8-7.5-0.4-10.8,1.9
		c-4.3,3.1-4.9,9.6-1.1,13.2c1.6,1.5,3.6,2.6,5.6,3.7c1.9,1.1,4,2,6,3c1.3,0.6,2.1,1.6,2,3.1c-0.1,1.6-1,2.6-2.5,3.2
		c-3,1.1-5.6,0.4-8-1.6c-0.8-0.6-1.3-1.5-2.1-2.2c-0.3-0.3-1.1-0.4-1.3-0.2c-1.3,1-2.6,2.1-3.9,3.2c0.2,0.3,0.3,0.7,0.5,1
		c3.5,4.9,9.4,7.6,15.4,6.3c3.3-0.7,6.2-2.2,7.8-5.4c0.2-0.8,0.4-1.7,0.6-2.5c0,0,0,0,0,0C449.7,54.2,449.9,53.2,449.9,52.1z"/>
	<path class="st1" d="M155.1,56.5c5,0,9.8,0,14.8,0c0,2.2,0,4.3,0,6.5c-7.2,0-14.5,0-21.8,0c0-11.3,0-22.7,0-34.2
		c2.1,0,4.3,0,6.4,0.1c0.2,0,0.6,0.7,0.6,1.1c0,4.3,0,8.6,0,12.9C155.1,47.2,155.1,51.7,155.1,56.5z"/>
	<path class="st1" d="M305.2,57c1.5,0,2.7,0,3.9,0c3.6-0.1,4.7-1.3,4.7-4.7c0-7.3,0-14.7,0-22c0-0.5,0-0.9,0-1.6c2.2,0,4.3,0,6.5,0
		c0.2,0,0.6,0.5,0.6,0.9c0.1,0.9,0.1,1.7,0.1,2.6c0,7,0.1,14,0,21c0,1.7-0.4,3.4-0.9,4.9c-1.1,3-3.6,4.6-6.6,5
		c-2.2,0.3-4.5,0.1-6.8,0c-0.4,0-0.9-0.5-1-0.9C305.3,60.6,305.3,58.9,305.2,57z"/>
	<path class="st2" d="M245.5,45.8c0-5.1,0-10.2,0-15.2c0-1.8,0-1.8,1.7-1.8c1.4,0,2.8,0,4.2,0c0.8,0,1.2,0.2,1.2,1.1
		c0,10.6,0,21.2,0,31.8c0,1.1-0.7,1.3-1.4,1.3c-1.7,0.1-3.3,0.1-5,0c-0.3,0-0.7-0.4-0.7-0.7c-0.1-0.6-0.1-1.2-0.1-1.9
		C245.5,55.5,245.5,50.6,245.5,45.8z"/>
	<path class="st3" d="M449.4,50.8c0-0.1-0.1-0.2-0.1-0.3C449.3,50.5,449.4,50.6,449.4,50.8z"/>
</g>
</svg>
