<?xml version="1.0" encoding="utf-8"?>
<!-- Generator: Adobe Illustrator 27.7.0, SVG Export Plug-In . SVG Version: 6.00 Build 0)  -->
<svg version="1.1" id="Слой_1" xmlns="http://www.w3.org/2000/svg" xmlns:xlink="http://www.w3.org/1999/xlink" x="0px" y="0px"
	 viewBox="0 0 220 74.9" style="enable-background:new 0 0 220 74.9;" xml:space="preserve">
<style type="text/css">
	.st0{fill:#828282;}
</style>
<g>
	<path class="st0" d="M2.7,56.2c1-3.5,4.1-4.8,7.5-5c2.6-0.2,5.2-0.2,7.7,0.7c1.8,0.6,3,1.8,3.6,3.6c0.5,1.5,0.3,2.1-0.9,2.7
		c-1.3,0.7-2.6,0.4-3.4-0.7c-0.6-0.9-1.1-2-2.4-2.2c-1.7-0.3-3.5-0.3-5.2,0c-1.7,0.3-2.5,1.7-2.6,3.1c-0.2,1.7-0.3,3.5,0.2,5.2
		c0.4,1.4,1.3,2,2.6,2.3c1.6,0.4,3.2,0.2,4.8,0.2c1.4,0,2.3-1.1,2.8-2.2c0.5-1,1-1.3,2.1-1.2c0.7,0.1,1.8-0.4,2.1,0.4
		c0.4,0.9,0.4,2.1-0.1,3.1c-1.1,2.2-3.1,3.3-5.2,3.5c-3,0.4-6.1,0.5-9.1-0.6C5,68.3,3.4,67,2.8,64.8C2.2,62.7,2,58.4,2.7,56.2z"/>
	<path class="st0" d="M217.9,69.6c0,0.1-0.2,0.1-0.3,0.1c-0.4,0.1-0.9,0.2-1.3,0.2c-0.3,0-0.5,0-0.8,0c-0.2,0-0.4,0-0.7,0
		c-1.1-0.1-1.6-0.6-1.5-1.6c0.2-2.7,0.2-5.4,0.2-8c0-0.8,0-1.2-1-1.3c-2.3-0.2-3.2,0.4-3.6,2.5c-0.5,2.3-1.3,4.6-1.7,6.9
		c-0.1,0.7-0.6,1.1-1.3,1.3c-0.7,0.2-1.4,0.1-2.1,0.1c-1.2,0-1.5-0.4-1.2-1.6c0.7-2.7,1.3-5.5,2-8.2c0.8-3,2.6-4.2,5.8-4.4
		c2.5-0.1,5-0.1,7.6,0.2c0,1.5,0,2.9,0,4.4c0,1.9,0,3.7,0,5.6c0,0.9,0,1.9,0,2.8c0,0.2,0,0.5,0,0.7C217.9,69.4,218,69.5,217.9,69.6z
		"/>
	<path class="st0" d="M78.8,1.2C80,1,81,1.5,81.8,1.9c2.7,1.3,5.6,2.2,8.4,3.4c2.2,0.9,4.5,1.7,6.7,2.6c2.4,1,4.7,1.9,7.1,2.9
		c2.5,1,4.9,2,7.4,3c1.4,0.6,2.8,1.3,4.2,1.9c3.4,1.4,6.7,3.1,10.1,4.5c4.3,1.7,8.2,3.9,12.4,5.9c1.3,0.6,2.6,1.2,3.8,1.8
		c0.9,0.5,0.9,1,0,1.5c-3.3,1.7-6.5,3.5-9.9,5.1c-2.2,1.1-4.5,2.2-6.7,3.3c-4.9,2.6-10.1,4.5-15,7.1c-0.6,0.3-1.3,0.6-2,0.8
		c-0.5,0.1-0.7,0.1-0.5-0.6c0.1-0.3,0.2-0.6,0.5-0.8c3.3-3.1,5.7-6.9,8.3-10.5c0.4-0.5,0.5-1.1,0-1.8c-1.6-2-3.5-3.8-5.5-5.6
		c-2-1.9-4.3-3.4-6.4-5.2c-2.5-2.1-5.1-4-7.7-6c-3.2-2.4-6.5-4.8-9.6-7.4c-1.8-1.4-3.7-2.7-5.5-4C80.8,3.1,79.7,2.3,78.8,1.2z"/>
	<path class="st0" d="M55.8,61.1c0-1.9,0-3.7,0.8-5.6c1.2-2.6,3.2-3.7,5.9-3.9c2.1-0.1,4.2-0.4,6.3-0.8c0.9-0.1,1.4,0.3,1.5,1.3
		c0.2,2.3-0.6,2.5-2.6,2.7c-2,0.1-3.9,0.3-5.9,0.7c-1.1,0.3-1.7,0.9-2.2,1.9c-0.1,0.4,0,0.7,0.1,0.9c0.2,0.4,0.4-0.1,0.7-0.2
		c2.9-1.5,7.6-1.1,9.4,1.8c2.3,3.5,1.3,8-3.1,9.6c-2.9,1.1-5.8,0.8-8.5-1c-1.7-1.1-2.3-2.8-2.5-4.6C55.7,63,55.8,62.1,55.8,61.1z
		 M66.3,63.6c0.2-2.2-1.3-3-3.2-3.1c-1.7-0.1-2.9,1.3-2.9,3.1c0,1.9,1.2,3.2,3.1,3.2C64.8,66.8,66.5,66,66.3,63.6z"/>
	<path class="st0" d="M139.1,65c0-2.7,0-5.4,0-8.1c0-0.7,0.2-1.2,1-1c1.1,0.2,2.5-0.6,3.4,0.7c0,0,0.3-0.1,0.4-0.2
		c1.8-1.2,3.9-1,5.8-0.6c2.9,0.6,4,3,4.4,5.6c0.3,2.4-0.1,4.7-1.8,6.5c-2.1,2.3-4.9,2.6-7.8,1.9c-0.8-0.2-1.3-0.4-0.9,0.8
		c0.2,0.8,0.1,1.8,0.1,2.7c0,0.2-0.1,0.4-0.2,0.5c-0.5,0.6-3.6,0.7-4.1,0.1c-0.2-0.2-0.2-0.7-0.2-1.1
		C139.1,70.2,139.1,67.6,139.1,65z M143.7,62.7C143.7,62.7,143.7,62.7,143.7,62.7c0,0.9,0,1.7,0,2.6c0,0.9,0.5,1.4,1.4,1.3
		c0.5,0,1.1,0,1.6,0c1.4-0.1,2.5-1.2,2.6-2.7c0-0.8,0-1.6,0-2.4c0-1.9-0.9-2.7-2.8-2.7c-2.3,0-2.9,0.6-2.8,2.7
		C143.7,61.9,143.7,62.3,143.7,62.7z"/>
	<path class="st0" d="M177.1,69.8c-1.5,0-3,0-4.5,0c-0.7,0-1-0.2-1-1c0-4.1,0-8.2,0-12.2c0-1,0.7-0.9,1.4-1c2.7-0.1,5.4,0.1,8,0.2
		c1.5,0,2.7,0.4,3.8,1.6c0.9,1,1.2,2.6,0.4,3.7c-0.7,0.9-0.7,1.5,0.2,2.4c1.4,1.4,1.3,4.7-1,5.6c-1.2,0.4-2.3,0.9-3.6,0.9
		C179.5,69.8,178.3,69.8,177.1,69.8C177.1,69.8,177.1,69.8,177.1,69.8z M178.6,64.2C178.6,64.2,178.6,64.2,178.6,64.2
		c-0.6,0-1.1,0-1.7,0c-0.6,0-1,0.1-0.9,0.8c0.1,0.6-0.2,1.5,0.8,1.6c1.3,0.1,2.5,0.1,3.8,0c0.9-0.1,1.1-0.8,1-1.5
		c0-0.7-0.5-1-1.2-0.9C179.8,64.2,179.2,64.2,178.6,64.2z M178.5,58.8c-0.4,0-0.9,0-1.3,0c-0.5,0-0.9,0-0.9,0.7c0,0.6,0,1.4,0.7,1.5
		c1.1,0.1,2.2,0.2,3.2-0.2c0.6-0.2,0.7-0.6,0.7-1.1c0-0.6-0.4-0.8-0.9-0.9C179.5,58.8,179,58.8,178.5,58.8z"/>
	<path class="st0" d="M23.6,62.7c0-2,0-3.9,0-5.9c0-0.7,0.1-1,0.9-1c2,0,4.1-0.3,6.1-0.2c1.8,0.1,3.7-0.1,5.4,1
		c1.6,1.1,2,3.4,0.7,4.9c-0.5,0.6-0.2,0.8,0.2,1.3c1.3,1.5,1.9,3.6,0.5,5.3c-1,1.2-2.4,1.6-3.8,1.7c-2.8,0.1-5.6,0-8.5,0.1
		c-1,0-1.5-0.2-1.4-1.4C23.7,66.5,23.6,64.6,23.6,62.7z M30.5,66.6C30.5,66.6,30.5,66.6,30.5,66.6c0.6,0,1.2,0,1.8,0
		c0.8,0,1.1-0.4,1.1-1.2c0-0.6,0.1-1.1-0.8-1.3c-1.1-0.2-2.2-0.1-3.3-0.2c-1-0.1-1.3,0.3-1.3,1.3c0,1.1,0.3,1.6,1.4,1.4
		C29.8,66.6,30.1,66.6,30.5,66.6z M30.3,61c0.5,0,1.2,0,1.9-0.2c0.5-0.2,0.8-0.6,0.7-1.1c-0.1-0.4-0.3-0.9-1-0.9c-1,0.1-2,0-3.1,0
		c-0.6,0-0.8,0.3-0.8,0.8C28,60.8,28.3,61,30.3,61z"/>
	<path class="st0" d="M96.1,69.8c-2.2,0-4.5-0.1-6.7,0c-1.1,0.1-1.4-0.7-1.6-1.4c-0.3-0.7,0.1-1.5,0.7-1.6c1.8-0.4,1.6-2,2-3.2
		c0.5-1.7,0.7-3.5,1.5-5.2c1.1-2.2,3.2-2.7,5.4-2.8c2-0.1,4,0,6-0.1c0.8,0,1.2,0.3,1.2,1.1c0,3.8,0.1,7.6,0.1,11.4
		c0,1.5-0.2,1.7-1.7,1.7C100.5,69.8,98.3,69.8,96.1,69.8C96.1,69.8,96.1,69.8,96.1,69.8z M99.9,62.8C99.9,62.8,99.9,62.8,99.9,62.8
		c0-1,0-2,0-2.9c0-0.3,0.1-0.6-0.3-0.8c-1.4-0.8-4,0.2-4.3,1.8c-0.3,1.6-0.6,3.1-1.2,4.6c-0.2,0.6-0.1,1,0.7,1c1.5,0,2.9,0,4.4,0
		c0.5,0,0.7-0.2,0.7-0.7C99.9,64.8,99.9,63.8,99.9,62.8z"/>
	<path class="st0" d="M120.8,63.8c0.3,1.7-0.1,3.5,0,5.2c0,0.3,0,0.6-0.3,0.8c-0.5,0.3-3.3,0.2-3.6-0.3c-0.4-0.8-0.9-0.5-1.4-0.2
		c-2.3,1.3-4.7,1.2-7,0c-1.5-0.8-2.4-2.1-2.4-3.8c0-1.7,0.9-2.9,2.4-3.6c2-0.9,4.2-0.9,6.4-1c0.4,0,1,0.3,1.2-0.3
		c0.2-0.6-0.2-1.1-0.7-1.4c-1.4-0.8-2.8-0.8-4.1,0.1c-1.2,0.9-2.4,0.7-3.6,0.5c-0.8-0.1-0.8-1.1-0.4-1.8c0.8-1.5,2.2-2.2,3.8-2.2
		c2-0.1,4-0.3,5.9,0.2c2.2,0.5,3.7,2.3,3.8,4.5C120.8,61.5,120.8,62.6,120.8,63.8z M113.8,63.9c-0.7,0-1.5,0-2.1,0.3
		c-1,0.4-1.2,1-0.6,1.9c0.4,0.4,0.8,0.8,1.4,0.8c1.1,0,2.1-0.3,3.1-0.8c0.5-0.3,0.8-0.8,0.8-1.3c0-0.6-0.7-0.6-1.1-0.7
		C114.8,63.9,114.2,63.9,113.8,63.9z"/>
	<path class="st0" d="M194,55.6c1.7,0,3,0,4.3,0.5c2.4,0.9,3.3,2.8,3.7,5c0.5,2.5,1.1,3.2-2.6,3.2c-2,0-3.9-0.1-5.9-0.2
		c-0.6,0-1.6-0.1-1.6,0.6c0,0.6,0.4,1.4,1.1,1.8c1.5,0.9,2.9,0.4,4.1-0.3c1.3-0.8,2.6-0.4,3.9-0.5c0.4,0,0.5,0.3,0.4,0.6
		c0,0.9-0.2,1.8-1.1,2.3c-2.8,1.7-5.9,2.1-9,0.9c-2.1-0.8-3.5-2.4-4.1-4.7c-0.7-2.9-0.1-5.4,1.9-7.5C190.7,55.6,192.5,55.4,194,55.6
		z M191.4,60.9c1.5,0.6,3,0.3,4.4,0.3c0.5,0,1.2,0.2,1.3-0.5c0.1-0.6-0.2-1.3-0.8-1.6C195,58.3,193,57.9,191.4,60.9z"/>
	<path class="st0" d="M128.9,51.2c3,0.1,5.8-0.1,8.6,0.2c0.9,0.1,1.2,0.5,1.2,1.4c0,2-0.3,2.3-2.2,2.3c-1.2,0-2.4,0-3.6-0.1
		c-0.8-0.1-1.1,0.2-1.1,1.1c0.1,3.6,0,7.1,0.1,10.7c0,3.1-0.9,3.8-3.9,3c-0.7-0.2-1.1-0.7-1.1-1.5c0-3.1,0-6.3,0-9.4
		c0-1.1-0.2-2.1-0.2-3.2c0-0.7-0.4-0.5-0.8-0.6c-1.4,0-2.9,0-4.3,0c-1,0-1.8-0.9-1.8-1.9c0-1.2,0.7-2,1.8-2
		C124.1,51.2,126.6,51.2,128.9,51.2z"/>
	<path class="st0" d="M87.4,62.5c0.4,4-2.2,6.5-4.9,7.2c-4,1.1-7.8-0.1-9.5-3.2c-1.4-2.6-1.5-8.1,2.3-10.2c0.5-0.3,1-0.5,1.5-0.6
		c2.2-0.2,4.5-0.5,6.6,0.2C85.6,56.7,87.7,58.9,87.4,62.5z M82.8,62.6C82.8,62.6,82.8,62.6,82.8,62.6c0-0.5,0-0.9,0-1.3
		c-0.1-1.1-0.5-2.1-1.5-2.4c-1.2-0.4-2.5-0.7-3.7,0.5c-1.2,1.3-0.9,2.8-1,4.2c0,1.5,1.2,3.1,2.4,3.3c1.7,0.3,3.2-0.6,3.7-2.3
		C82.8,64,82.7,63.3,82.8,62.6z"/>
	<path class="st0" d="M161.9,55.6c1.4,0.1,2.7-0.1,4.1,0.4c2.7,1,3.6,3.2,3.8,5.8c0.3,4.3-1.6,7.4-5.9,8.2c-2.8,0.5-5.6,0.2-8-1.8
		c-0.5-0.4-0.7-1-1-1.5c-0.4-0.8,0.2-1.7,1.1-1.7c1.1,0,2.1-0.1,3.1,0.9c1.3,1.2,3.5,1.1,5.1,0.1c0.6-0.3,0.5-0.8,0.4-1.3
		c-0.1-0.5-0.5-0.4-0.9-0.4c-1,0-2,0-2.9,0c-1.5,0-1-1.2-1.1-2c-0.1-0.9,0.4-1,1.1-1c1.1,0,2.3,0.1,3.4-0.2c0.8-0.2,0.7-0.5,0.4-1
		c-0.4-0.6-0.9-1.1-1.6-1.1c-1.3-0.1-2.7-0.4-3.9,0.8c-0.9,1-2.1,0.9-3.3,0.8c-0.9-0.1-1.2-1.7-0.5-2.6c1.2-1.5,2.7-2.3,4.6-2.3
		C160.7,55.6,161.3,55.6,161.9,55.6z"/>
	<path class="st0" d="M46.9,55.6c2.7-0.4,5,0.5,6.6,2.9c0.5,0.7,0.6,1.4,0.7,2.1c1.1,6.7-3.4,10.1-9.1,9.2c-2.5-0.4-4.5-1.5-5.5-3.8
		c-1.2-2.9-0.9-7.7,2.4-9.6C43.5,55.6,45.1,55.5,46.9,55.6z M49.9,62.6c0-0.4-0.2-1-0.2-1.5c-0.1-1.3-0.9-2.2-2.5-2.5
		c-1.6-0.3-2.5,0.4-3.3,1.8c-0.6,1.2-0.6,2.4-0.3,3.5c0.5,2.4,1.8,3.4,4.3,2.7C49.1,66.3,49.7,65.2,49.9,62.6z"/>
	<path class="st0" d="M78.3,0.7c0,0,0.1,0.1,0.1,0.1c-0.1,0.1-0.1,0.1-0.2,0.2C78.2,1,78.1,1,78.1,0.9C78.1,0.8,78.1,0.7,78.3,0.7z"
		/>
</g>
</svg>
