<?xml version="1.0" encoding="utf-8"?>
<!-- Generator: Adobe Illustrator 27.7.0, SVG Export Plug-In . SVG Version: 6.00 Build 0)  -->
<svg version="1.1" id="Слой_1" xmlns="http://www.w3.org/2000/svg" xmlns:xlink="http://www.w3.org/1999/xlink" x="0px" y="0px"
	 viewBox="0 0 153 23" style="enable-background:new 0 0 153 23;" xml:space="preserve">
<style type="text/css">
	.st0{fill:#828282;}
</style>
<path class="st0" d="M25,12.3C24.9,5.6,19.4,0.1,12.5,0.1C5.6,0.1,0,5.7,0,12.6h5c0,5.5,4.5,10,10,10c5.4,0,9.9-4.3,10-9.7
	C25.1,12.9,25.1,12.3,25,12.3z M15,17.6c-2.8,0-5-2.2-5-5c0,0,0,0,0,0c0-2.8,2.2-5,5-5c0,0,0,0,0,0c2.8,0,5,2.2,5,5c0,0,0,0,0,0
	C20,15.4,17.8,17.6,15,17.6C15,17.6,15,17.6,15,17.6z M96.4,4.8c-4.4,0-7.9,3.5-7.9,7.8c0,4.4,3.5,7.8,7.9,7.8
	c4.4,0,7.9-3.4,7.9-7.8C104.3,8.3,100.7,4.8,96.4,4.8L96.4,4.8z M96.4,17.2c-2.3,0-4-2.1-4-4.6c0-2.5,1.7-4.6,4-4.6
	c2.3,0,4,2.1,4,4.6C100.4,15.1,98.7,17.2,96.4,17.2L96.4,17.2z M61.6,5.1l0,1.7c0,0-0.2-0.2-0.3-0.4c-0.7-0.9-2.2-1.7-4.3-1.7
	c-3.9,0-7.1,3.5-7.1,7.8c0,4.3,3.2,7.8,7.1,7.8c2.1,0,3.5-0.8,4.3-1.7c0.2-0.2,0.3-0.4,0.3-0.4l0,1.7h3.8v-15H61.6L61.6,5.1z
	 M61.8,12.6c0,2.6-1.6,4.6-4,4.6s-4.1-2-4.1-4.6s1.7-4.6,4.1-4.6C60.2,8.1,61.8,10.1,61.8,12.6C61.8,12.6,61.8,12.6,61.8,12.6z
	 M133.4,5.1l0,1.7c0,0-0.2-0.2-0.3-0.4c-0.7-0.9-2.2-1.7-4.3-1.7c-3.9,0-7.1,3.5-7.1,7.8c0,4.3,3.2,7.8,7.1,7.8
	c2.1,0,3.5-0.8,4.3-1.7c0.2-0.2,0.3-0.4,0.3-0.4l0,1.7h3.8v-15H133.4z M133.7,12.6c0,2.6-1.6,4.6-4,4.6s-4.1-2-4.1-4.6
	s1.7-4.6,4.1-4.6C132.1,8.1,133.7,10.1,133.7,12.6C133.7,12.6,133.7,12.6,133.7,12.6z M44.1,10.6H48c-0.9-3.7-3.7-5.9-7.5-5.9
	c-4.5,0-7.9,3.4-7.9,7.8s3.4,7.8,7.9,7.8c3.8,0,6.6-2.2,7.5-5.9h-3.9c-0.7,1.6-1.9,2.6-3.6,2.6c-2.4,0-4-2-4-4.6
	c0-2.6,1.7-4.6,4-4.6C42.2,8.1,43.4,9,44.1,10.6z M72.2,5.1h-3.3v15h3.9v-9.2l4.6,5.9l4.6-5.9v9.2h3.9v-15h-3.3l-5.2,6.6L72.2,5.1
	L72.2,5.1z M120.8,5.1h-4.5l-5.5,6.6V5.1h-3.9v15h3.9v-6.5l6.1,6.5h4.9l-7.3-7.6L120.8,5.1L120.8,5.1z M144.4,20.1h3.9V8.4h4.5V5.1
	h-12.9v3.2h4.5L144.4,20.1L144.4,20.1z"/>
</svg>
