<?xml version="1.0" encoding="UTF-8"?>
<svg id="_Слой_2" data-name="Слой 2" xmlns="http://www.w3.org/2000/svg" viewBox="0 0 115.41 128.99">
  <defs>
    <style>
      .cls-1 {
        fill: #2b4b9b;
        fill-rule: evenodd;
      }
    </style>
  </defs>
  <g id="_Слой_1-2" data-name="Слой 1">
    <g>
      <path class="cls-1" d="m112.02,27.16h-6.76s-.05,0-.07,0h-23.72V10.18c0-2.7-1.07-5.29-2.98-7.2-1.91-1.91-4.5-2.98-7.2-2.98h-27.16c-2.7,0-5.29,1.07-7.2,2.98-1.91,1.91-2.98,4.5-2.98,7.2v16.97H10.22s-.05,0-.07,0H3.39c-1.87,0-3.39,1.52-3.39,3.39s1.52,3.39,3.39,3.39h3.67l6.52,78.22c.04,4.45,1.82,8.7,4.97,11.85,3.18,3.18,7.5,4.97,12,4.97h54.31c4.5,0,8.82-1.79,12-4.97,3.15-3.15,4.93-7.4,4.97-11.85l6.52-78.22h3.67c1.87,0,3.39-1.52,3.39-3.39s-1.52-3.39-3.39-3.39ZM40.73,10.18c0-.9.36-1.76.99-2.4.64-.64,1.5-.99,2.4-.99h27.16c.9,0,1.76.36,2.4.99.64.64.99,1.5.99,2.4v16.97h-33.94V10.18Zm54.32,101.55c0,.09-.01.19-.01.28,0,2.7-1.07,5.29-2.98,7.2s-4.5,2.98-7.2,2.98H30.55c-2.7,0-5.29-1.07-7.2-2.98-1.91-1.91-2.98-4.5-2.98-7.2,0-.09,0-.19-.01-.28l-6.48-77.79h87.67l-6.48,77.79Z"/>
      <path class="cls-1" d="m44.13,54.31c1.87,0,3.39,1.52,3.39,3.39v40.73c0,1.87-1.52,3.39-3.39,3.39s-3.39-1.52-3.39-3.39v-40.73c0-1.87,1.52-3.39,3.39-3.39Z"/>
      <path class="cls-1" d="m71.28,54.31c1.87,0,3.39,1.52,3.39,3.39v40.73c0,1.87-1.52,3.39-3.39,3.39s-3.39-1.52-3.39-3.39v-40.73c0-1.87,1.52-3.39,3.39-3.39Z"/>
    </g>
  </g>
</svg>