<svg width="56" height="56" viewBox="0 0 56 56" fill="none" xmlns="http://www.w3.org/2000/svg">
<path d="M0.582031 35.8166V7.99966C0.582031 3.91183 3.88897 0.589844 7.99206 0.589844H48.0056C52.0932 0.589844 55.4154 3.91194 55.4154 7.99966V35.8166C55.4154 39.9043 52.0931 43.2265 48.0056 43.2265H44.9465V53.3001C44.9465 54.6627 43.3848 55.4129 42.3284 54.571L27.9988 43.2266H7.99206C3.88897 43.2266 0.582031 39.9043 0.582031 35.8166Z" fill="#F0F0FF"/>
<path d="M33.291 33.989C33.291 34.5238 33.0716 35.0083 32.7241 35.3604C32.3722 35.7123 31.8832 35.9272 31.3483 35.9272H24.727C23.7123 35.9272 22.8086 35.1816 22.7172 34.1709C22.6127 33.014 23.5178 32.0509 24.6471 32.0509H24.8893V21.3448C24.8893 21.3345 24.881 21.3261 24.8707 21.3261H24.7535C23.7305 21.3261 22.8084 20.5809 22.717 19.562C22.6139 18.4121 23.5185 17.4453 24.6471 17.4453H31.2634C32.2181 17.4453 33.0927 18.0954 33.2599 19.0353C33.3787 19.703 33.1457 20.3321 32.724 20.7593C32.3721 21.1067 31.8831 21.3261 31.3482 21.3261H31.1059V32.0509H31.3482C32.418 32.0509 33.291 32.9148 33.291 33.989Z" fill="#0100FF"/>
<path d="M33.291 33.989C33.291 34.5238 33.0716 35.0083 32.7241 35.3604C32.3722 35.7123 31.8832 35.9272 31.3483 35.9272H24.727C23.7123 35.9272 22.8086 35.1816 22.7172 34.1709C22.6127 33.014 23.5178 32.0509 24.6471 32.0509H24.8893V21.3448C24.8893 21.3345 24.881 21.3261 24.8707 21.3261H24.7535C23.7305 21.3261 22.8084 20.5809 22.717 19.562C22.6139 18.4121 23.5185 17.4453 24.6471 17.4453H31.2634C32.2181 17.4453 33.0927 18.0954 33.2599 19.0353C33.3787 19.703 33.1457 20.3321 32.724 20.7593C32.3721 21.1067 31.8831 21.3261 31.3482 21.3261H31.1059V32.0509H31.3482C32.418 32.0509 33.291 32.9148 33.291 33.989Z" fill="black" fill-opacity="0.2"/>
<path d="M31.4983 11.3881C31.4983 13.3217 29.935 14.8896 27.9969 14.8896C26.0633 14.8896 24.5 13.3216 24.5 11.3881C24.5 9.45464 26.0633 7.88672 27.9969 7.88672C29.935 7.88672 31.4983 9.45453 31.4983 11.3881Z" fill="#0100FF"/>
<path d="M31.4983 11.3881C31.4983 13.3217 29.935 14.8896 27.9969 14.8896C26.0633 14.8896 24.5 13.3216 24.5 11.3881C24.5 9.45464 26.0633 7.88672 27.9969 7.88672C29.935 7.88672 31.4983 9.45453 31.4983 11.3881Z" fill="black" fill-opacity="0.2"/>
<path d="M48.0064 0H7.99347C3.58598 0 0 3.58576 0 7.99325V35.8101C0 40.2176 3.58598 43.8034 7.99347 43.8034H27.7972L41.9664 55.0206C43.4015 56.1649 45.5313 55.1451 45.5313 53.2936V43.8034H48.0065C52.414 43.8034 56 40.2176 56 35.8101V7.99325C56 3.58576 52.4139 0 48.0064 0ZM54.8333 35.8101C54.8333 39.5741 51.7708 42.6367 48.0065 42.6367H44.948C44.6256 42.6367 44.3647 42.8979 44.3647 43.2201V53.2936C44.3647 54.1658 43.3724 54.6496 42.6921 54.1071L28.3622 42.7626C28.2591 42.6811 28.1315 42.6367 27.9999 42.6367H7.99347C4.22916 42.6367 1.16666 39.5742 1.16666 35.8101V7.99325C1.16666 4.22927 4.22916 1.16666 7.99347 1.16666H48.0065C51.7708 1.16666 54.8333 4.22916 54.8333 7.99325V35.8101Z" fill="#000071"/>
<path d="M31.689 31.4861V21.8822C33.1456 21.6866 34.0808 20.3189 33.8343 18.9287C33.6208 17.7285 32.5395 16.8574 31.2635 16.8574H24.6469C23.166 16.8574 22.0033 18.1291 22.1357 19.61C22.2389 20.7522 23.156 21.6747 24.3061 21.8676V31.4866C23.0103 31.6639 22.0096 32.8216 22.1357 34.219C22.2519 35.5013 23.3902 36.5059 24.7266 36.5059H31.3484C32.7609 36.5059 33.8742 35.3679 33.8742 33.9846C33.8743 32.7096 32.9212 31.6527 31.689 31.4861ZM31.3484 35.3392H24.7266C23.9878 35.3392 23.36 34.8009 23.2979 34.1139C23.2232 33.2915 23.8688 32.63 24.6469 32.63H24.8896C25.212 32.63 25.4729 32.3689 25.4729 32.0467V21.3405C25.4729 21.0183 25.1932 20.7384 24.8708 20.7384H24.7534C23.9992 20.7384 23.36 20.1969 23.2979 19.5056C23.2247 18.6905 23.8677 18.0242 24.6469 18.0242H31.2635C31.9619 18.0242 32.5731 18.501 32.6859 19.1331C32.8338 19.9685 32.207 20.7384 31.3484 20.7384H31.1057C30.7833 20.7384 30.5224 20.9995 30.5224 21.3217V32.0467C30.5224 32.3689 30.7833 32.63 31.1057 32.63H31.3484C32.0981 32.63 32.7075 33.2378 32.7075 33.9847C32.7077 34.7243 32.1154 35.3392 31.3484 35.3392Z" fill="#000071"/>
<path d="M27.9984 15.4683C30.2508 15.4683 32.0829 13.636 32.0829 11.3836C32.0829 9.13119 30.2508 7.29883 27.9984 7.29883C25.7482 7.29883 23.918 9.13119 23.918 11.3836C23.918 13.636 25.7483 15.4683 27.9984 15.4683ZM27.9984 8.46549C29.6072 8.46549 30.9162 9.77459 30.9162 11.3836C30.9162 12.9926 29.6071 14.3017 27.9984 14.3017C26.392 14.3017 25.0846 12.9926 25.0846 11.3836C25.0846 9.77459 26.392 8.46549 27.9984 8.46549Z" fill="#000071"/>
</svg>
