<svg width="64" height="64" viewBox="0 0 64 64" fill="none" xmlns="http://www.w3.org/2000/svg">
<path d="M38.1021 16.6509C38.1021 8.24541 31.2825 1.42578 22.877 1.42578V16.6509H38.1021Z" fill="#0100FF"/>
<path d="M38.1021 16.6509C38.1021 8.24541 31.2825 1.42578 22.877 1.42578V16.6509H38.1021Z" fill="black" fill-opacity="0.2"/>
<path d="M19.7036 4.59766C11.2901 4.59766 4.47852 11.4173 4.47852 19.8228C4.47852 28.2364 11.2903 35.048 19.7036 35.048C23.9071 35.048 27.714 33.3444 30.4698 30.589L19.7036 19.8229V4.59766Z" fill="#F0F0FF"/>
<path d="M19.7051 19.8223L30.4712 30.5884C33.226 27.8339 34.9303 24.0283 34.9303 19.8223H19.7051Z" fill="white"/>
<path d="M12.4883 39.8701V57.1322C12.4883 57.9515 11.8242 58.6156 11.005 58.6156H7.63572C6.81647 58.6156 6.15234 57.9515 6.15234 57.1322V39.8701C6.15234 39.0508 6.81647 38.3867 7.63572 38.3867H11.0048C11.8242 38.3867 12.4883 39.0508 12.4883 39.8701Z" fill="#F0F0FF"/>
<path d="M23.8281 45.1553V57.1326C23.8281 57.9519 23.1639 58.616 22.3447 58.616H18.9756C18.1563 58.616 17.4922 57.9519 17.4922 57.1326V45.1553C17.4922 44.336 18.1563 43.6719 18.9756 43.6719H22.3447C23.1639 43.6719 23.8281 44.336 23.8281 45.1553Z" fill="#0100FF"/>
<path d="M23.8281 45.1553V57.1326C23.8281 57.9519 23.1639 58.616 22.3447 58.616H18.9756C18.1563 58.616 17.4922 57.9519 17.4922 57.1326V45.1553C17.4922 44.336 18.1563 43.6719 18.9756 43.6719H22.3447C23.1639 43.6719 23.8281 44.336 23.8281 45.1553Z" fill="black" fill-opacity="0.2"/>
<path d="M35.1679 35.79V57.1324C35.1679 57.9516 34.5038 58.6158 33.6845 58.6158H30.3154C29.4962 58.6158 28.832 57.9516 28.832 57.1324V35.79C28.832 34.9708 29.4962 34.3066 30.3154 34.3066H33.6845C34.5038 34.3068 35.1679 34.9709 35.1679 35.79Z" fill="#F0F0FF"/>
<path d="M46.5078 21.3056V57.1315C46.5078 57.9508 45.8436 58.6149 45.0244 58.6149H41.6553C40.836 58.6149 40.1719 57.9508 40.1719 57.1315V21.3056C40.1719 20.4864 40.836 19.8223 41.6553 19.8223H45.0244C45.8436 19.8223 46.5078 20.4864 46.5078 21.3056Z" fill="#0100FF"/>
<path d="M46.5078 21.3056V57.1315C46.5078 57.9508 45.8436 58.6149 45.0244 58.6149H41.6553C40.836 58.6149 40.1719 57.9508 40.1719 57.1315V21.3056C40.1719 20.4864 40.836 19.8223 41.6553 19.8223H45.0244C45.8436 19.8223 46.5078 20.4864 46.5078 21.3056Z" fill="black" fill-opacity="0.2"/>
<path d="M57.8476 25.206V57.1322C57.8476 57.9514 57.1835 58.6155 56.3642 58.6155H52.9951C52.1758 58.6155 51.5117 57.9514 51.5117 57.1322V25.206C51.5117 24.3868 52.1758 23.7227 52.9951 23.7227H56.3642C57.1835 23.7227 57.8476 24.3868 57.8476 25.206Z" fill="#F0F0FF"/>
<path d="M38.7529 16.6509C38.7529 7.89702 31.6309 0.775391 22.8771 0.775391C22.5176 0.775391 22.2266 1.06664 22.2266 1.42589V16.6509C22.2266 17.0101 22.5176 17.3014 22.8771 17.3014H38.1024C38.4619 17.3014 38.7529 17.0101 38.7529 16.6509ZM23.5276 16.0004V2.09064C31.0484 2.42227 37.1057 8.47977 37.4373 16.0004H23.5276Z" fill="#000071"/>
<path d="M35.5812 19.8229C35.5812 19.4636 35.2902 19.1724 34.9307 19.1724H20.3558V4.59777C20.3558 4.23852 20.0648 3.94727 19.7053 3.94727C10.9515 3.94727 3.83008 11.0689 3.83008 19.8228C3.83008 28.5766 10.9513 35.6983 19.7053 35.6983C23.9463 35.6983 27.9333 34.0473 30.9317 31.0488C33.9301 28.0508 35.5812 24.0639 35.5812 19.8229ZM30.4616 29.6589C29.5911 28.7884 22.1526 21.3501 21.2757 20.4733H34.2662C34.1162 23.9063 32.7828 27.1261 30.4616 29.6589ZM5.13108 19.8229C5.13108 12.0044 11.3192 5.60377 19.0548 5.26264V19.8229C19.0548 19.9536 19.1232 20.1605 19.2455 20.2828L29.5418 30.5788C26.849 33.0461 23.3811 34.3974 19.7055 34.3974C11.6692 34.3974 5.13108 27.8593 5.13108 19.8229Z" fill="#000071"/>
<path d="M7.63583 37.7363C6.45933 37.7363 5.50195 38.6937 5.50195 39.8702V57.1322C5.50195 58.3087 6.45933 59.2661 7.63583 59.2661H11.0053C12.1818 59.2661 13.1392 58.3087 13.1392 57.1322V39.8702C13.1392 38.6937 12.1818 37.7363 11.0053 37.7363H7.63583ZM11.8381 39.8702V57.1322C11.8381 57.5915 11.4646 57.9651 11.0052 57.9651H7.63583C7.17658 57.9651 6.80295 57.5916 6.80295 57.1322V39.8702C6.80295 39.411 7.17645 39.0373 7.63583 39.0373H11.0053C11.4646 39.0373 11.8381 39.4108 11.8381 39.8702Z" fill="#000071"/>
<path d="M18.9757 43.0215C17.7992 43.0215 16.8418 43.9789 16.8418 45.1554V57.1326C16.8418 58.3091 17.7992 59.2665 18.9757 59.2665H22.3452C23.5217 59.2665 24.479 58.3091 24.479 57.1326V45.1554C24.479 43.9789 23.5217 43.0215 22.3452 43.0215H18.9757ZM23.1779 45.1554V57.1326C23.1779 57.5919 22.8044 57.9655 22.345 57.9655H18.9755C18.5163 57.9655 18.1427 57.592 18.1427 57.1326V45.1554C18.1427 44.6961 18.5162 44.3225 18.9755 44.3225H22.345C22.8043 44.3225 23.1779 44.696 23.1779 45.1554Z" fill="#000071"/>
<path d="M30.3155 59.2664H33.685C34.8615 59.2664 35.8189 58.309 35.8189 57.1325V35.7901C35.8189 34.6136 34.8615 33.6562 33.685 33.6562H30.3155C29.139 33.6562 28.1816 34.6136 28.1816 35.7901V57.1325C28.1816 58.309 29.139 59.2664 30.3155 59.2664ZM29.4828 35.7901C29.4828 35.3309 29.8563 34.9572 30.3156 34.9572H33.6851C34.1444 34.9572 34.518 35.3307 34.518 35.7901V57.1325C34.518 57.5917 34.1445 57.9654 33.6851 57.9654H30.3156C29.8564 57.9654 29.4828 57.5919 29.4828 57.1325V35.7901Z" fill="#000071"/>
<path d="M45.0249 19.1719H41.6554C40.4789 19.1719 39.5215 20.1292 39.5215 21.3057V57.1315C39.5215 58.308 40.4789 59.2654 41.6554 59.2654H45.0249C46.2014 59.2654 47.1587 58.308 47.1587 57.1315V21.3057C47.1587 20.1292 46.2014 19.1719 45.0249 19.1719ZM45.8577 57.1315C45.8577 57.5908 45.4842 57.9644 45.0249 57.9644H41.6554C41.1961 57.9644 40.8225 57.5909 40.8225 57.1315V21.3057C40.8225 20.8465 41.196 20.4729 41.6554 20.4729H45.0249C45.4841 20.4729 45.8577 20.8464 45.8577 21.3057V57.1315Z" fill="#000071"/>
<path d="M50.8594 25.2061V57.1323C50.8594 58.3088 51.8168 59.2661 52.9933 59.2661H56.3628C57.5393 59.2661 58.4966 58.3088 58.4966 57.1323V25.2061C58.4966 24.0296 57.5393 23.0723 56.3628 23.0723H52.9933C51.8168 23.0723 50.8594 24.0296 50.8594 25.2061ZM57.1955 25.2061V57.1323C57.1955 57.5915 56.822 57.9651 56.3626 57.9651H52.9931C52.5339 57.9651 52.1603 57.5916 52.1603 57.1323V25.2061C52.1603 24.7469 52.5338 24.3733 52.9931 24.3733H56.3626C56.8219 24.3733 57.1955 24.7468 57.1955 25.2061Z" fill="#000071"/>
<path d="M62.4666 61.9238H1.53331C1.17381 61.9238 0.882812 62.2151 0.882812 62.5743C0.882812 62.9336 1.17381 63.2248 1.53331 63.2248H62.4666C62.8261 63.2248 63.1171 62.9336 63.1171 62.5743C63.1171 62.2151 62.8261 61.9238 62.4666 61.9238Z" fill="#000071"/>
</svg>
