<svg width="56" height="64" viewBox="0 0 56 64" fill="none" xmlns="http://www.w3.org/2000/svg">
<path d="M27.4701 20.9563V23.1159C27.4701 23.3307 27.3205 23.5128 27.1059 23.5518L24.8551 24.0137C24.8226 24.1763 24.7901 24.3325 24.751 24.4887C24.5949 25.1717 24.3737 25.8222 24.0875 26.4402H21.7716C20.0867 26.4402 18.7272 27.7997 18.7272 29.478V31.8134C18.1092 32.0995 17.4587 32.3208 16.7757 32.4769C16.6131 32.5159 16.4505 32.5484 16.2814 32.581L15.826 34.8383C15.7805 35.053 15.5984 35.196 15.3771 35.196H13.2174C13.0027 35.196 12.8206 35.0529 12.7815 34.8383L12.3196 32.581C10.8235 32.3078 9.44436 31.7223 8.24098 30.8962L6.32198 32.1582C6.13986 32.2818 5.89911 32.2623 5.75598 32.1062L4.22073 30.5774C4.07761 30.4343 4.04511 30.1937 4.16873 30.0115L5.43723 28.0925C4.61111 26.8892 4.02561 25.5035 3.74586 24.0138L1.49511 23.5519C1.28048 23.5129 1.13086 23.3308 1.13086 23.116V20.9564C1.13086 20.7353 1.28048 20.553 1.49511 20.5075L3.74586 20.0457C4.02561 18.5559 4.61111 17.1834 5.43723 15.9799L4.16886 14.0479C4.04523 13.8723 4.07773 13.6315 4.22086 13.4819L5.75611 11.9598C5.89923 11.8037 6.13986 11.7777 6.32211 11.9012L8.24111 13.1762C9.44448 12.3435 10.8236 11.758 12.3197 11.4849L12.7816 9.22753C12.8206 9.01291 13.0029 8.86328 13.2175 8.86328H15.3772C15.5985 8.86328 15.7806 9.01291 15.8261 9.22753L16.2815 11.4849C17.7776 11.758 19.1502 12.3434 20.3602 13.1762L22.2792 11.9012C22.4549 11.7777 22.6956 11.8037 22.8452 11.9598L24.374 13.4819C24.5301 13.6315 24.5561 13.8723 24.4325 14.0479L23.1575 15.9799C23.9901 17.1833 24.5756 18.5559 24.8554 20.0457L27.1061 20.5075C27.3205 20.5529 27.4701 20.7352 27.4701 20.9563Z" fill="#0100FF"/>
<path d="M27.4701 20.9563V23.1159C27.4701 23.3307 27.3205 23.5128 27.1059 23.5518L24.8551 24.0137C24.8226 24.1763 24.7901 24.3325 24.751 24.4887C24.5949 25.1717 24.3737 25.8222 24.0875 26.4402H21.7716C20.0867 26.4402 18.7272 27.7997 18.7272 29.478V31.8134C18.1092 32.0995 17.4587 32.3208 16.7757 32.4769C16.6131 32.5159 16.4505 32.5484 16.2814 32.581L15.826 34.8383C15.7805 35.053 15.5984 35.196 15.3771 35.196H13.2174C13.0027 35.196 12.8206 35.0529 12.7815 34.8383L12.3196 32.581C10.8235 32.3078 9.44436 31.7223 8.24098 30.8962L6.32198 32.1582C6.13986 32.2818 5.89911 32.2623 5.75598 32.1062L4.22073 30.5774C4.07761 30.4343 4.04511 30.1937 4.16873 30.0115L5.43723 28.0925C4.61111 26.8892 4.02561 25.5035 3.74586 24.0138L1.49511 23.5519C1.28048 23.5129 1.13086 23.3308 1.13086 23.116V20.9564C1.13086 20.7353 1.28048 20.553 1.49511 20.5075L3.74586 20.0457C4.02561 18.5559 4.61111 17.1834 5.43723 15.9799L4.16886 14.0479C4.04523 13.8723 4.07773 13.6315 4.22086 13.4819L5.75611 11.9598C5.89923 11.8037 6.13986 11.7777 6.32211 11.9012L8.24111 13.1762C9.44448 12.3435 10.8236 11.758 12.3197 11.4849L12.7816 9.22753C12.8206 9.01291 13.0029 8.86328 13.2175 8.86328H15.3772C15.5985 8.86328 15.7806 9.01291 15.8261 9.22753L16.2815 11.4849C17.7776 11.758 19.1502 12.3434 20.3602 13.1762L22.2792 11.9012C22.4549 11.7777 22.6956 11.8037 22.8452 11.9598L24.374 13.4819C24.5301 13.6315 24.5561 13.8723 24.4325 14.0479L23.1575 15.9799C23.9901 17.1833 24.5756 18.5559 24.8554 20.0457L27.1061 20.5075C27.3205 20.5529 27.4701 20.7352 27.4701 20.9563Z" fill="black" fill-opacity="0.2"/>
<path d="M20.0516 23.78C21.0138 20.6047 19.2198 17.2506 16.0445 16.2883C12.8691 15.3261 9.51501 17.1202 8.55279 20.2955C7.59058 23.4708 9.38465 26.825 12.56 27.7872C15.7353 28.7494 19.0894 26.9553 20.0516 23.78Z" fill="white"/>
<path d="M48.8158 17.5294L47.9348 19.2685C47.8472 19.4415 47.6524 19.5294 47.4627 19.4748L45.4614 18.9272C44.6314 20.0137 43.6 20.8843 42.4418 21.5147L42.681 23.5778C42.7069 23.7722 42.5882 23.9554 42.404 24.0123L40.5538 24.6183C40.3717 24.6813 40.1675 24.6038 40.0734 24.4318L39.0457 22.6269C37.7389 22.804 36.3924 22.7122 35.0804 22.3273L33.7909 23.9527C33.6702 24.1092 33.4613 24.1534 33.2883 24.0658L31.5492 23.1848C31.376 23.0972 31.2883 22.9025 31.343 22.7127L31.8907 20.7115C30.8042 19.8814 29.9334 18.8502 29.3032 17.6919L27.24 17.9312C27.0457 17.957 26.8624 17.8383 26.8055 17.6542L26.1995 15.8039C26.1364 15.6218 26.2139 15.4177 26.3859 15.3235L28.1908 14.2958C28.0138 12.9892 28.1055 11.6425 28.4904 10.3305L26.8649 9.04104C26.7085 8.92041 26.6642 8.71141 26.7519 8.53841L27.6329 6.79929C27.7207 6.62616 27.9153 6.53841 28.105 6.59304L30.1063 7.14066C30.9363 6.05404 31.9678 5.18341 33.1259 4.55316L32.8867 2.49004C32.8608 2.29566 32.9795 2.11241 33.1637 2.05554L35.0139 1.44954C35.196 1.38641 35.4002 1.46391 35.4944 1.63591L36.5222 3.44091C37.8288 3.26391 39.1754 3.35566 40.4874 3.74054L41.7769 2.11504C41.8975 1.95866 42.1064 1.91429 42.2795 2.00204L44.0187 2.88304C44.1918 2.97066 44.2795 3.16541 44.2249 3.35516L43.6773 5.35641C44.7638 6.18641 45.6344 7.21779 46.2648 8.37604L48.328 8.13679C48.5224 8.11091 48.7057 8.22966 48.7625 8.41391L49.3685 10.2642C49.4317 10.4463 49.3542 10.6504 49.1822 10.7445L47.3773 11.7723C47.5543 13.0789 47.4625 14.4255 47.0777 15.7377L48.7032 17.027C48.8592 17.1474 48.9035 17.3563 48.8158 17.5294Z" fill="#0100FF"/>
<path d="M48.8158 17.5294L47.9348 19.2685C47.8472 19.4415 47.6524 19.5294 47.4627 19.4748L45.4614 18.9272C44.6314 20.0137 43.6 20.8843 42.4418 21.5147L42.681 23.5778C42.7069 23.7722 42.5882 23.9554 42.404 24.0123L40.5538 24.6183C40.3717 24.6813 40.1675 24.6038 40.0734 24.4318L39.0457 22.6269C37.7389 22.804 36.3924 22.7122 35.0804 22.3273L33.7909 23.9527C33.6702 24.1092 33.4613 24.1534 33.2883 24.0658L31.5492 23.1848C31.376 23.0972 31.2883 22.9025 31.343 22.7127L31.8907 20.7115C30.8042 19.8814 29.9334 18.8502 29.3032 17.6919L27.24 17.9312C27.0457 17.957 26.8624 17.8383 26.8055 17.6542L26.1995 15.8039C26.1364 15.6218 26.2139 15.4177 26.3859 15.3235L28.1908 14.2958C28.0138 12.9892 28.1055 11.6425 28.4904 10.3305L26.8649 9.04104C26.7085 8.92041 26.6642 8.71141 26.7519 8.53841L27.6329 6.79929C27.7207 6.62616 27.9153 6.53841 28.105 6.59304L30.1063 7.14066C30.9363 6.05404 31.9678 5.18341 33.1259 4.55316L32.8867 2.49004C32.8608 2.29566 32.9795 2.11241 33.1637 2.05554L35.0139 1.44954C35.196 1.38641 35.4002 1.46391 35.4944 1.63591L36.5222 3.44091C37.8288 3.26391 39.1754 3.35566 40.4874 3.74054L41.7769 2.11504C41.8975 1.95866 42.1064 1.91429 42.2795 2.00204L44.0187 2.88304C44.1918 2.97066 44.2795 3.16541 44.2249 3.35516L43.6773 5.35641C44.7638 6.18641 45.6344 7.21779 46.2648 8.37604L48.328 8.13679C48.5224 8.11091 48.7057 8.22966 48.7625 8.41391L49.3685 10.2642C49.4317 10.4463 49.3542 10.6504 49.1822 10.7445L47.3773 11.7723C47.5543 13.0789 47.4625 14.4255 47.0777 15.7377L48.7032 17.027C48.8592 17.1474 48.9035 17.3563 48.8158 17.5294Z" fill="black" fill-opacity="0.2"/>
<path d="M41.607 16.8664C43.7219 14.7515 43.7219 11.3227 41.607 9.20782C39.4921 7.09296 36.0633 7.09296 33.9484 9.20782C31.8336 11.3227 31.8336 14.7515 33.9484 16.8664C36.0633 18.9813 39.4922 18.9813 41.607 16.8664Z" fill="white"/>
<path d="M54.8724 29.4795V59.5313C54.8724 61.2169 53.5079 62.5753 51.8284 62.5753H21.7706C20.0849 62.5753 18.7266 61.2169 18.7266 59.5313V29.4795C18.7266 27.8 20.0849 26.4355 21.7706 26.4355H51.8283C53.5078 26.4355 54.8724 27.8 54.8724 29.4795Z" fill="#F0F0FF"/>
<path d="M26.9057 51.7372C28.5903 51.7372 29.956 50.3716 29.956 48.687C29.956 47.0024 28.5903 45.6367 26.9057 45.6367C25.2211 45.6367 23.8555 47.0024 23.8555 48.687C23.8555 50.3716 25.2211 51.7372 26.9057 51.7372Z" fill="white"/>
<path d="M36.7983 43.3759C38.4829 43.3759 39.8485 42.0102 39.8485 40.3256C39.8485 38.641 38.4829 37.2754 36.7983 37.2754C35.1137 37.2754 33.748 38.641 33.748 40.3256C33.748 42.0102 35.1137 43.3759 36.7983 43.3759Z" fill="white"/>
<path d="M46.6928 47.5556C48.3774 47.5556 49.7431 46.1899 49.7431 44.5053C49.7431 42.8207 48.3774 41.4551 46.6928 41.4551C45.0082 41.4551 43.6426 42.8207 43.6426 44.5053C43.6426 46.1899 45.0082 47.5556 46.6928 47.5556Z" fill="white"/>
<path d="M1.36539 19.8706C0.851516 19.9733 0.478516 20.4284 0.478516 20.9528V23.1139C0.478516 23.6424 0.843141 24.0853 1.36214 24.1898L3.19677 24.5668C3.48077 25.8208 3.97114 27.0024 4.65914 28.0899L3.63189 29.6409C3.33139 30.0751 3.38602 30.663 3.76277 31.0398L5.28427 32.5543C5.65589 32.9424 6.24727 33.0009 6.67989 32.7029L8.24202 31.6731C9.33402 32.364 10.5163 32.8531 11.7665 33.1318L12.1394 34.9524C12.2309 35.4714 12.6844 35.8481 13.2188 35.8481H15.3799C15.9014 35.8481 16.3563 35.4794 16.4618 34.9686L16.8334 33.1321C17.2564 33.0383 17.6696 32.9131 18.076 32.7704V59.5318C18.076 61.5688 19.7334 63.2261 21.77 63.2261H51.8283C53.8655 63.2261 55.523 61.5688 55.523 59.5318V29.48C55.523 27.443 53.8656 25.7856 51.8283 25.7856H25.044C25.1825 25.3916 25.305 24.987 25.4013 24.5669L27.2334 24.1905C27.7555 24.0854 28.1203 23.6426 28.1203 23.114V20.9529C28.1203 20.4288 27.7468 19.9736 27.236 19.8714L25.402 19.4944C25.118 18.2445 24.627 17.0645 23.939 15.9766L24.9675 14.419C25.273 13.9756 25.214 13.3841 24.8354 13.0211L23.3139 11.5054C22.9416 11.1198 22.3501 11.061 21.9169 11.359L20.3566 12.3929C19.2748 11.7059 18.0931 11.2154 16.8335 10.9311L16.4619 9.10002C16.359 8.58614 15.9041 8.21289 15.38 8.21289H13.2189C12.6828 8.21289 12.2285 8.59377 12.1434 9.09689L11.7666 10.9309C10.5056 11.2151 9.32402 11.7056 8.24214 12.3929L6.69014 11.3654C6.24864 11.0608 5.65652 11.1186 5.29452 11.4959L3.76227 13.0221C3.38614 13.3983 3.33152 13.9861 3.62377 14.4083L4.65927 15.9768C3.97064 17.065 3.48027 18.245 3.19689 19.4945L1.36539 19.8706ZM54.2219 29.48V59.5318C54.2219 60.8515 53.1483 61.9251 51.8283 61.9251H21.7701C20.4506 61.9251 19.3771 60.8515 19.3771 59.5318V31.8139V29.4799C19.3771 28.1601 20.4508 27.0865 21.7701 27.0865H24.0856H51.8283C53.1483 27.0866 54.2219 28.1601 54.2219 29.48ZM4.38677 20.1648C4.64277 18.79 5.17764 17.5046 5.97489 16.3446C6.12477 16.1264 6.12739 15.839 5.98189 15.6179L4.79839 13.8258L6.09689 12.5324L7.88264 13.7153C8.10502 13.8626 8.39402 13.8595 8.61252 13.708C9.76101 12.913 11.0475 12.379 12.4361 12.1211C12.6966 12.0725 12.9011 11.8715 12.9545 11.6123L13.3853 9.51364H15.2186L15.6436 11.6106C15.6964 11.8708 15.9021 12.0725 16.1626 12.121C17.5506 12.3789 18.8371 12.9129 19.9863 13.7079C20.2048 13.8594 20.4933 13.8623 20.7161 13.7151L22.5013 12.5323L23.7998 13.826L22.6169 15.6175C22.4708 15.8386 22.4733 16.1264 22.6233 16.3445C23.4205 17.5041 23.9554 18.7896 24.212 20.1646C24.2609 20.4245 24.4616 20.6294 24.7209 20.6824L26.8191 21.1138V22.9471L24.7209 23.3785C24.4624 23.4315 24.2616 23.6351 24.2126 23.8944C24.0863 24.5605 23.9008 25.1948 23.6593 25.7855H21.77C19.7334 25.7855 18.076 27.4429 18.076 29.4799V31.3866C17.4643 31.6356 16.8239 31.8211 16.1664 31.9393C15.904 31.9866 15.6969 32.1893 15.6435 32.4506L15.2191 34.547H13.3845L12.9544 32.449C12.901 32.1885 12.6951 31.9871 12.4335 31.9395C11.0608 31.6901 9.77489 31.1578 8.61052 30.3578C8.39202 30.2081 8.10677 30.2056 7.88377 30.3508L6.09739 31.5285L4.79889 30.2348L5.98114 28.4496C6.12727 28.2283 6.12477 27.9405 5.97477 27.7219C5.17814 26.5638 4.64389 25.2764 4.38664 23.896C4.33777 23.6361 4.13702 23.4313 3.87777 23.3783L1.77952 22.9473V21.1133L3.87777 20.6823C4.13702 20.6295 4.33777 20.4246 4.38677 20.1648Z" fill="#000071"/>
<path d="M14.2989 28.6895C17.9708 28.6895 20.9578 25.7025 20.9578 22.0313C20.9578 18.36 17.9708 15.373 14.2989 15.373C10.6276 15.373 7.64062 18.36 7.64062 22.0313C7.64062 25.7025 10.6278 28.6895 14.2989 28.6895ZM14.2989 16.6742C17.2535 16.6742 19.6567 19.0774 19.6567 22.0313C19.6567 24.9852 17.2535 27.3884 14.2989 27.3884C11.3449 27.3884 8.94175 24.9852 8.94175 22.0313C8.94175 19.0774 11.3449 16.6742 14.2989 16.6742Z" fill="#000071"/>
<path d="M25.5797 16.0066L26.1826 17.8472C26.3351 18.338 26.8147 18.6464 27.3133 18.5775L28.9504 18.3879C29.5368 19.3634 30.2737 20.2235 31.1484 20.9531L30.7164 22.5334C30.5767 23.0194 30.8028 23.5377 31.2538 23.7657L32.9932 24.6471C33.4468 24.8759 33.9969 24.75 34.2993 24.3575L35.3227 23.0676C36.4281 23.3407 37.5588 23.4269 38.6908 23.322L39.5014 24.7446C39.6907 25.0915 40.0491 25.2935 40.4201 25.2935C40.5318 25.2931 40.6449 25.2751 40.7548 25.237L42.5946 24.6345C43.0856 24.483 43.3931 24.0024 43.3258 23.5034L43.1366 21.8662C44.1117 21.2802 44.9718 20.543 45.7018 19.6679L47.2804 20.0999C47.7658 20.2402 48.2848 20.0147 48.5134 19.5631L49.3946 17.8241L49.3952 17.8237C49.6232 17.3727 49.4987 16.821 49.1056 16.5174L47.8153 15.4942C48.0897 14.3882 48.1748 13.2587 48.0707 12.1255L49.4924 11.3155C49.9441 11.069 50.1499 10.5376 49.9854 10.0621L49.3826 8.22149C49.2301 7.73112 48.7467 7.42524 48.2518 7.49099L46.6147 7.68062C46.0283 6.70512 45.2914 5.84499 44.4161 5.11574L44.8487 3.53549C44.9884 3.05012 44.7629 2.53212 44.3119 2.30312L42.5719 1.42174C42.1216 1.19337 41.5694 1.31849 41.2664 1.71112L40.2431 3.00137C39.1364 2.72787 38.0038 2.64187 36.8743 2.74662L36.0643 1.32462C35.8172 0.872993 35.2861 0.666743 34.8103 0.831993L32.9706 1.43449C32.4796 1.58599 32.1721 2.06662 32.2393 2.56562L32.4293 4.20237C31.4536 4.78874 30.5934 5.52599 29.8634 6.40099L28.2836 5.96837C27.7976 5.82887 27.2804 6.05449 27.0518 6.50574L26.1701 8.24512C25.9413 8.69649 26.0666 9.24824 26.4597 9.55087L27.7499 10.5746C27.4756 11.6806 27.3904 12.8101 27.4946 13.9434L26.0728 14.7534C25.6209 14.9996 25.4152 15.5311 25.5797 16.0066ZM28.5114 14.8615C28.7421 14.73 28.8697 14.4717 28.8342 14.2087C28.6652 12.9642 28.7592 11.721 29.1137 10.514C29.1881 10.2596 29.1009 9.98574 28.8933 9.82124L27.4214 8.65362L28.1214 7.27249L29.9332 7.76837C30.1879 7.83924 30.4611 7.74649 30.6218 7.53587C31.3854 6.53624 32.3319 5.72499 33.4354 5.12474C33.6686 4.99774 33.8013 4.74199 33.7708 4.47837L33.5542 2.61199L35.0254 2.12987L35.9554 3.76312C36.0869 3.99337 36.3423 4.12262 36.6078 4.08549C37.8536 3.91812 39.0956 4.01087 40.3032 4.36499C40.5573 4.44062 40.8311 4.35324 40.9957 4.14524L42.1633 2.67337L43.5444 3.37274L43.0483 5.18512C42.9784 5.44049 43.0706 5.71274 43.2808 5.87337C44.2807 6.63724 45.0919 7.58387 45.6923 8.68699C45.8187 8.92012 46.0734 9.05737 46.3383 9.02212L48.2047 8.80587L48.6868 10.2771L47.0536 11.2071C46.8229 11.3386 46.6953 11.5969 46.7308 11.8599C46.8998 13.1044 46.8058 14.3476 46.4513 15.5546C46.3769 15.809 46.4641 16.0829 46.6717 16.2477L48.1436 17.415L47.4436 18.7961L45.6318 18.3002C45.3783 18.2306 45.1046 18.3225 44.9432 18.5327C44.1796 19.532 43.2331 20.3432 42.1302 20.9436C41.8971 21.0704 41.7643 21.3264 41.7948 21.59L42.0108 23.4567L40.5396 23.9386L39.6096 22.3056C39.4927 22.1004 39.2761 21.9769 39.0442 21.9769C39.0156 21.9769 38.9864 21.9787 38.9566 21.9829C37.7146 22.1512 36.4702 22.0581 35.2618 21.7036C35.0089 21.6292 34.7339 21.716 34.5694 21.9234L33.4018 23.3956L32.0207 22.6956L32.5168 20.8839C32.5867 20.6281 32.4946 20.356 32.2843 20.1952C31.2844 19.4314 30.4732 18.4847 29.8734 17.3814C29.7464 17.1482 29.4973 17.0142 29.2267 17.0462L27.3597 17.2625L26.8782 15.7915L28.5114 14.8615Z" fill="#000071"/>
<path d="M35.0411 18.4467C38.0436 19.9665 41.6916 18.7432 43.1947 15.7764C44.7104 12.785 43.5162 9.13823 40.5247 7.62273C37.5389 6.11148 33.8831 7.30885 32.3711 10.2931C31.6386 11.7386 31.5128 13.383 32.0172 14.9232C32.5216 16.4632 33.5958 17.7146 35.0411 18.4467ZM33.5311 10.8815C34.7214 8.53223 37.5977 7.59798 39.9364 8.78348C42.2846 9.9726 43.2251 12.8377 42.0347 15.1882C40.8467 17.533 37.9728 18.4741 35.6293 17.2862C33.2812 16.097 32.3407 13.2319 33.5311 10.8815Z" fill="#000071"/>
<path d="M23.2051 48.6869C23.2051 50.5052 24.5242 52.0181 26.255 52.3268V55.8867C26.255 56.2459 26.546 56.5372 26.9055 56.5372C27.265 56.5372 27.556 56.2459 27.556 55.8867V52.3268C29.2868 52.0179 30.6065 50.5051 30.6065 48.6869C30.6065 46.8687 29.2868 45.3561 27.556 45.0473V33.1271C27.556 32.7678 27.265 32.4766 26.9055 32.4766C26.546 32.4766 26.255 32.7678 26.255 33.1271V45.0473C24.5242 45.3561 23.2051 46.8687 23.2051 48.6869ZM26.9055 46.2876C28.2287 46.2876 29.3055 47.3641 29.3055 48.6869C29.3055 50.0102 28.2287 51.0867 26.9055 51.0867C25.5822 51.0867 24.5061 50.0102 24.5061 48.6869C24.5061 47.3641 25.5822 46.2876 26.9055 46.2876Z" fill="#000071"/>
<path d="M36.1495 43.9667V55.8866C36.1495 56.2458 36.4405 56.5371 36.8 56.5371C37.1595 56.5371 37.4505 56.2458 37.4505 55.8866V43.9667C39.1815 43.6578 40.501 42.1449 40.501 40.3268C40.501 38.5086 39.1814 36.9957 37.4505 36.6869V33.1271C37.4505 32.7678 37.1595 32.4766 36.8 32.4766C36.4405 32.4766 36.1495 32.7678 36.1495 33.1271V36.6869C34.4187 36.9958 33.0996 38.5087 33.0996 40.3268C33.0996 42.1449 34.4187 43.6578 36.1495 43.9667ZM36.8 37.9271C38.1232 37.9271 39.2 39.0036 39.2 40.3268C39.2 41.6501 38.1232 42.7266 36.8 42.7266C35.4767 42.7266 34.4006 41.6501 34.4006 40.3268C34.4006 39.0034 35.4767 37.9271 36.8 37.9271Z" fill="#000071"/>
<path d="M46.0421 48.1467V55.8866C46.0421 56.2458 46.3331 56.5371 46.6926 56.5371C47.0521 56.5371 47.3431 56.2458 47.3431 55.8866V48.1467C49.0739 47.8378 50.3936 46.3249 50.3936 44.5068C50.3936 42.6886 49.0739 41.1757 47.3431 40.8669V33.1271C47.3431 32.7678 47.0521 32.4766 46.6926 32.4766C46.3331 32.4766 46.0421 32.7678 46.0421 33.1271V40.8669C44.3113 41.1758 42.9922 42.6887 42.9922 44.5068C42.9922 46.3249 44.3113 47.8378 46.0421 48.1467ZM46.6926 42.1071C48.0158 42.1071 49.0926 43.1836 49.0926 44.5068C49.0926 45.8301 48.0158 46.9066 46.6926 46.9066C45.3693 46.9066 44.2932 45.8301 44.2932 44.5068C44.2932 43.1836 45.3693 42.1071 46.6926 42.1071Z" fill="#000071"/>
</svg>
