<svg width="29" height="48" viewBox="0 0 29 48" fill="none" xmlns="http://www.w3.org/2000/svg">
<path fill-rule="evenodd" clip-rule="evenodd" d="M28 33.5V14.5C28 7.04416 21.9558 1 14.5 1C7.04416 1 1 7.04416 1 14.5V33.5C1 40.9558 7.04416 47 14.5 47C21.9558 47 28 40.9558 28 33.5ZM14.5 0C6.49187 0 0 6.49187 0 14.5V33.5C0 41.5081 6.49187 48 14.5 48C22.5081 48 29 41.5081 29 33.5V14.5C29 6.49187 22.5081 0 14.5 0Z" fill="#F0F0FF"/>
<path fill-rule="evenodd" clip-rule="evenodd" d="M14 18L14 9L15 9L15 18L14 18Z" fill="#0100FF"/>
</svg>
