<svg width="64" height="64" viewBox="0 0 64 64" fill="none" xmlns="http://www.w3.org/2000/svg">
<g clip-path="url(#clip0_1429_9785)">
<path d="M31.9577 8.49803C30.6036 8.49803 29.5059 7.40016 29.5059 6.04616V3.11203C29.5059 1.75791 30.6037 0.660156 31.9577 0.660156C33.3117 0.660156 34.4096 1.75803 34.4096 3.11203V6.04616C34.4096 7.40016 33.3117 8.49803 31.9577 8.49803Z" fill="#F0F0FF"/>
<path d="M31.9577 63.1838C30.6036 63.1838 29.5059 62.086 29.5059 60.732V57.7976C29.5059 56.4435 30.6037 55.3457 31.9577 55.3457C33.3117 55.3457 34.4096 56.4436 34.4096 57.7976V60.732C34.4096 62.0861 33.3117 63.1838 31.9577 63.1838Z" fill="#F0F0FF"/>
<path d="M60.7692 34.3745H57.8347C56.4806 34.3745 55.3828 33.2766 55.3828 31.9226C55.3828 30.5685 56.4807 29.4707 57.8347 29.4707H60.7691C62.1232 29.4707 63.2209 30.5686 63.2209 31.9226C63.2211 33.2766 62.1232 34.3745 60.7692 34.3745Z" fill="#D8D8F3"/>
<path d="M6.08156 34.3745H3.14719C1.79306 34.3745 0.695312 33.2766 0.695312 31.9226C0.695312 30.5685 1.79319 29.4707 3.14719 29.4707H6.08156C7.43569 29.4707 8.53344 30.5686 8.53344 31.9226C8.53356 33.2766 7.43569 34.3745 6.08156 34.3745Z" fill="#D8D8F3"/>
<path d="M31.9577 8.49803C30.6036 8.49803 29.5059 7.40016 29.5059 6.04616V3.11203C29.5059 1.75791 30.6037 0.660156 31.9577 0.660156C33.3117 0.660156 34.4096 1.75803 34.4096 3.11203V6.04616C34.4096 7.40016 33.3117 8.49803 31.9577 8.49803Z" fill="#D8D8F3"/>
<path d="M31.9577 63.1838C30.6036 63.1838 29.5059 62.086 29.5059 60.732V57.7976C29.5059 56.4435 30.6037 55.3457 31.9577 55.3457C33.3117 55.3457 34.4096 56.4436 34.4096 57.7976V60.732C34.4096 62.0861 33.3117 63.1838 31.9577 63.1838Z" fill="#D8D8F3"/>
<path d="M50.2547 16.0768C49.6274 16.0768 49 15.8376 48.5211 15.3588C47.5634 14.4013 47.5634 12.8488 48.5205 11.8913L50.5952 9.81614C51.553 8.85839 53.1052 8.85802 54.063 9.81589C55.0207 10.7734 55.0208 12.3259 54.0636 13.2834L51.9889 15.3585C51.51 15.8374 50.8821 16.0768 50.2547 16.0768Z" fill="#D8D8F3"/>
<path d="M11.5867 54.7459C10.9593 54.7459 10.3315 54.5064 9.85308 54.0279C8.89533 53.0702 8.89533 51.5179 9.85308 50.5602L11.9278 48.4854C12.8845 47.5283 14.4385 47.5283 15.395 48.4854C16.3527 49.4432 16.3527 50.9954 15.395 51.9532L13.3202 54.0279C12.842 54.5064 12.214 54.7459 11.5867 54.7459Z" fill="#D8D8F3"/>
<path d="M13.6614 16.0766C13.034 16.0766 12.4062 15.8371 11.9273 15.3582L9.85253 13.2831C8.89541 12.3256 8.89541 10.7731 9.85316 9.81561C10.8109 8.85848 12.3632 8.85811 13.3209 9.81586L15.3957 11.891C16.3528 12.8485 16.3528 14.401 15.395 15.3585C14.916 15.8372 14.2888 16.0766 13.6614 16.0766Z" fill="#D8D8F3"/>
<path d="M52.3294 54.7459C51.702 54.7459 51.0742 54.5064 50.5958 54.0279L48.521 51.9532C47.5633 50.9954 47.5633 49.4432 48.521 48.4854C49.4777 47.5283 51.0317 47.5283 51.9882 48.4854L54.0629 50.5602C55.0207 51.5179 55.0207 53.0702 54.0629 54.0279C53.5848 54.5064 52.9568 54.7459 52.3294 54.7459Z" fill="#D8D8F3"/>
<path d="M52.4857 31.9226C52.4857 43.2635 43.2946 52.4548 31.9618 52.4548C20.6208 52.4548 11.4297 43.2635 11.4297 31.9226C11.4297 20.5817 20.6208 11.3906 31.9618 11.3906C43.2946 11.3906 52.4857 20.5817 52.4857 31.9226Z" fill="#F0F0FF"/>
<path d="M60.8098 28.9355H57.8754C56.1855 28.9355 54.8105 30.3105 54.8105 32.0004C54.8105 33.6903 56.1855 35.0653 57.8754 35.0653H60.8098C62.4997 35.0653 63.8747 33.6903 63.8747 32.0004C63.8747 30.3105 62.4997 28.9355 60.8098 28.9355ZM60.8098 33.8394H57.8754C56.8614 33.8394 56.0364 33.0145 56.0364 32.0004C56.0364 30.9864 56.8613 30.1614 57.8754 30.1614H60.8098C61.8238 30.1614 62.6488 30.9863 62.6488 32.0004C62.6487 33.0144 61.8238 33.8394 60.8098 33.8394Z" fill="#000071"/>
<path d="M6.12425 35.0653C7.81413 35.0653 9.18913 33.6903 9.18913 32.0004C9.18913 30.3105 7.81413 28.9355 6.12425 28.9355H3.18987C1.5 28.9355 0.125 30.3105 0.125 32.0004C0.125 33.6903 1.5 35.0653 3.18987 35.0653H6.12425ZM1.351 32.0004C1.351 30.9864 2.17588 30.1614 3.19 30.1614H6.12437C7.13837 30.1614 7.96338 30.9863 7.96338 32.0004C7.96338 33.0144 7.1385 33.8394 6.12437 33.8394H3.18987C2.17587 33.8394 1.351 33.0144 1.351 32.0004Z" fill="#000071"/>
<path d="M35.0653 6.124V3.18987C35.0653 1.5 33.6903 0.125 32.0004 0.125C30.3105 0.125 28.9355 1.5 28.9355 3.18987V6.124C28.9355 7.81388 30.3105 9.18888 32.0004 9.18888C33.6903 9.18888 35.0653 7.81388 35.0653 6.124ZM30.1614 6.124V3.18987C30.1614 2.17587 30.9863 1.35088 32.0004 1.35088C33.0144 1.35088 33.8394 2.17575 33.8394 3.18987V6.124C33.8394 7.138 33.0145 7.963 32.0004 7.963C30.9864 7.963 30.1614 7.138 30.1614 6.124Z" fill="#000071"/>
<path d="M32.0004 63.8747C33.6903 63.8747 35.0653 62.4997 35.0653 60.8098V57.8754C35.0653 56.1855 33.6903 54.8105 32.0004 54.8105C30.3105 54.8105 28.9355 56.1855 28.9355 57.8754V60.8098C28.9355 62.4997 30.3105 63.8747 32.0004 63.8747ZM30.1614 57.8754C30.1614 56.8614 30.9863 56.0364 32.0004 56.0364C33.0144 56.0364 33.8394 56.8613 33.8394 57.8754V60.8098C33.8394 61.8238 33.0145 62.6488 32.0004 62.6488C30.9864 62.6488 30.1614 61.8239 30.1614 60.8098V57.8754Z" fill="#000071"/>
<path d="M48.1285 11.536C46.9336 12.7312 46.9336 14.6754 48.1291 15.8703C49.3265 17.0677 51.2659 17.0685 52.4637 15.87L54.5385 13.7949C55.7334 12.5998 55.7334 10.6555 54.5379 9.46067C53.343 8.2658 51.3981 8.26555 50.2033 9.46092L48.1285 11.536ZM53.6711 10.3274C54.3882 11.0445 54.3882 12.2109 53.6717 12.928L51.597 15.0032C50.902 15.6979 49.691 15.6982 48.996 15.0034C48.2789 14.2863 48.2789 13.1199 48.9954 12.4028L51.0701 10.3277C51.7871 9.6108 52.9536 9.61055 53.6711 10.3274Z" fill="#000071"/>
<path d="M9.46061 54.5382C10.657 55.7358 12.598 55.736 13.7946 54.5382L15.8694 52.4634C17.0642 51.2683 17.0642 49.324 15.8694 48.1288C14.673 46.9312 12.732 46.9309 11.5354 48.1288L9.46061 50.2035C8.26573 51.3988 8.26573 53.343 9.46061 54.5382ZM10.3274 51.0704L12.4021 48.9957C13.1206 48.2772 14.284 48.2772 15.0025 48.9957C15.7196 49.7128 15.7196 50.8795 15.0025 51.5967L12.9277 53.6714C12.2334 54.3658 11.0217 54.3658 10.3274 53.6714C9.61023 52.9543 9.61023 51.7875 10.3274 51.0704Z" fill="#000071"/>
<path d="M11.5352 15.8698C12.7324 17.0677 14.6707 17.0679 15.8698 15.8701C17.0652 14.6752 17.0652 12.7309 15.8704 11.5358L13.7957 9.46069C12.6014 8.26619 10.6566 8.26531 9.46106 9.46044C8.26569 10.6553 8.26569 12.5996 9.46044 13.7947L11.5352 15.8698ZM10.3278 10.3276C11.0442 9.61119 12.2117 9.61044 12.9288 10.3276L15.0036 12.4027C15.7201 13.1198 15.7201 14.2862 15.0029 15.0031C14.3086 15.6983 13.0976 15.6978 12.4019 15.0031L10.3272 12.9279C9.61069 12.2108 9.61069 11.0444 10.3278 10.3276Z" fill="#000071"/>
<path d="M52.4645 48.1288C51.2682 46.9312 49.3272 46.9309 48.1305 48.1288C46.9357 49.3239 46.9357 51.2682 48.1305 52.4634L50.2053 54.5382C51.4017 55.7358 53.3427 55.736 54.5393 54.5382C55.7342 53.343 55.7342 51.3988 54.5393 50.2035L52.4645 48.1288ZM53.6725 53.6714C52.9782 54.3658 51.7665 54.3658 51.0722 53.6714L48.9974 51.5967C48.2803 50.8795 48.2803 49.7128 48.9974 48.9957C49.7159 48.2772 50.8793 48.2772 51.5978 48.9957L53.6725 51.0704C54.3897 51.7875 54.3897 52.9543 53.6725 53.6714Z" fill="#000071"/>
<path d="M10.8594 32.0003C10.8594 43.6598 20.345 53.1455 32.0042 53.1455C43.6592 53.1455 53.1413 43.6598 53.1413 32.0003C53.1413 20.3411 43.6592 10.8555 32.0042 10.8555C20.345 10.8555 10.8594 20.3411 10.8594 32.0003ZM32.0042 12.0815C42.9834 12.0815 51.9154 21.017 51.9154 32.0003C51.9154 42.9837 42.9835 51.9195 32.0042 51.9195C21.0209 51.9195 12.0854 42.9837 12.0854 32.0003C12.0854 21.017 21.0209 12.0815 32.0042 12.0815Z" fill="#000071"/>
</g>
<defs>
<clipPath id="clip0_1429_9785">
<rect width="64" height="64" fill="white"/>
</clipPath>
</defs>
</svg>
