<svg width="788" height="389" viewBox="0 0 788 389" fill="none" xmlns="http://www.w3.org/2000/svg">
<g opacity="0.4" filter="url(#filter0_f_901_858)">
<g filter="url(#filter1_f_901_858)">
<path d="M312.042 238.762C236.534 133.175 200.863 -48.4607 151.563 -100.957C119.134 -155.062 89.2715 -144.328 47.5931 -182.412C-18.8409 -242.524 -80.4806 -323.842 22.2144 -379.719C173.162 -431.658 307.884 -421.847 365.177 -350.84C422.579 -292.531 452.194 -195.873 433.132 -107.594C422.409 -5.13107 384.023 237.013 312.042 238.762Z" fill="#2346FA"/>
</g>
<g filter="url(#filter2_f_901_858)">
<path d="M380.147 -17.14C311.449 -85.6112 272.561 -149.175 229.504 -181.892C199.043 -217.684 177.611 -206.49 141.899 -229.558C85.0408 -265.896 29.4935 -318.236 101.122 -370.559C209.707 -425.451 312.758 -433.49 363.889 -388.178C413.714 -352.136 431.347 -291.086 426.568 -224.57C429.65 -148.652 434.442 -26.5321 380.147 -17.14Z" fill="#00D1FF"/>
</g>
<g opacity="0.7" filter="url(#filter3_f_901_858)">
<path d="M-84.4519 -413.68C81.9551 -364.289 186.746 -299.046 286.687 -283.419C362.793 -253.354 400.805 -286.88 481.96 -280.034C611.006 -269.72 744.267 -234.329 623.592 -99.862C430.226 67.2654 227.899 159.654 106.457 131.385C-8.41697 116.034 -69.6967 38.0056 -88.5582 -65.7038C-127.133 -177.42 -188.851 -357.253 -84.4519 -413.68Z" fill="#B11CBC"/>
</g>
</g>
<defs>
<filter id="filter0_f_901_858" x="-242.134" y="-517.559" width="1013.04" height="856.321" filterUnits="userSpaceOnUse" color-interpolation-filters="sRGB">
<feFlood flood-opacity="0" result="BackgroundImageFix"/>
<feBlend mode="normal" in="SourceGraphic" in2="BackgroundImageFix" result="shape"/>
<feGaussianBlur stdDeviation="50" result="effect1_foregroundBlur_901_858"/>
</filter>
<filter id="filter1_f_901_858" x="-182.428" y="-562.525" width="771.326" height="951.287" filterUnits="userSpaceOnUse" color-interpolation-filters="sRGB">
<feFlood flood-opacity="0" result="BackgroundImageFix"/>
<feBlend mode="normal" in="SourceGraphic" in2="BackgroundImageFix" result="shape"/>
<feGaussianBlur stdDeviation="75" result="effect1_foregroundBlur_901_858"/>
</filter>
<filter id="filter2_f_901_858" x="-32.7822" y="-517.559" width="561.034" height="600.419" filterUnits="userSpaceOnUse" color-interpolation-filters="sRGB">
<feFlood flood-opacity="0" result="BackgroundImageFix"/>
<feBlend mode="normal" in="SourceGraphic" in2="BackgroundImageFix" result="shape"/>
<feGaussianBlur stdDeviation="50" result="effect1_foregroundBlur_901_858"/>
</filter>
<filter id="filter3_f_901_858" x="-194.134" y="-465.68" width="917.041" height="654.109" filterUnits="userSpaceOnUse" color-interpolation-filters="sRGB">
<feFlood flood-opacity="0" result="BackgroundImageFix"/>
<feBlend mode="normal" in="SourceGraphic" in2="BackgroundImageFix" result="shape"/>
<feGaussianBlur stdDeviation="26" result="effect1_foregroundBlur_901_858"/>
</filter>
</defs>
</svg>
