<svg width="456" height="363" viewBox="0 0 456 363" fill="none" xmlns="http://www.w3.org/2000/svg">
<line x1="36.5" y1="4" x2="36.5" y2="287" stroke="#4C4CA8"/>
<line x1="36" y1="286.5" x2="456" y2="286.5" stroke="#4C4CA8"/>
<path d="M19.9626 284.81C19.2626 283.914 18.9126 282.724 18.9126 281.24C18.9126 279.756 19.2626 278.566 19.9626 277.67C20.6626 276.774 21.6986 276.326 23.0706 276.326C24.4426 276.326 25.4786 276.774 26.1786 277.67C26.8786 278.566 27.2286 279.756 27.2286 281.24C27.2286 282.724 26.8786 283.914 26.1786 284.81C25.4786 285.706 24.4426 286.154 23.0706 286.154C21.6986 286.154 20.6626 285.706 19.9626 284.81ZM25.5486 284.278C26.1086 283.55 26.3886 282.537 26.3886 281.24C26.3886 279.943 26.1086 278.93 25.5486 278.202C24.9979 277.474 24.1719 277.11 23.0706 277.11C21.9692 277.11 21.1386 277.474 20.5786 278.202C20.0279 278.93 19.7526 279.943 19.7526 281.24C19.7526 282.537 20.0279 283.55 20.5786 284.278C21.1386 285.006 21.9692 285.37 23.0706 285.37C24.1719 285.37 24.9979 285.006 25.5486 284.278Z" fill="white"/>
<path d="M3.09914 141.222C3.98581 140.625 4.97514 140.326 6.06714 140.326C7.01914 140.326 7.78447 140.545 8.36314 140.984C8.94181 141.413 9.23114 142.011 9.23114 142.776C9.23114 143.159 9.15647 143.518 9.00714 143.854C8.86714 144.181 8.64781 144.484 8.34914 144.764C8.05047 145.035 7.77514 145.263 7.52314 145.45C7.27114 145.627 6.93047 145.842 6.50114 146.094C5.57714 146.645 4.97981 147.027 4.70914 147.242C4.02781 147.811 3.68247 148.469 3.67314 149.216L9.31514 149.202V150H2.76314V149.58C2.76314 149.048 2.84247 148.572 3.00114 148.152C3.16914 147.732 3.41647 147.368 3.74314 147.06C4.07914 146.743 4.39181 146.481 4.68114 146.276C4.97981 146.071 5.35314 145.842 5.80114 145.59C5.82914 145.581 5.84781 145.571 5.85714 145.562C5.87581 145.553 5.89447 145.543 5.91314 145.534C5.94114 145.515 5.96447 145.501 5.98314 145.492C6.33781 145.287 6.58514 145.137 6.72514 145.044C6.87447 144.951 7.08447 144.806 7.35514 144.61C7.62581 144.405 7.81714 144.227 7.92914 144.078C8.04114 143.929 8.14381 143.737 8.23714 143.504C8.33981 143.271 8.39114 143.023 8.39114 142.762C8.39114 142.239 8.17647 141.833 7.74714 141.544C7.32714 141.245 6.74847 141.096 6.01114 141.096C5.00314 141.096 4.03247 141.413 3.09914 142.048V141.222ZM11.4342 140.48H17.0202V141.278H12.2182L12.0082 144.554C12.6242 144.367 13.2635 144.274 13.9262 144.274C14.5702 144.274 15.1488 144.367 15.6622 144.554C16.1755 144.731 16.6048 145.049 16.9502 145.506C17.3048 145.963 17.4822 146.533 17.4822 147.214C17.4822 148.11 17.1508 148.824 16.4882 149.356C15.8348 149.888 14.9808 150.154 13.9262 150.154C12.7502 150.154 11.7328 149.939 10.8742 149.51V148.726C11.7328 149.165 12.7175 149.384 13.8282 149.384C14.6868 149.384 15.3682 149.193 15.8722 148.81C16.3855 148.427 16.6422 147.895 16.6422 147.214C16.6422 146.449 16.3622 145.893 15.8022 145.548C15.2515 145.203 14.5375 145.03 13.6602 145.03C12.8388 145.03 11.9942 145.179 11.1262 145.478L11.4342 140.48ZM19.9626 148.81C19.2626 147.914 18.9126 146.724 18.9126 145.24C18.9126 143.756 19.2626 142.566 19.9626 141.67C20.6626 140.774 21.6986 140.326 23.0706 140.326C24.4426 140.326 25.4786 140.774 26.1786 141.67C26.8786 142.566 27.2286 143.756 27.2286 145.24C27.2286 146.724 26.8786 147.914 26.1786 148.81C25.4786 149.706 24.4426 150.154 23.0706 150.154C21.6986 150.154 20.6626 149.706 19.9626 148.81ZM25.5486 148.278C26.1086 147.55 26.3886 146.537 26.3886 145.24C26.3886 143.943 26.1086 142.93 25.5486 142.202C24.9979 141.474 24.1719 141.11 23.0706 141.11C21.9692 141.11 21.1386 141.474 20.5786 142.202C20.0279 142.93 19.7526 143.943 19.7526 145.24C19.7526 146.537 20.0279 147.55 20.5786 148.278C21.1386 149.006 21.9692 149.37 23.0706 149.37C24.1719 149.37 24.9979 149.006 25.5486 148.278Z" fill="white"/>
<path d="M8.94305 74.874C8.94305 75.378 8.79838 75.8307 8.50905 76.232C8.22905 76.624 7.84171 76.8853 7.34705 77.016C7.90705 77.156 8.37838 77.4267 8.76105 77.828C9.14371 78.2293 9.33505 78.7707 9.33505 79.452C9.33505 80.3107 9.01771 80.978 8.38305 81.454C7.75771 81.9207 6.95505 82.154 5.97505 82.154C4.65905 82.154 3.55305 81.9487 2.65705 81.538V80.712C3.56238 81.16 4.64505 81.3793 5.90505 81.37C6.70771 81.37 7.34705 81.2067 7.82305 80.88C8.29905 80.5533 8.53705 80.0633 8.53705 79.41C8.53705 78.738 8.29905 78.248 7.82305 77.94C7.35638 77.632 6.73571 77.478 5.96105 77.478H4.54705V76.68L5.87705 76.694C6.61438 76.694 7.17438 76.5307 7.55705 76.204C7.94905 75.868 8.14505 75.448 8.14505 74.944C8.14505 74.3933 7.92571 73.95 7.48705 73.614C7.05771 73.2687 6.46038 73.096 5.69505 73.096C4.68705 73.096 3.73038 73.3247 2.82505 73.782V72.97C3.70238 72.5407 4.69171 72.326 5.79305 72.326C6.74505 72.326 7.50571 72.5687 8.07505 73.054C8.65371 73.53 8.94305 74.1367 8.94305 74.874ZM11.4342 72.48H17.0202V73.278H12.2182L12.0082 76.554C12.6242 76.3673 13.2635 76.274 13.9262 76.274C14.5702 76.274 15.1488 76.3673 15.6622 76.554C16.1755 76.7313 16.6048 77.0487 16.9502 77.506C17.3048 77.9633 17.4822 78.5327 17.4822 79.214C17.4822 80.11 17.1508 80.824 16.4882 81.356C15.8348 81.888 14.9808 82.154 13.9262 82.154C12.7502 82.154 11.7328 81.9393 10.8742 81.51V80.726C11.7328 81.1647 12.7175 81.384 13.8282 81.384C14.6868 81.384 15.3682 81.1927 15.8722 80.81C16.3855 80.4273 16.6422 79.8953 16.6422 79.214C16.6422 78.4487 16.3622 77.8933 15.8022 77.548C15.2515 77.2027 14.5375 77.03 13.6602 77.03C12.8388 77.03 11.9942 77.1793 11.1262 77.478L11.4342 72.48ZM19.9626 80.81C19.2626 79.914 18.9126 78.724 18.9126 77.24C18.9126 75.756 19.2626 74.566 19.9626 73.67C20.6626 72.774 21.6986 72.326 23.0706 72.326C24.4426 72.326 25.4786 72.774 26.1786 73.67C26.8786 74.566 27.2286 75.756 27.2286 77.24C27.2286 78.724 26.8786 79.914 26.1786 80.81C25.4786 81.706 24.4426 82.154 23.0706 82.154C21.6986 82.154 20.6626 81.706 19.9626 80.81ZM25.5486 80.278C26.1086 79.55 26.3886 78.5373 26.3886 77.24C26.3886 75.9427 26.1086 74.93 25.5486 74.202C24.9979 73.474 24.1719 73.11 23.0706 73.11C21.9692 73.11 21.1386 73.474 20.5786 74.202C20.0279 74.93 19.7526 75.9427 19.7526 77.24C19.7526 78.5373 20.0279 79.55 20.5786 80.278C21.1386 81.006 21.9692 81.37 23.0706 81.37C24.1719 81.37 24.9979 81.006 25.5486 80.278Z" fill="white"/>
<path d="M7.29061 208.48H7.89261V217.202H9.75461V218H4.98061V217.202H7.06661V209.376L4.98061 210.16V209.362L7.29061 208.48ZM11.4342 208.48H17.0202V209.278H12.2182L12.0082 212.554C12.6242 212.367 13.2635 212.274 13.9262 212.274C14.5702 212.274 15.1488 212.367 15.6622 212.554C16.1755 212.731 16.6048 213.049 16.9502 213.506C17.3048 213.963 17.4822 214.533 17.4822 215.214C17.4822 216.11 17.1508 216.824 16.4882 217.356C15.8348 217.888 14.9808 218.154 13.9262 218.154C12.7502 218.154 11.7328 217.939 10.8742 217.51V216.726C11.7328 217.165 12.7175 217.384 13.8282 217.384C14.6868 217.384 15.3682 217.193 15.8722 216.81C16.3855 216.427 16.6422 215.895 16.6422 215.214C16.6422 214.449 16.3622 213.893 15.8022 213.548C15.2515 213.203 14.5375 213.03 13.6602 213.03C12.8388 213.03 11.9942 213.179 11.1262 213.478L11.4342 208.48ZM19.9626 216.81C19.2626 215.914 18.9126 214.724 18.9126 213.24C18.9126 211.756 19.2626 210.566 19.9626 209.67C20.6626 208.774 21.6986 208.326 23.0706 208.326C24.4426 208.326 25.4786 208.774 26.1786 209.67C26.8786 210.566 27.2286 211.756 27.2286 213.24C27.2286 214.724 26.8786 215.914 26.1786 216.81C25.4786 217.706 24.4426 218.154 23.0706 218.154C21.6986 218.154 20.6626 217.706 19.9626 216.81ZM25.5486 216.278C26.1086 215.55 26.3886 214.537 26.3886 213.24C26.3886 211.943 26.1086 210.93 25.5486 210.202C24.9979 209.474 24.1719 209.11 23.0706 209.11C21.9692 209.11 21.1386 209.474 20.5786 210.202C20.0279 210.93 19.7526 211.943 19.7526 213.24C19.7526 214.537 20.0279 215.55 20.5786 216.278C21.1386 217.006 21.9692 217.37 23.0706 217.37C24.1719 217.37 24.9979 217.006 25.5486 216.278Z" fill="white"/>
<path d="M1.57675 4.48H7.16275V5.278H2.36075L2.15075 8.554C2.76675 8.36733 3.40608 8.274 4.06875 8.274C4.71275 8.274 5.29142 8.36733 5.80475 8.554C6.31808 8.73133 6.74742 9.04867 7.09275 9.506C7.44742 9.96333 7.62475 10.5327 7.62475 11.214C7.62475 12.11 7.29342 12.824 6.63075 13.356C5.97742 13.888 5.12342 14.154 4.06875 14.154C2.89275 14.154 1.87542 13.9393 1.01675 13.51V12.726C1.87542 13.1647 2.86008 13.384 3.97075 13.384C4.82942 13.384 5.51075 13.1927 6.01475 12.81C6.52808 12.4273 6.78475 11.8953 6.78475 11.214C6.78475 10.4487 6.50475 9.89333 5.94475 9.548C5.39408 9.20267 4.68008 9.03 3.80275 9.03C2.98142 9.03 2.13675 9.17933 1.26875 9.478L1.57675 4.48ZM10.1052 12.81C9.40516 11.914 9.05516 10.724 9.05516 9.24C9.05516 7.756 9.40516 6.566 10.1052 5.67C10.8052 4.774 11.8412 4.326 13.2132 4.326C14.5852 4.326 15.6212 4.774 16.3212 5.67C17.0212 6.566 17.3712 7.756 17.3712 9.24C17.3712 10.724 17.0212 11.914 16.3212 12.81C15.6212 13.706 14.5852 14.154 13.2132 14.154C11.8412 14.154 10.8052 13.706 10.1052 12.81ZM15.6912 12.278C16.2512 11.55 16.5312 10.5373 16.5312 9.24C16.5312 7.94267 16.2512 6.93 15.6912 6.202C15.1405 5.474 14.3145 5.11 13.2132 5.11C12.1118 5.11 11.2812 5.474 10.7212 6.202C10.1705 6.93 9.89516 7.94267 9.89516 9.24C9.89516 10.5373 10.1705 11.55 10.7212 12.278C11.2812 13.006 12.1118 13.37 13.2132 13.37C14.3145 13.37 15.1405 13.006 15.6912 12.278ZM19.9626 12.81C19.2626 11.914 18.9126 10.724 18.9126 9.24C18.9126 7.756 19.2626 6.566 19.9626 5.67C20.6626 4.774 21.6986 4.326 23.0706 4.326C24.4426 4.326 25.4786 4.774 26.1786 5.67C26.8786 6.566 27.2286 7.756 27.2286 9.24C27.2286 10.724 26.8786 11.914 26.1786 12.81C25.4786 13.706 24.4426 14.154 23.0706 14.154C21.6986 14.154 20.6626 13.706 19.9626 12.81ZM25.5486 12.278C26.1086 11.55 26.3886 10.5373 26.3886 9.24C26.3886 7.94267 26.1086 6.93 25.5486 6.202C24.9979 5.474 24.1719 5.11 23.0706 5.11C21.9692 5.11 21.1386 5.474 20.5786 6.202C20.0279 6.93 19.7526 7.94267 19.7526 9.24C19.7526 10.5373 20.0279 11.55 20.5786 12.278C21.1386 13.006 21.9692 13.37 23.0706 13.37C24.1719 13.37 24.9979 13.006 25.5486 12.278Z" fill="white"/>
<path d="M45.386 311.31H44.266V307.88H45.456C46.52 305.957 47.052 303.064 47.052 299.2H53.072V307.88H54.304V311.31H53.184V309H45.386V311.31ZM48.256 300.32C48.0507 303.811 47.556 306.331 46.772 307.88H51.896V300.32H48.256ZM55.1013 305.64C55.1013 304.539 55.4373 303.675 56.1093 303.05C56.7907 302.425 57.57 302.112 58.4473 302.112C59.2687 302.112 59.9453 302.317 60.4773 302.728C61.0187 303.139 61.3733 303.647 61.5413 304.254C61.7093 304.851 61.7187 305.477 61.5693 306.13H56.2213C56.2867 306.793 56.5807 307.292 57.1033 307.628C57.626 307.964 58.256 308.132 58.9933 308.132C59.8147 308.132 60.552 307.95 61.2053 307.586V308.678C60.58 309.005 59.7867 309.168 58.8253 309.168C57.7613 309.168 56.8747 308.865 56.1653 308.258C55.456 307.651 55.1013 306.779 55.1013 305.64ZM60.5753 305.15C60.6033 304.954 60.5893 304.749 60.5333 304.534C60.4773 304.319 60.3747 304.105 60.2253 303.89C60.0853 303.675 59.866 303.498 59.5673 303.358C59.2687 303.218 58.9187 303.148 58.5173 303.148C57.9107 303.148 57.3833 303.325 56.9353 303.68C56.4967 304.035 56.2587 304.525 56.2213 305.15H60.5753ZM64.3259 309H63.2059V302.28H64.3259V305.08H65.6839L67.8119 302.28H69.1139L66.5659 305.626L69.4219 309H68.1059L65.6419 306.116H64.3259V309ZM75.9394 307.6C75.9394 307.945 76.112 308.118 76.4574 308.118C76.6067 308.118 76.7794 308.085 76.9754 308.02V308.93C76.6954 309.033 76.4154 309.084 76.1354 309.084C75.4914 309.084 75.0807 308.813 74.9034 308.272C74.1847 308.869 73.312 309.168 72.2854 309.168C71.632 309.168 71.072 308.995 70.6054 308.65C70.148 308.295 69.9194 307.787 69.9194 307.124C69.9194 306.331 70.2134 305.757 70.8014 305.402C71.3987 305.038 72.1174 304.856 72.9574 304.856C73.5734 304.856 74.194 304.926 74.8194 305.066V304.828C74.8194 304.315 74.6514 303.909 74.3154 303.61C73.9794 303.302 73.508 303.148 72.9014 303.148C72.052 303.148 71.2354 303.316 70.4514 303.652V302.56C71.3287 302.261 72.1827 302.112 73.0134 302.112C73.928 302.112 74.642 302.359 75.1554 302.854C75.678 303.339 75.9394 304.044 75.9394 304.968V307.6ZM71.0674 307.068C71.0674 307.441 71.2074 307.726 71.4874 307.922C71.7767 308.109 72.122 308.202 72.5234 308.202C73.4474 308.202 74.2127 307.875 74.8194 307.222V305.99C74.1847 305.859 73.6154 305.794 73.1114 305.794C72.542 305.794 72.0567 305.897 71.6554 306.102C71.2634 306.298 71.0674 306.62 71.0674 307.068ZM84.7426 305.836C84.7426 306.872 84.4253 307.689 83.7906 308.286C83.1653 308.874 82.3393 309.168 81.3126 309.168C80.2673 309.168 79.4226 308.823 78.7786 308.132C78.144 307.441 77.8266 306.475 77.8266 305.234C77.8266 304.151 78.0133 303.218 78.3866 302.434C78.76 301.65 79.264 301.062 79.8986 300.67C80.328 300.409 80.7713 300.203 81.2286 300.054C81.6953 299.895 82.078 299.797 82.3766 299.76C82.6846 299.723 83.002 299.648 83.3286 299.536C83.6553 299.415 83.926 299.247 84.1406 299.032V300.208C83.8793 300.395 83.5573 300.535 83.1746 300.628C82.792 300.712 82.3673 300.815 81.9006 300.936C81.434 301.057 80.986 301.244 80.5566 301.496C80.1366 301.748 79.81 302.065 79.5766 302.448C79.3433 302.831 79.138 303.288 78.9606 303.82C79.2033 303.447 79.5486 303.143 79.9966 302.91C80.4446 302.677 80.9253 302.56 81.4386 302.56C82.344 302.56 83.1186 302.863 83.7626 303.47C84.416 304.077 84.7426 304.865 84.7426 305.836ZM78.9466 305.864C78.9466 306.508 79.1613 307.045 79.5906 307.474C80.02 307.894 80.5846 308.104 81.2846 308.104C82.0033 308.104 82.5726 307.894 82.9926 307.474C83.4126 307.054 83.6226 306.517 83.6226 305.864C83.6226 305.211 83.4126 304.674 82.9926 304.254C82.5726 303.834 82.0033 303.624 81.2846 303.624C80.6126 303.624 80.0526 303.853 79.6046 304.31C79.166 304.758 78.9466 305.276 78.9466 305.864ZM87.3741 303.4C88.1301 302.541 89.0354 302.112 90.0901 302.112C91.0514 302.112 91.8494 302.448 92.4841 303.12C93.1281 303.792 93.4501 304.632 93.4501 305.64C93.4501 306.648 93.1281 307.488 92.4841 308.16C91.8494 308.832 91.0514 309.168 90.0901 309.168C89.0261 309.168 88.1581 308.776 87.4861 307.992V312.08H86.3661V302.28H87.3741V303.4ZM91.6441 307.446C92.1014 306.989 92.3301 306.387 92.3301 305.64C92.3301 304.893 92.1014 304.291 91.6441 303.834C91.1961 303.377 90.6361 303.148 89.9641 303.148C89.3947 303.148 88.8907 303.307 88.4521 303.624C88.0134 303.941 87.6914 304.333 87.4861 304.8V306.48C87.6914 306.947 88.0134 307.339 88.4521 307.656C88.8907 307.973 89.3947 308.132 89.9641 308.132C90.6361 308.132 91.1961 307.903 91.6441 307.446ZM98.2534 309H95.0614V302.28H96.1814V304.632H98.2534C99.0561 304.632 99.6907 304.837 100.157 305.248C100.624 305.659 100.857 306.181 100.857 306.816C100.857 307.451 100.624 307.973 100.157 308.384C99.6907 308.795 99.0561 309 98.2534 309ZM96.1814 305.64V307.992H98.1134C98.6174 307.992 99.0094 307.894 99.2894 307.698C99.5787 307.502 99.7234 307.208 99.7234 306.816C99.7234 306.424 99.5787 306.13 99.2894 305.934C99.0094 305.738 98.6174 305.64 98.1134 305.64H96.1814ZM105.696 300.236C106.583 299.62 107.6 299.312 108.748 299.312C109.737 299.312 110.526 299.536 111.114 299.984C111.702 300.432 111.996 301.057 111.996 301.86C111.996 302.243 111.921 302.602 111.772 302.938C111.632 303.274 111.417 303.582 111.128 303.862C110.848 304.142 110.573 304.38 110.302 304.576C110.041 304.763 109.709 304.973 109.308 305.206C109.261 305.234 109.117 305.318 108.874 305.458C108.641 305.598 108.491 305.687 108.426 305.724C108.37 305.761 108.239 305.845 108.034 305.976C107.838 306.097 107.707 306.186 107.642 306.242C107.586 306.298 107.483 306.387 107.334 306.508C107.194 306.629 107.096 306.732 107.04 306.816C106.993 306.9 106.928 307.007 106.844 307.138C106.769 307.259 106.718 307.381 106.69 307.502C106.662 307.623 106.648 307.754 106.648 307.894L112.066 307.88V309H105.36V308.44C105.36 307.917 105.444 307.446 105.612 307.026C105.78 306.597 106.018 306.233 106.326 305.934C106.643 305.626 106.956 305.369 107.264 305.164C107.572 304.949 107.931 304.721 108.342 304.478C108.435 304.431 108.505 304.394 108.552 304.366C109.401 303.871 109.957 303.493 110.218 303.232C110.619 302.821 110.82 302.359 110.82 301.846C110.82 301.379 110.629 301.025 110.246 300.782C109.873 300.53 109.341 300.404 108.65 300.404C107.642 300.404 106.657 300.74 105.696 301.412V300.236ZM114.561 307.81C113.852 306.905 113.497 305.715 113.497 304.24C113.497 302.765 113.852 301.575 114.561 300.67C115.271 299.765 116.316 299.312 117.697 299.312C119.088 299.312 120.138 299.765 120.847 300.67C121.557 301.566 121.911 302.756 121.911 304.24C121.911 305.724 121.557 306.919 120.847 307.824C120.138 308.72 119.088 309.168 117.697 309.168C116.316 309.168 115.271 308.715 114.561 307.81ZM119.965 307.068C120.469 306.405 120.721 305.463 120.721 304.24C120.721 303.017 120.469 302.079 119.965 301.426C119.471 300.763 118.715 300.432 117.697 300.432C116.68 300.432 115.924 300.763 115.429 301.426C114.935 302.079 114.687 303.017 114.687 304.24C114.687 305.463 114.935 306.405 115.429 307.068C115.924 307.721 116.68 308.048 117.697 308.048C118.715 308.048 119.471 307.721 119.965 307.068ZM123.579 300.236C124.466 299.62 125.483 299.312 126.631 299.312C127.62 299.312 128.409 299.536 128.997 299.984C129.585 300.432 129.879 301.057 129.879 301.86C129.879 302.243 129.804 302.602 129.655 302.938C129.515 303.274 129.3 303.582 129.011 303.862C128.731 304.142 128.456 304.38 128.185 304.576C127.924 304.763 127.592 304.973 127.191 305.206C127.144 305.234 127 305.318 126.757 305.458C126.524 305.598 126.374 305.687 126.309 305.724C126.253 305.761 126.122 305.845 125.917 305.976C125.721 306.097 125.59 306.186 125.525 306.242C125.469 306.298 125.366 306.387 125.217 306.508C125.077 306.629 124.979 306.732 124.923 306.816C124.876 306.9 124.811 307.007 124.727 307.138C124.652 307.259 124.601 307.381 124.573 307.502C124.545 307.623 124.531 307.754 124.531 307.894L129.949 307.88V309H123.243V308.44C123.243 307.917 123.327 307.446 123.495 307.026C123.663 306.597 123.901 306.233 124.209 305.934C124.526 305.626 124.839 305.369 125.147 305.164C125.455 304.949 125.814 304.721 126.225 304.478C126.318 304.431 126.388 304.394 126.435 304.366C127.284 303.871 127.84 303.493 128.101 303.232C128.502 302.821 128.703 302.359 128.703 301.846C128.703 301.379 128.512 301.025 128.129 300.782C127.756 300.53 127.224 300.404 126.533 300.404C125.525 300.404 124.54 300.74 123.579 301.412V300.236ZM133.718 299.48H134.586V307.88H136.364V309H131.408V307.88H133.41V300.726L131.408 301.482V300.362L133.718 299.48Z" fill="white"/>
<path d="M207.372 309H206.098L210.368 299.2H211.67L215.926 309H214.666L213.658 306.634H208.38L207.372 309ZM210.858 300.782L208.842 305.542H213.196L211.166 300.782C211.147 300.735 211.096 300.609 211.012 300.404C210.928 300.619 210.877 300.745 210.858 300.782ZM218.191 309H217.071V302.28H223.203V309H222.083V303.316H218.191V309ZM226.282 303.4C227.038 302.541 227.944 302.112 228.998 302.112C229.96 302.112 230.758 302.448 231.392 303.12C232.036 303.792 232.358 304.632 232.358 305.64C232.358 306.648 232.036 307.488 231.392 308.16C230.758 308.832 229.96 309.168 228.998 309.168C227.934 309.168 227.066 308.776 226.394 307.992V312.08H225.274V302.28H226.282V303.4ZM230.552 307.446C231.01 306.989 231.238 306.387 231.238 305.64C231.238 304.893 231.01 304.291 230.552 303.834C230.104 303.377 229.544 303.148 228.872 303.148C228.303 303.148 227.799 303.307 227.36 303.624C226.922 303.941 226.6 304.333 226.394 304.8V306.48C226.6 306.947 226.922 307.339 227.36 307.656C227.799 307.973 228.303 308.132 228.872 308.132C229.544 308.132 230.104 307.903 230.552 307.446ZM233.508 305.64C233.508 304.539 233.844 303.675 234.516 303.05C235.197 302.425 235.976 302.112 236.854 302.112C237.675 302.112 238.352 302.317 238.884 302.728C239.425 303.139 239.78 303.647 239.948 304.254C240.116 304.851 240.125 305.477 239.976 306.13H234.628C234.693 306.793 234.987 307.292 235.51 307.628C236.032 307.964 236.662 308.132 237.4 308.132C238.221 308.132 238.958 307.95 239.612 307.586V308.678C238.986 309.005 238.193 309.168 237.232 309.168C236.168 309.168 235.281 308.865 234.572 308.258C233.862 307.651 233.508 306.779 233.508 305.64ZM238.982 305.15C239.01 304.954 238.996 304.749 238.94 304.534C238.884 304.319 238.781 304.105 238.632 303.89C238.492 303.675 238.272 303.498 237.974 303.358C237.675 303.218 237.325 303.148 236.924 303.148C236.317 303.148 235.79 303.325 235.342 303.68C234.903 304.035 234.665 304.525 234.628 305.15H238.982ZM243.992 303.316C243.946 304.053 243.89 304.697 243.824 305.248C243.759 305.799 243.666 306.331 243.544 306.844C243.423 307.348 243.274 307.759 243.096 308.076C242.928 308.393 242.714 308.645 242.452 308.832C242.191 309.019 241.892 309.112 241.556 309.112C241.286 309.112 241.015 309.061 240.744 308.958V308.076C240.894 308.132 241.043 308.16 241.192 308.16C241.752 308.16 242.158 307.67 242.41 306.69C242.672 305.701 242.835 304.231 242.9 302.28H247.842V309H246.722V303.316H243.992ZM253.103 309H249.911V302.28H251.031V304.632H253.103C253.906 304.632 254.54 304.837 255.007 305.248C255.474 305.659 255.707 306.181 255.707 306.816C255.707 307.451 255.474 307.973 255.007 308.384C254.54 308.795 253.906 309 253.103 309ZM251.031 305.64V307.992H252.963C253.467 307.992 253.859 307.894 254.139 307.698C254.428 307.502 254.573 307.208 254.573 306.816C254.573 306.424 254.428 306.13 254.139 305.934C253.859 305.738 253.467 305.64 252.963 305.64H251.031ZM260.546 300.236C261.432 299.62 262.45 299.312 263.598 299.312C264.587 299.312 265.376 299.536 265.964 299.984C266.552 300.432 266.846 301.057 266.846 301.86C266.846 302.243 266.771 302.602 266.622 302.938C266.482 303.274 266.267 303.582 265.978 303.862C265.698 304.142 265.422 304.38 265.152 304.576C264.89 304.763 264.559 304.973 264.158 305.206C264.111 305.234 263.966 305.318 263.724 305.458C263.49 305.598 263.341 305.687 263.276 305.724C263.22 305.761 263.089 305.845 262.884 305.976C262.688 306.097 262.557 306.186 262.492 306.242C262.436 306.298 262.333 306.387 262.184 306.508C262.044 306.629 261.946 306.732 261.89 306.816C261.843 306.9 261.778 307.007 261.694 307.138C261.619 307.259 261.568 307.381 261.54 307.502C261.512 307.623 261.498 307.754 261.498 307.894L266.916 307.88V309H260.21V308.44C260.21 307.917 260.294 307.446 260.462 307.026C260.63 306.597 260.868 306.233 261.176 305.934C261.493 305.626 261.806 305.369 262.114 305.164C262.422 304.949 262.781 304.721 263.192 304.478C263.285 304.431 263.355 304.394 263.402 304.366C264.251 303.871 264.806 303.493 265.068 303.232C265.469 302.821 265.67 302.359 265.67 301.846C265.67 301.379 265.478 301.025 265.096 300.782C264.722 300.53 264.19 300.404 263.5 300.404C262.492 300.404 261.507 300.74 260.546 301.412V300.236ZM269.411 307.81C268.701 306.905 268.347 305.715 268.347 304.24C268.347 302.765 268.701 301.575 269.411 300.67C270.12 299.765 271.165 299.312 272.547 299.312C273.937 299.312 274.987 299.765 275.697 300.67C276.406 301.566 276.761 302.756 276.761 304.24C276.761 305.724 276.406 306.919 275.697 307.824C274.987 308.72 273.937 309.168 272.547 309.168C271.165 309.168 270.12 308.715 269.411 307.81ZM274.815 307.068C275.319 306.405 275.571 305.463 275.571 304.24C275.571 303.017 275.319 302.079 274.815 301.426C274.32 300.763 273.564 300.432 272.547 300.432C271.529 300.432 270.773 300.763 270.279 301.426C269.784 302.079 269.537 303.017 269.537 304.24C269.537 305.463 269.784 306.405 270.279 307.068C270.773 307.721 271.529 308.048 272.547 308.048C273.564 308.048 274.32 307.721 274.815 307.068ZM278.429 300.236C279.315 299.62 280.333 299.312 281.481 299.312C282.47 299.312 283.259 299.536 283.847 299.984C284.435 300.432 284.729 301.057 284.729 301.86C284.729 302.243 284.654 302.602 284.505 302.938C284.365 303.274 284.15 303.582 283.861 303.862C283.581 304.142 283.305 304.38 283.035 304.576C282.773 304.763 282.442 304.973 282.041 305.206C281.994 305.234 281.849 305.318 281.607 305.458C281.373 305.598 281.224 305.687 281.159 305.724C281.103 305.761 280.972 305.845 280.767 305.976C280.571 306.097 280.44 306.186 280.375 306.242C280.319 306.298 280.216 306.387 280.067 306.508C279.927 306.629 279.829 306.732 279.773 306.816C279.726 306.9 279.661 307.007 279.577 307.138C279.502 307.259 279.451 307.381 279.423 307.502C279.395 307.623 279.381 307.754 279.381 307.894L284.799 307.88V309H278.093V308.44C278.093 307.917 278.177 307.446 278.345 307.026C278.513 306.597 278.751 306.233 279.059 305.934C279.376 305.626 279.689 305.369 279.997 305.164C280.305 304.949 280.664 304.721 281.075 304.478C281.168 304.431 281.238 304.394 281.285 304.366C282.134 303.871 282.689 303.493 282.951 303.232C283.352 302.821 283.553 302.359 283.553 301.846C283.553 301.379 283.361 301.025 282.979 300.782C282.605 300.53 282.073 300.404 281.383 300.404C280.375 300.404 279.39 300.74 278.429 301.412V300.236ZM286.468 300.236C287.354 299.62 288.372 299.312 289.52 299.312C290.509 299.312 291.298 299.536 291.886 299.984C292.474 300.432 292.768 301.057 292.768 301.86C292.768 302.243 292.693 302.602 292.544 302.938C292.404 303.274 292.189 303.582 291.9 303.862C291.62 304.142 291.344 304.38 291.074 304.576C290.812 304.763 290.481 304.973 290.08 305.206C290.033 305.234 289.888 305.318 289.646 305.458C289.412 305.598 289.263 305.687 289.198 305.724C289.142 305.761 289.011 305.845 288.806 305.976C288.61 306.097 288.479 306.186 288.414 306.242C288.358 306.298 288.255 306.387 288.106 306.508C287.966 306.629 287.868 306.732 287.812 306.816C287.765 306.9 287.7 307.007 287.616 307.138C287.541 307.259 287.49 307.381 287.462 307.502C287.434 307.623 287.42 307.754 287.42 307.894L292.838 307.88V309H286.132V308.44C286.132 307.917 286.216 307.446 286.384 307.026C286.552 306.597 286.79 306.233 287.098 305.934C287.415 305.626 287.728 305.369 288.036 305.164C288.344 304.949 288.703 304.721 289.114 304.478C289.207 304.431 289.277 304.394 289.324 304.366C290.173 303.871 290.728 303.493 290.99 303.232C291.391 302.821 291.592 302.359 291.592 301.846C291.592 301.379 291.4 301.025 291.018 300.782C290.644 300.53 290.112 300.404 289.422 300.404C288.414 300.404 287.429 300.74 286.468 301.412V300.236Z" fill="white"/>
<path d="M372.45 309H371.274V302V301.16L365.38 309H364.288V299.2H365.464V306.186V307.026L371.358 299.2H372.45V309ZM383.616 303.064C384.326 303.689 384.68 304.548 384.68 305.64C384.68 306.732 384.326 307.595 383.616 308.23C382.916 308.855 382.076 309.168 381.096 309.168C380.21 309.168 379.421 308.902 378.73 308.37C378.049 307.829 377.652 307.091 377.54 306.158H375.888V309H374.768V302.28H375.888V305.122H377.54C377.652 304.189 378.049 303.456 378.73 302.924C379.421 302.383 380.21 302.112 381.096 302.112C382.076 302.112 382.916 302.429 383.616 303.064ZM379.332 303.848C378.866 304.287 378.632 304.884 378.632 305.64C378.632 306.396 378.866 306.998 379.332 307.446C379.799 307.885 380.387 308.104 381.096 308.104C381.806 308.104 382.394 307.885 382.86 307.446C383.327 306.998 383.56 306.396 383.56 305.64C383.56 304.884 383.327 304.287 382.86 303.848C382.394 303.4 381.806 303.176 381.096 303.176C380.387 303.176 379.799 303.4 379.332 303.848ZM387.414 309H386.294V302.28H387.414V305.122H391.306V302.28H392.426V309H391.306V306.158H387.414V309ZM397.689 309H394.497V302.28H395.617V304.632H397.689C398.492 304.632 399.126 304.837 399.593 305.248C400.06 305.659 400.293 306.181 400.293 306.816C400.293 307.451 400.06 307.973 399.593 308.384C399.126 308.795 398.492 309 397.689 309ZM395.617 305.64V307.992H397.549C398.053 307.992 398.445 307.894 398.725 307.698C399.014 307.502 399.159 307.208 399.159 306.816C399.159 306.424 399.014 306.13 398.725 305.934C398.445 305.738 398.053 305.64 397.549 305.64H395.617ZM405.132 300.236C406.018 299.62 407.036 299.312 408.184 299.312C409.173 299.312 409.962 299.536 410.55 299.984C411.138 300.432 411.432 301.057 411.432 301.86C411.432 302.243 411.357 302.602 411.208 302.938C411.068 303.274 410.853 303.582 410.564 303.862C410.284 304.142 410.008 304.38 409.738 304.576C409.476 304.763 409.145 304.973 408.744 305.206C408.697 305.234 408.552 305.318 408.31 305.458C408.076 305.598 407.927 305.687 407.862 305.724C407.806 305.761 407.675 305.845 407.47 305.976C407.274 306.097 407.143 306.186 407.078 306.242C407.022 306.298 406.919 306.387 406.77 306.508C406.63 306.629 406.532 306.732 406.476 306.816C406.429 306.9 406.364 307.007 406.28 307.138C406.205 307.259 406.154 307.381 406.126 307.502C406.098 307.623 406.084 307.754 406.084 307.894L411.502 307.88V309H404.796V308.44C404.796 307.917 404.88 307.446 405.048 307.026C405.216 306.597 405.454 306.233 405.762 305.934C406.079 305.626 406.392 305.369 406.7 305.164C407.008 304.949 407.367 304.721 407.778 304.478C407.871 304.431 407.941 304.394 407.988 304.366C408.837 303.871 409.392 303.493 409.654 303.232C410.055 302.821 410.256 302.359 410.256 301.846C410.256 301.379 410.064 301.025 409.682 300.782C409.308 300.53 408.776 300.404 408.086 300.404C407.078 300.404 406.093 300.74 405.132 301.412V300.236ZM413.997 307.81C413.287 306.905 412.933 305.715 412.933 304.24C412.933 302.765 413.287 301.575 413.997 300.67C414.706 299.765 415.751 299.312 417.133 299.312C418.523 299.312 419.573 299.765 420.283 300.67C420.992 301.566 421.347 302.756 421.347 304.24C421.347 305.724 420.992 306.919 420.283 307.824C419.573 308.72 418.523 309.168 417.133 309.168C415.751 309.168 414.706 308.715 413.997 307.81ZM419.401 307.068C419.905 306.405 420.157 305.463 420.157 304.24C420.157 303.017 419.905 302.079 419.401 301.426C418.906 300.763 418.15 300.432 417.133 300.432C416.115 300.432 415.359 300.763 414.865 301.426C414.37 302.079 414.123 303.017 414.123 304.24C414.123 305.463 414.37 306.405 414.865 307.068C415.359 307.721 416.115 308.048 417.133 308.048C418.15 308.048 418.906 307.721 419.401 307.068ZM423.015 300.236C423.901 299.62 424.919 299.312 426.067 299.312C427.056 299.312 427.845 299.536 428.433 299.984C429.021 300.432 429.315 301.057 429.315 301.86C429.315 302.243 429.24 302.602 429.091 302.938C428.951 303.274 428.736 303.582 428.447 303.862C428.167 304.142 427.891 304.38 427.621 304.576C427.359 304.763 427.028 304.973 426.627 305.206C426.58 305.234 426.435 305.318 426.193 305.458C425.959 305.598 425.81 305.687 425.745 305.724C425.689 305.761 425.558 305.845 425.353 305.976C425.157 306.097 425.026 306.186 424.961 306.242C424.905 306.298 424.802 306.387 424.653 306.508C424.513 306.629 424.415 306.732 424.359 306.816C424.312 306.9 424.247 307.007 424.163 307.138C424.088 307.259 424.037 307.381 424.009 307.502C423.981 307.623 423.967 307.754 423.967 307.894L429.385 307.88V309H422.679V308.44C422.679 307.917 422.763 307.446 422.931 307.026C423.099 306.597 423.337 306.233 423.645 305.934C423.962 305.626 424.275 305.369 424.583 305.164C424.891 304.949 425.25 304.721 425.66 304.478C425.754 304.431 425.824 304.394 425.871 304.366C426.72 303.871 427.275 303.493 427.537 303.232C427.938 302.821 428.139 302.359 428.139 301.846C428.139 301.379 427.947 301.025 427.565 300.782C427.191 300.53 426.659 300.404 425.969 300.404C424.961 300.404 423.976 300.74 423.015 301.412V300.236ZM437.242 301.902C437.242 302.387 437.111 302.826 436.85 303.218C436.598 303.601 436.266 303.862 435.856 304.002C436.341 304.151 436.756 304.427 437.102 304.828C437.456 305.22 437.634 305.747 437.634 306.41C437.634 307.297 437.302 307.978 436.64 308.454C435.986 308.93 435.156 309.168 434.148 309.168C432.869 309.168 431.763 308.958 430.83 308.538V307.376C431.735 307.843 432.808 308.071 434.05 308.062C435.683 308.062 436.5 307.493 436.5 306.354C436.5 305.215 435.725 304.646 434.176 304.646H432.72V303.526L434.05 303.54C434.722 303.54 435.23 303.4 435.576 303.12C435.93 302.831 436.108 302.457 436.108 302C436.108 301.505 435.912 301.118 435.52 300.838C435.128 300.549 434.572 300.404 433.854 300.404C432.864 300.404 431.912 300.647 430.998 301.132V299.984C431.875 299.536 432.878 299.312 434.008 299.312C434.978 299.312 435.758 299.55 436.346 300.026C436.943 300.502 437.242 301.127 437.242 301.902Z" fill="white"/>
<rect x="55" y="230" width="36" height="57" fill="#1890FF"/>
<rect x="94" y="211" width="36" height="76" fill="white"/>
<rect x="211" y="114" width="36" height="173" fill="#1890FF"/>
<rect x="253" y="99" width="36" height="188" fill="white"/>
<rect x="362" y="60" width="36" height="227" fill="#1890FF"/>
<rect x="404" y="32" width="36" height="255" fill="white"/>
<path d="M161 345L167.928 357H154.072L161 345Z" fill="#1890FF"/>
<path d="M178.82 357H177.392L180.29 353.262C179.543 353.085 178.941 352.749 178.484 352.254C178.036 351.759 177.812 351.111 177.812 350.308C177.812 349.617 177.994 349.034 178.358 348.558C178.722 348.073 179.179 347.727 179.73 347.522C180.29 347.307 180.915 347.2 181.606 347.2H185.302V357H184.126V353.416H181.606H181.592L178.82 357ZM179.73 348.824C179.263 349.151 179.03 349.645 179.03 350.308C179.03 350.971 179.263 351.47 179.73 351.806C180.206 352.133 180.817 352.296 181.564 352.296H184.126V348.32H181.564C180.817 348.32 180.206 348.488 179.73 348.824ZM188.74 357H187.62V350.28H188.74V353.122H192.632V350.28H193.752V357H192.632V354.158H188.74V357ZM196.243 358.82H195.151V355.992H196.047C196.84 354.592 197.223 352.688 197.195 350.28H202.207V355.992H203.187V358.82H202.095V357H196.243V358.82ZM198.273 351.288C198.226 353.127 197.89 354.695 197.265 355.992H201.087V351.288H198.273ZM204.084 353.64C204.084 352.539 204.42 351.675 205.092 351.05C205.773 350.425 206.552 350.112 207.43 350.112C208.251 350.112 208.928 350.317 209.46 350.728C210.001 351.139 210.356 351.647 210.524 352.254C210.692 352.851 210.701 353.477 210.552 354.13H205.204C205.269 354.793 205.563 355.292 206.086 355.628C206.608 355.964 207.238 356.132 207.976 356.132C208.797 356.132 209.534 355.95 210.188 355.586V356.678C209.562 357.005 208.769 357.168 207.808 357.168C206.744 357.168 205.857 356.865 205.148 356.258C204.438 355.651 204.084 354.779 204.084 353.64ZM209.558 353.15C209.586 352.954 209.572 352.749 209.516 352.534C209.46 352.319 209.357 352.105 209.208 351.89C209.068 351.675 208.848 351.498 208.55 351.358C208.251 351.218 207.901 351.148 207.5 351.148C206.893 351.148 206.366 351.325 205.918 351.68C205.479 352.035 205.241 352.525 205.204 353.15H209.558ZM213.308 357H212.188V350.28H213.308V353.08H214.666L216.794 350.28H218.096L215.548 353.626L218.404 357H217.088L214.624 354.116H213.308V357ZM218.713 353.668C218.713 353.08 218.82 352.553 219.035 352.086C219.249 351.619 219.529 351.246 219.875 350.966C220.229 350.686 220.617 350.476 221.037 350.336C221.466 350.187 221.905 350.112 222.353 350.112C223.183 350.112 223.874 350.294 224.425 350.658V351.75C223.911 351.349 223.267 351.148 222.493 351.148C221.765 351.148 221.139 351.358 220.617 351.778C220.094 352.198 219.833 352.819 219.833 353.64C219.833 354.452 220.089 355.073 220.603 355.502C221.125 355.922 221.746 356.132 222.465 356.132C223.211 356.132 223.888 355.95 224.495 355.586V356.706C223.86 357.014 223.132 357.168 222.311 357.168C221.34 357.168 220.495 356.865 219.777 356.258C219.067 355.651 218.713 354.788 218.713 353.668Z" fill="white"/>
<path d="M306.644 352.1C306.644 351.027 306.901 350.098 307.414 349.314C307.927 348.521 308.571 347.942 309.346 347.578C310.121 347.214 310.956 347.032 311.852 347.032C312.935 347.032 313.915 347.251 314.792 347.69V348.866C314.036 348.39 313.112 348.152 312.02 348.152C311.488 348.152 310.979 348.231 310.494 348.39C310.009 348.539 309.561 348.768 309.15 349.076C308.749 349.375 308.427 349.785 308.184 350.308C307.951 350.831 307.834 351.428 307.834 352.1C307.834 352.809 307.955 353.43 308.198 353.962C308.441 354.485 308.767 354.895 309.178 355.194C309.589 355.483 310.032 355.698 310.508 355.838C310.993 355.978 311.507 356.048 312.048 356.048C312.748 356.048 313.35 355.927 313.854 355.684V351.792H315.03V356.51C314.078 356.949 313.056 357.168 311.964 357.168C311.264 357.168 310.606 357.075 309.99 356.888C309.374 356.701 308.809 356.417 308.296 356.034C307.792 355.642 307.391 355.11 307.092 354.438C306.793 353.766 306.644 352.987 306.644 352.1ZM317.509 356.23C316.8 355.595 316.445 354.732 316.445 353.64C316.445 352.548 316.8 351.689 317.509 351.064C318.218 350.429 319.058 350.112 320.029 350.112C321.009 350.112 321.849 350.429 322.549 351.064C323.258 351.689 323.613 352.548 323.613 353.64C323.613 354.732 323.258 355.595 322.549 356.23C321.849 356.855 321.009 357.168 320.029 357.168C319.058 357.168 318.218 356.855 317.509 356.23ZM321.793 355.446C322.26 354.998 322.493 354.396 322.493 353.64C322.493 352.884 322.26 352.287 321.793 351.848C321.326 351.4 320.738 351.176 320.029 351.176C319.32 351.176 318.732 351.4 318.265 351.848C317.798 352.287 317.565 352.884 317.565 353.64C317.565 354.396 317.798 354.998 318.265 355.446C318.732 355.885 319.32 356.104 320.029 356.104C320.738 356.104 321.326 355.885 321.793 355.446ZM325.822 356.23C325.112 355.595 324.758 354.732 324.758 353.64C324.758 352.548 325.112 351.689 325.822 351.064C326.531 350.429 327.371 350.112 328.342 350.112C329.322 350.112 330.162 350.429 330.862 351.064C331.571 351.689 331.926 352.548 331.926 353.64C331.926 354.732 331.571 355.595 330.862 356.23C330.162 356.855 329.322 357.168 328.342 357.168C327.371 357.168 326.531 356.855 325.822 356.23ZM330.106 355.446C330.572 354.998 330.806 354.396 330.806 353.64C330.806 352.884 330.572 352.287 330.106 351.848C329.639 351.4 329.051 351.176 328.342 351.176C327.632 351.176 327.044 351.4 326.578 351.848C326.111 352.287 325.878 352.884 325.878 353.64C325.878 354.396 326.111 354.998 326.578 355.446C327.044 355.885 327.632 356.104 328.342 356.104C329.051 356.104 329.639 355.885 330.106 355.446ZM334.022 356.16C333.387 355.488 333.07 354.648 333.07 353.64C333.07 352.632 333.387 351.792 334.022 351.12C334.666 350.448 335.469 350.112 336.43 350.112C337.485 350.112 338.39 350.541 339.146 351.4V350.28H340.154V357C340.154 358.083 339.799 358.895 339.09 359.436C338.381 359.977 337.513 360.248 336.486 360.248C335.487 360.248 334.577 360.038 333.756 359.618V358.526C334.568 358.983 335.431 359.212 336.346 359.212C337.139 359.212 337.788 359.035 338.292 358.68C338.796 358.335 339.043 357.775 339.034 357V355.964C338.381 356.767 337.513 357.168 336.43 357.168C335.469 357.168 334.666 356.832 334.022 356.16ZM339.034 352.8C338.829 352.333 338.507 351.941 338.068 351.624C337.629 351.307 337.125 351.148 336.556 351.148C335.884 351.148 335.319 351.377 334.862 351.834C334.414 352.291 334.19 352.893 334.19 353.64C334.19 354.387 334.414 354.989 334.862 355.446C335.319 355.903 335.884 356.132 336.556 356.132C337.125 356.132 337.629 355.987 338.068 355.698C338.507 355.399 338.829 355.04 339.034 354.62V352.8ZM342.255 346.78H343.375V357H342.255V346.78ZM345.019 353.64C345.019 352.539 345.355 351.675 346.027 351.05C346.709 350.425 347.488 350.112 348.365 350.112C349.187 350.112 349.863 350.317 350.395 350.728C350.937 351.139 351.291 351.647 351.459 352.254C351.627 352.851 351.637 353.477 351.487 354.13H346.139C346.205 354.793 346.499 355.292 347.021 355.628C347.544 355.964 348.174 356.132 348.911 356.132C349.733 356.132 350.47 355.95 351.123 355.586V356.678C350.498 357.005 349.705 357.168 348.743 357.168C347.679 357.168 346.793 356.865 346.083 356.258C345.374 355.651 345.019 354.779 345.019 353.64ZM350.493 353.15C350.521 352.954 350.507 352.749 350.451 352.534C350.395 352.319 350.293 352.105 350.143 351.89C350.003 351.675 349.784 351.498 349.485 351.358C349.187 351.218 348.837 351.148 348.435 351.148C347.829 351.148 347.301 351.325 346.853 351.68C346.415 352.035 346.177 352.525 346.139 353.15H350.493Z" fill="white"/>
<path d="M290 345L296.928 357H283.072L290 345Z" fill="white"/>
</svg>
