<svg width="1240" height="1080" viewBox="0 0 1240 1080" fill="none" xmlns="http://www.w3.org/2000/svg">
<g opacity="0.6" filter="url(#filter0_f_437_3882)">
<path d="M522.877 163.413C615.482 339.856 648.767 487.546 714.674 578.476C751.546 667.182 805.55 659.478 863.353 727.055C955.684 833.898 1032.89 970.737 840.898 1025.23C568.686 1060.75 344.333 1009.55 271.05 889.113C193.381 787.394 203.15 658.305 264.583 533.189C316.626 384.861 400.693 146.373 522.877 163.413Z" fill="#B11CBC"/>
</g>
<g opacity="0.8" filter="url(#filter1_f_437_3882)">
<path d="M276.952 14.1996C425.501 143.138 532.271 389.849 624.693 450.847C690.924 518.574 735.095 495.545 811.48 538.233C933.072 605.443 1052.98 703.824 906.352 809.764C682.438 922.904 466.994 944.678 356.809 859.688C249.979 792.634 176.374 664.156 181.953 534.63C170.426 387.304 163.784 35.6904 276.952 14.1996Z" fill="#2346FA"/>
</g>
<g opacity="0.5" filter="url(#filter2_f_437_3882)">
<path d="M564.651 333.7C631.215 384.321 670.648 433.073 711.646 456.538C741.546 483.384 760.012 472.801 793.73 488.967C847.387 514.391 900.996 552.872 840.33 600.324C746.638 652.468 654.609 666.262 605.466 633.163C558.15 607.482 537.994 559.265 537.59 505.037C529.458 443.747 516.527 345.145 564.651 333.7Z" fill="#00D1FF"/>
</g>
<defs>
<filter id="filter0_f_437_3882" x="163.646" y="110.548" width="848.064" height="977.748" filterUnits="userSpaceOnUse" color-interpolation-filters="sRGB">
<feFlood flood-opacity="0" result="BackgroundImageFix"/>
<feBlend mode="normal" in="SourceGraphic" in2="BackgroundImageFix" result="shape"/>
<feGaussianBlur stdDeviation="26" result="effect1_foregroundBlur_437_3882"/>
</filter>
<filter id="filter1_f_437_3882" x="25.9409" y="-135.801" width="1098.02" height="1197.25" filterUnits="userSpaceOnUse" color-interpolation-filters="sRGB">
<feFlood flood-opacity="0" result="BackgroundImageFix"/>
<feBlend mode="normal" in="SourceGraphic" in2="BackgroundImageFix" result="shape"/>
<feGaussianBlur stdDeviation="75" result="effect1_foregroundBlur_437_3882"/>
</filter>
<filter id="filter2_f_437_3882" x="429.673" y="233.7" width="537.539" height="517.38" filterUnits="userSpaceOnUse" color-interpolation-filters="sRGB">
<feFlood flood-opacity="0" result="BackgroundImageFix"/>
<feBlend mode="normal" in="SourceGraphic" in2="BackgroundImageFix" result="shape"/>
<feGaussianBlur stdDeviation="50" result="effect1_foregroundBlur_437_3882"/>
</filter>
</defs>
</svg>
