<svg width="71" height="64" viewBox="0 0 71 64" fill="none" xmlns="http://www.w3.org/2000/svg">
<path d="M45.1046 63.9999C44.4517 63.9999 43.8051 63.7401 43.3169 63.2521L26.5559 46.5805C26.3086 46.3333 25.9726 46.1876 25.624 46.1749L2.32077 45.1547C1.30648 45.0723 0.469698 44.4197 0.133716 43.4565C-0.195927 42.4997 0.0703233 41.4414 0.80568 40.7507L43.6085 0.652532C44.3185 -0.00647795 45.3518 -0.183904 46.233 0.202631C47.1142 0.589166 47.691 1.46996 47.691 2.43946L47.6784 16.9313C47.6784 17.7107 47.0444 18.3444 46.271 18.3444C45.4913 18.3444 44.8637 17.7107 44.8637 16.9313V3.85887C44.8701 3.66243 44.6355 3.55471 44.496 3.69412L3.51256 42.0878C3.39845 42.1892 3.46818 42.3729 3.62032 42.3856L26.8348 43.3995C27.1898 43.4185 27.5194 43.5642 27.7667 43.8113L44.4453 60.4133C44.5848 60.5464 44.813 60.4513 44.813 60.2612V45.1927C44.8193 44.4133 45.4533 43.7797 46.233 43.7797C47.0127 43.7797 47.6403 44.4133 47.6403 45.1927L47.6276 61.4589C47.6276 62.4917 47.0127 63.4169 46.0682 63.8098C45.7576 63.9365 45.4343 64.0062 45.1046 64.0062V63.9999Z" fill="url(#paint0_linear_907_8977)"/>
<path d="M71.0002 34.37C71.0002 33.3941 70.2015 32.5957 69.2316 32.5957C68.2616 32.5957 67.4629 33.3941 67.4629 34.37C67.4629 35.3458 68.2553 36.1442 69.2316 36.1442C70.2078 36.1442 71.0002 35.3458 71.0002 34.37Z" fill="#0100FF"/>
<path d="M35.6974 26.6201C35.6974 26.3096 35.577 26.0435 35.3551 25.8281C35.1332 25.619 34.8606 25.5112 34.55 25.5112C34.176 25.5112 33.8971 25.6316 33.7132 25.8534C33.5737 26.0308 33.4533 26.2653 33.3646 26.5314C33.1871 26.9813 32.9335 27.3235 32.6038 27.558C32.2742 27.7861 31.8748 27.9001 31.3804 27.9001C30.9303 27.9001 30.5372 27.7988 30.2076 27.596C29.8843 27.3995 29.6244 27.0827 29.4405 26.6708C29.2504 26.2399 29.1553 25.676 29.1553 25.0106C29.1553 24.0158 29.3708 23.2491 29.7955 22.7231C30.2076 22.2162 30.7464 21.9691 31.4437 21.9691C31.8748 21.9691 32.2362 22.0641 32.5214 22.2542C32.813 22.4506 33.0856 22.7611 33.3075 23.1667C33.4723 23.4708 33.6308 23.6926 33.7766 23.8257C33.9604 23.9904 34.2204 24.0792 34.55 24.0792C34.8543 24.0792 35.1332 23.9588 35.3424 23.737C35.5516 23.5215 35.6657 23.2617 35.6657 22.9702C35.6657 22.5203 35.4819 22.0514 35.1269 21.5635C34.7782 21.0883 34.2711 20.6891 33.6245 20.3722C32.9779 20.0554 32.2362 19.897 31.4247 19.897C30.7528 19.897 30.1125 20.0174 29.5166 20.2455C28.9207 20.4736 28.3882 20.8158 27.9445 21.2593C27.4944 21.6966 27.1521 22.2352 26.9175 22.8625C26.6829 23.4772 26.5625 24.1742 26.5625 24.9473C26.5625 25.4225 26.6069 25.8724 26.702 26.297C26.7971 26.7215 26.9365 27.1271 27.1267 27.5073C27.3169 27.8875 27.5451 28.2296 27.8177 28.5401C28.122 28.8823 28.4579 29.1611 28.8193 29.3639C29.1806 29.5793 29.5863 29.7251 30.0237 29.8265C30.4548 29.9279 30.9429 29.9722 31.4691 29.9722C32.1728 29.9722 32.8004 29.8645 33.3392 29.6427C33.8717 29.4273 34.3218 29.1294 34.6768 28.7809C35.0191 28.4324 35.2727 28.0649 35.4438 27.691C35.6087 27.3108 35.6911 26.956 35.6911 26.6201H35.6974Z" fill="black"/>
<path d="M42.9034 27.8178H39.2456V21.3417C39.2456 20.8791 39.1251 20.518 38.8843 20.2708C38.637 20.0174 38.3201 19.8906 37.9334 19.8906C37.5467 19.8906 37.236 20.0174 36.9951 20.2708C36.7669 20.5243 36.6465 20.8791 36.6465 21.3354V28.5021C36.6465 28.9964 36.7733 29.3639 37.0205 29.6047C37.2677 29.8455 37.6544 29.9659 38.1679 29.9659H42.9034C43.3027 29.9659 43.6197 29.8645 43.8479 29.6807C44.0825 29.4843 44.2092 29.2055 44.2092 28.895C44.2092 28.5845 44.0888 28.312 43.8479 28.1092C43.6197 27.9065 43.3027 27.8051 42.9034 27.8051V27.8178Z" fill="black"/>
<path d="M46.2262 19.897C45.8205 19.897 45.4782 20.0237 45.2182 20.2772C44.971 20.5243 44.8379 20.8728 44.8379 21.3227V28.5465C44.8379 28.9964 44.9647 29.3512 45.2182 29.5984C45.4845 29.8518 45.8205 29.9786 46.2199 29.9786C46.6192 29.9786 46.9869 29.8518 47.2468 29.5984C47.5004 29.3512 47.6335 28.9964 47.6335 28.5465V21.3227C47.6335 20.8665 47.5004 20.5116 47.2468 20.2708C46.9806 20.0174 46.6319 19.897 46.2199 19.897H46.2262Z" fill="black"/>
<path d="M49.8904 28.5402C50.1947 28.876 50.5244 29.1611 50.892 29.3639C51.2534 29.573 51.6591 29.7251 52.1028 29.8265C52.5339 29.9279 53.0157 29.9722 53.5419 29.9722C54.2455 29.9722 54.8794 29.8582 55.4119 29.6427C55.9508 29.4273 56.3945 29.1295 56.7495 28.7809C57.0919 28.4261 57.3454 28.0649 57.5166 27.691C57.6814 27.3172 57.7638 26.956 57.7638 26.6265C57.7638 26.316 57.6497 26.0435 57.4215 25.8344C57.1933 25.619 56.9207 25.5176 56.6101 25.5176C56.1536 25.5176 55.9001 25.7077 55.7796 25.8598C55.6338 26.0372 55.5134 26.2653 55.431 26.5314C55.2535 26.9877 54.9999 27.3299 54.6702 27.558C54.3343 27.7924 53.9349 27.9002 53.4468 27.9002C52.9967 27.9002 52.61 27.7988 52.2803 27.596C51.9507 27.3996 51.7035 27.0954 51.5133 26.6772C51.3231 26.24 51.2217 25.6823 51.2217 25.017C51.2217 24.0221 51.4372 23.2554 51.8619 22.7295C52.274 22.2225 52.8128 21.9754 53.5102 21.9754C53.9412 21.9754 54.3026 22.0704 54.5878 22.2605C54.8858 22.457 55.152 22.7611 55.3739 23.173C55.5451 23.4772 55.6972 23.6926 55.843 23.832C56.0269 23.9968 56.2868 24.0855 56.6164 24.0855C56.9207 24.0855 57.1996 23.9651 57.4152 23.7433C57.6244 23.5279 57.7321 23.2681 57.7321 22.9766C57.7321 22.5267 57.5483 22.0578 57.1933 21.5699C56.8446 21.0946 56.3375 20.6954 55.6909 20.3786C55.0443 20.0617 54.3026 19.9033 53.4911 19.9033C52.8192 19.9033 52.1789 20.0237 51.583 20.2455C50.9871 20.48 50.4546 20.8221 50.0109 21.2657C49.5608 21.7029 49.2185 22.2415 48.9839 22.8689C48.7494 23.4772 48.6289 24.1805 48.6289 24.9536C48.6289 25.4289 48.6733 25.8788 48.7684 26.3033C48.8635 26.7279 49.0029 27.1334 49.1931 27.5073C49.3833 27.8811 49.6115 28.2233 49.8841 28.5402H49.8904Z" fill="black"/>
<path d="M67.4555 28.2233C67.3541 28.0079 67.2082 27.7734 67.0054 27.5009L64.457 23.9904L66.606 22.0261C66.961 21.7029 67.1385 21.3607 67.1385 21.0059C67.1385 20.6954 67.0181 20.4292 66.7835 20.2138C66.5553 19.9983 66.2574 19.897 65.896 19.897C65.6171 19.897 65.3825 19.9603 65.205 20.0807C65.0592 20.1821 64.8944 20.3279 64.6979 20.5243L61.4458 23.7877V21.3227C61.4458 20.8665 61.3254 20.5116 61.0845 20.2708C60.8499 20.0174 60.533 19.8906 60.1526 19.8906C59.7723 19.8906 59.449 20.0237 59.2207 20.2772C58.9925 20.518 58.8848 20.8665 58.8848 21.3164V28.1282C58.8848 28.4324 58.8848 28.6605 58.9038 28.8253C58.9165 29.0154 58.9672 29.1865 59.0559 29.3576C59.1637 29.5477 59.3222 29.6997 59.525 29.8138C59.7216 29.9215 59.9371 29.9722 60.159 29.9722C60.533 29.9722 60.8436 29.8518 61.0908 29.6047C61.3254 29.3576 61.4522 29.0027 61.4522 28.5401V26.7722L62.663 25.657L64.7296 28.7112C64.8247 28.8633 64.9261 29.0344 65.0466 29.2245C65.186 29.4399 65.3635 29.6237 65.5727 29.7568C65.7946 29.8962 66.0735 29.9722 66.4032 29.9722C66.7708 29.9722 67.0751 29.8708 67.297 29.6681C67.5252 29.4653 67.6393 29.2055 67.6393 28.914C67.6393 28.6922 67.5823 28.4578 67.4618 28.2233H67.4555Z" fill="black"/>
<path d="M34.0348 34.3002C33.8763 33.92 33.6481 33.5905 33.3438 33.3244C33.0396 33.0583 32.6782 32.8682 32.2662 32.7541C31.8605 32.64 31.3089 32.583 30.5799 32.583H28.2407C27.7526 32.583 27.3849 32.6971 27.144 32.9252C26.8968 33.1533 26.7637 33.5082 26.7637 33.9961V40.8523C26.7637 41.2832 26.8778 41.6254 27.0933 41.8662C27.3215 42.1133 27.6322 42.2464 27.9998 42.2464C28.3675 42.2464 28.6528 42.1133 28.8873 41.8662C29.1155 41.6254 29.2233 41.2832 29.2233 40.8523V38.6345H30.5736C31.7654 38.6345 32.6846 38.381 33.3058 37.8614C33.9397 37.3291 34.263 36.5624 34.263 35.5676C34.263 35.1113 34.1933 34.6868 34.0348 34.3129V34.3002ZM31.6132 36.2139C31.4991 36.3596 31.3406 36.4674 31.1124 36.5371C30.8589 36.6131 30.5292 36.6575 30.1298 36.6575H29.217V34.541H30.1298C31.0807 34.541 31.404 34.7311 31.5118 34.8389C31.6893 35.0289 31.778 35.2761 31.778 35.5929C31.778 35.8527 31.721 36.0618 31.6069 36.2139H31.6132Z" fill="black"/>
<path d="M43.4997 34.8832C43.1383 34.1482 42.5868 33.5842 41.8768 33.185C41.1731 32.7921 40.3237 32.5957 39.3538 32.5957C38.6374 32.5957 37.9845 32.7098 37.4203 32.9315C36.8434 33.1533 36.3553 33.4828 35.9559 33.9137C35.5565 34.3319 35.2459 34.8515 35.043 35.4472C34.8338 36.0365 34.7324 36.6892 34.7324 37.3925C34.7324 38.0959 34.8338 38.7232 35.0304 39.3125C35.2269 39.9145 35.5312 40.4341 35.9242 40.865C36.3172 41.3022 36.818 41.6444 37.4139 41.8789C37.9972 42.1133 38.6628 42.2337 39.3918 42.2337C40.1208 42.2337 40.7928 42.1197 41.3697 41.8915C41.9529 41.6571 42.4537 41.3212 42.853 40.8777C43.2461 40.4405 43.5504 39.9209 43.7469 39.3315C43.9371 38.7549 44.0385 38.1022 44.0385 37.3989C44.0385 36.442 43.861 35.5929 43.4997 34.8769V34.8832ZM41.2809 39.0147C41.0844 39.4329 40.8118 39.7434 40.4822 39.9335C40.1398 40.13 39.7848 40.2313 39.3791 40.2313C39.0685 40.2313 38.7832 40.1743 38.5233 40.0603C38.2697 39.9462 38.0352 39.7751 37.8323 39.547C37.6295 39.3125 37.471 39.0147 37.3569 38.6472C37.2364 38.2733 37.1794 37.8488 37.1794 37.3799C37.1794 36.911 37.2428 36.4991 37.3569 36.1315C37.4773 35.7767 37.6231 35.4852 37.826 35.2571C38.0098 35.0416 38.238 34.8706 38.498 34.7565C38.7579 34.6424 39.0495 34.5854 39.3601 34.5854C39.8102 34.5854 40.1905 34.6868 40.5265 34.8959C40.8625 35.105 41.1224 35.4155 41.3063 35.8274C41.4964 36.2646 41.5979 36.7842 41.5979 37.3799C41.5979 38.0325 41.4901 38.5775 41.2809 39.0084V39.0147Z" fill="black"/>
<path d="M46.2389 32.5894C45.8332 32.5894 45.4782 32.7161 45.2182 32.9569C44.971 33.1913 44.8379 33.5272 44.8379 33.9581V40.8587C44.8379 41.2896 44.9647 41.6317 45.2182 41.8662C45.4845 42.1133 45.8332 42.2401 46.2325 42.2401C46.6319 42.2401 46.9996 42.1133 47.2595 41.8725C47.5131 41.6381 47.6399 41.2959 47.6399 40.8587V33.9581C47.6399 33.5208 47.5067 33.185 47.2532 32.9505C46.9932 32.7098 46.6382 32.5894 46.2325 32.5894H46.2389Z" fill="black"/>
<path d="M55.7404 32.5893C55.3981 32.5893 55.1128 32.7097 54.9036 32.9505C54.7135 33.1723 54.612 33.4955 54.612 33.901V38.0895L51.734 33.787C51.6389 33.6349 51.5438 33.4891 51.4551 33.3497C51.3536 33.1913 51.2522 33.0646 51.1508 32.9632C51.0367 32.8491 50.9035 32.7541 50.7577 32.6907C50.5993 32.621 50.4154 32.583 50.2126 32.583C49.9463 32.583 49.6927 32.659 49.4645 32.8048C49.2363 32.9505 49.0715 33.147 48.9637 33.3878C48.8876 33.5905 48.8496 33.844 48.8496 34.1672V40.922C48.8496 41.3212 48.951 41.6381 49.1539 41.8662C49.3631 42.107 49.661 42.2337 50.0034 42.2337C50.3457 42.2337 50.6309 42.107 50.8465 41.8725C51.0493 41.6444 51.1571 41.3276 51.1571 40.9157V36.8159L53.9527 41.0488C54.0542 41.1882 54.1429 41.3276 54.2443 41.467C54.3584 41.6191 54.4726 41.7521 54.6057 41.8662C54.7451 41.9866 54.9036 42.0816 55.0748 42.145C55.2396 42.202 55.4234 42.2274 55.62 42.2274C56.0954 42.2274 56.9005 42.0436 56.9005 40.7826V33.8947C56.9005 33.4891 56.7991 33.166 56.6026 32.9442C56.3934 32.7097 56.0954 32.583 55.7468 32.583L55.7404 32.5893Z" fill="black"/>
<path d="M64.3506 32.5957H58.6073C58.2332 32.5957 57.9353 32.6908 57.7134 32.8682C57.4915 33.0583 57.3711 33.3244 57.3711 33.6349C57.3711 33.9454 57.4852 34.1989 57.6944 34.389C57.9036 34.5791 58.2079 34.6741 58.6009 34.6741H60.2555V40.7763C60.2555 41.2135 60.3696 41.5557 60.5851 41.7902C60.8133 42.0309 61.124 42.1577 61.479 42.1577C61.834 42.1577 62.1319 42.0309 62.3601 41.7902C62.5756 41.5557 62.6834 41.2135 62.6834 40.7763V34.6741H64.3443C64.731 34.6741 65.0353 34.5791 65.2508 34.3953C65.4664 34.1989 65.5868 33.9391 65.5868 33.6412C65.5868 33.3434 65.4727 33.0836 65.2572 32.8872C65.048 32.6908 64.7437 32.602 64.3443 32.602L64.3506 32.5957Z" fill="black"/>
<defs>
<linearGradient id="paint0_linear_907_8977" x1="0.000591162" y1="31.9999" x2="47.6847" y2="31.9999" gradientUnits="userSpaceOnUse">
<stop stop-color="#FF09FF"/>
<stop offset="1" stop-color="#0100FF"/>
</linearGradient>
</defs>
</svg>
