<svg width="46" height="44" viewBox="0 0 46 44" fill="none" xmlns="http://www.w3.org/2000/svg">
<path fill-rule="evenodd" clip-rule="evenodd" d="M30.5467 0.581639C37.7547 1.10103 42.9091 5.74246 44.9695 11.4086L44.983 11.4457L44.9905 11.4844C46.5138 19.3552 44.7468 24.3991 41.8717 27.6011C39.262 30.5073 35.7998 31.8276 33.2775 32.4218C30.7638 38.6693 24.6469 43.0796 17.5 43.0796C8.11116 43.0796 0.5 35.4685 0.5 26.0796C0.5 17.2602 7.21586 10.0094 15.8125 9.16231C16.3563 7.95579 17.053 6.86015 17.866 5.88453C21.0921 2.01303 26.1253 0.0658575 30.5467 0.581639ZM15.3867 10.2179C14.1547 13.6623 14.1264 17.9047 16.0348 22.7625C16.1358 23.0195 16.426 23.146 16.683 23.045C16.94 22.9441 17.0665 22.6539 16.9655 22.3968C15.0572 17.5392 15.1877 13.3941 16.4965 10.1106C16.8283 10.09 17.163 10.0796 17.5 10.0796C26.3366 10.0796 33.5 17.2431 33.5 26.0796C33.5 28.0054 33.1598 29.8518 32.5361 31.5619C32.4909 31.5713 32.4461 31.5804 32.4016 31.5893C32.1309 31.6434 31.9552 31.9068 32.0094 32.1776C32.0324 32.2928 32.0934 32.3908 32.1767 32.4612C29.7119 38.1219 24.0681 42.0796 17.5 42.0796C8.66344 42.0796 1.5 34.9162 1.5 26.0796C1.5 17.9595 7.549 11.2521 15.3867 10.2179ZM33.6878 31.2863C34.2152 29.6454 34.5 27.8958 34.5 26.0796C34.5 16.6908 26.8888 9.07961 17.5 9.07961C17.3177 9.07961 17.136 9.08248 16.9551 9.08818C17.4235 8.15224 17.9911 7.29637 18.6342 6.5247C21.6551 2.8995 26.3657 1.09666 30.4413 1.57613L30.4526 1.57747L30.4641 1.57828C37.2351 2.06196 42.0688 6.39905 44.0162 11.7134C45.4794 19.3197 43.7479 24.0148 41.1276 26.9329C38.9131 29.3991 36.012 30.6548 33.6878 31.2863ZM21.1574 22.9344L20.977 31.1908L14.1018 25.9573L21.1574 22.9344ZM16.0727 26.2008L20.0201 29.2057L20.1237 24.4652L16.0727 26.2008Z" fill="white"/>
</svg>
