<svg width="56" height="31" viewBox="0 0 56 31" fill="none" xmlns="http://www.w3.org/2000/svg">
<path fill-rule="evenodd" clip-rule="evenodd" d="M32.7311 1.77436C33.9007 2.29045 35.0957 2.94797 36.2309 3.77161C39.4781 6.12758 42.2411 9.84988 42.4993 15.4769L42.5005 15.505L42.4987 15.5331C42.0889 21.6801 39.431 25.5364 36.2422 27.8359C35.9821 28.0235 35.7186 28.2006 35.4527 28.3676C41.1752 26.4114 47.3145 22.3537 53.8224 15.4894C46.4594 7.23634 39.3039 3.16615 32.7311 1.77436ZM27.4897 30.8107C35.8011 30.6639 44.9829 26.3822 54.8645 15.8418L55.1753 15.5103L54.875 15.1694C45.061 4.02464 35.478 0.102111 26.9938 0.20408C14.9595 0.348716 5.33968 8.5835 0.593321 15.2086L0.368164 15.5229L0.615668 15.8199C7.58598 24.1843 16.4924 30.7937 26.9961 30.8145C27.1554 30.8166 27.3201 30.8154 27.4897 30.8107ZM27.4707 29.8108C29.7081 29.747 32.8896 29.0206 35.6573 27.0248C38.5971 24.9048 41.1027 21.3309 41.499 15.4946C41.2493 10.2372 38.6827 6.78596 35.6437 4.58101C32.5954 2.36938 29.0764 1.41876 26.9777 1.20436C15.5857 1.35371 6.35185 9.05427 1.6336 15.4776C7.51 22.4464 14.6428 27.988 22.8232 29.441C21.24 28.7236 19.5897 27.7469 18.1226 26.4773C15.2637 24.0034 13.0852 20.3987 13.5015 15.4578L13.5401 14.9998H25.4998C25.7759 14.9998 25.9998 15.2237 25.9998 15.4998C25.9998 15.776 25.7759 15.9998 25.4998 15.9998H14.4671C14.2497 20.3183 16.1931 23.4852 18.777 25.7211C21.4462 28.0309 24.7834 29.3283 27.0525 29.8146C27.1916 29.8145 27.331 29.8133 27.4707 29.8108Z" fill="white"/>
</svg>
