<svg width="38" height="48" viewBox="0 0 38 48" fill="none" xmlns="http://www.w3.org/2000/svg">
<path fill-rule="evenodd" clip-rule="evenodd" d="M0.5 0.5H37.5V38H19.5V47.5C19.5 47.7761 19.2761 48 19 48C18.7239 48 18.5 47.7761 18.5 47.5V38H0.5V24.5H10C10.2761 24.5 10.5 24.7239 10.5 25C10.5 25.2761 10.2761 25.5 10 25.5H1.5V37H18.5V10C18.5 9.72386 18.7239 9.5 19 9.5C19.2761 9.5 19.5 9.72386 19.5 10V37H36.5V1.5H1.5V12C1.5 12.2761 1.27614 12.5 1 12.5C0.723858 12.5 0.5 12.2761 0.5 12V0.5ZM27.6857 11.8989L31.8962 19.4441L24.2205 19.3951L27.6857 11.8989ZM27.7694 14.1011L25.7798 18.4051L30.1869 18.4332L27.7694 14.1011Z" fill="white"/>
</svg>
