<svg width="42" height="42" viewBox="0 0 42 42" fill="none" xmlns="http://www.w3.org/2000/svg">
<path d="M37.1875 4.8125H4.81253L4.81255 37.1875H37.1875V4.8125Z" stroke="white" stroke-linecap="round" stroke-linejoin="round"/>
<path d="M7 34C12.3471 29.1334 24.1153 23.5267 35 21" stroke="white" stroke-linecap="square" stroke-linejoin="round"/>
<path d="M17.0608 27.0223C16.2716 26.235 15.6881 25.2657 15.3619 24.1998C15.0357 23.1338 14.9767 22.004 15.1902 20.9099C15.4037 19.8157 15.8831 18.7909 16.5861 17.9258C17.2892 17.0607 18.1942 16.3818 19.2215 15.949C20.2488 15.5163 21.3669 15.3428 22.477 15.4441C23.5871 15.5454 24.6553 15.9182 25.5874 16.5297C26.5194 17.1412 27.2867 17.9727 27.8216 18.9507C28.3565 19.9287 28.6425 21.0234 28.6546 22.138" stroke="white" stroke-linecap="round" stroke-linejoin="round"/>
</svg>
