<svg width="18" height="18" viewBox="0 0 18 18" fill="none" xmlns="http://www.w3.org/2000/svg">
<path fill-rule="evenodd" clip-rule="evenodd" d="M0.469466 0.469874C0.762246 0.176868 1.23712 0.176685 1.53013 0.469466L9.08122 8.01475L16.4699 0.631776C16.7629 0.338996 17.2378 0.339178 17.5305 0.632184C17.8233 0.92519 17.8231 1.40006 17.5301 1.69284L10.1423 9.075L17.5301 16.4572C17.8231 16.7499 17.8233 17.2248 17.5305 17.5178C17.2378 17.8108 16.7629 17.811 16.4699 17.5182L9.08122 10.1353L1.53013 17.6805C1.23712 17.9733 0.762246 17.9731 0.469466 17.6801C0.176685 17.3871 0.176868 16.9122 0.469874 16.6195L8.02015 9.075L0.469874 1.53053C0.176868 1.23775 0.176685 0.76288 0.469466 0.469874Z" fill="#7A7A7A"/>
</svg>
