<svg width="19" height="19" viewBox="0 0 19 19" fill="none" xmlns="http://www.w3.org/2000/svg">
<path fill-rule="evenodd" clip-rule="evenodd" d="M10.3763 15.8714C11.7601 16.6171 13.0493 16.9278 14.1623 16.6953C16.0644 16.298 17.0379 15.3268 17.5991 14.482C17.6265 14.4408 17.6365 14.3923 17.6237 14.3339C17.6101 14.2715 17.57 14.2031 17.5018 14.1522L14.6532 12.0273C14.5198 11.9279 14.3336 11.9413 14.216 12.059L12.6849 13.5901C12.508 13.7669 12.2469 13.8296 12.0091 13.7523L12.2147 13.1199C12.0091 13.7523 12.0093 13.7524 12.0091 13.7523L12.008 13.7519L12.0068 13.7515L12.0039 13.7506L11.9964 13.7481L11.9746 13.7405C11.9571 13.7343 11.9335 13.7257 11.9043 13.7145C11.8458 13.6921 11.7644 13.6591 11.6623 13.6134C11.4581 13.5221 11.1711 13.3802 10.8184 13.1707C10.1126 12.7514 9.14575 12.0628 8.0537 10.9707C6.96165 9.87867 6.27305 8.91183 5.85377 8.20601C5.64426 7.85331 5.50232 7.56633 5.41101 7.36214C5.36537 7.26005 5.33239 7.17869 5.30995 7.12018C5.29874 7.09093 5.29016 7.06739 5.28395 7.04983L5.27638 7.02801L5.27387 7.02053L5.27292 7.01766L5.27252 7.01644C5.27244 7.01618 5.27217 7.01537 5.9046 6.80979L5.27217 7.01537C5.19486 6.77752 5.25753 6.51641 5.43437 6.33957L6.96547 4.80847C7.08312 4.69082 7.0966 4.50466 6.99712 4.37129L4.87225 1.52261C4.82136 1.45439 4.75295 1.41436 4.69053 1.40069C4.63209 1.3879 4.58359 1.39793 4.54243 1.42528C3.6976 1.98656 2.72645 2.95999 2.32913 4.86209C2.09663 5.97514 2.4073 7.26435 3.15303 8.64813C3.89452 10.0241 5.02811 11.4211 6.31572 12.7087C7.60332 13.9963 9.00036 15.1299 10.3763 15.8714ZM6.69204 6.96281L7.90592 5.74892C8.49065 5.16419 8.55763 4.23893 8.06321 3.57608L5.93833 0.727401C5.46902 0.0982236 4.54918 -0.175974 3.80644 0.317487C2.72086 1.03871 1.50751 2.2909 1.02723 4.59015C0.704354 6.13584 1.16274 7.75844 1.98221 9.27908C2.80592 10.8076 4.03367 12.3076 5.37527 13.6492C6.71686 14.9908 8.21687 16.2185 9.74535 17.0422C11.266 17.8617 12.8886 18.3201 14.4343 17.9972C16.7335 17.5169 17.9857 16.3036 18.7069 15.218C19.2004 14.4753 18.9262 13.5554 18.297 13.0861L15.4484 10.9612C14.7855 10.4668 13.8603 10.5338 13.2755 11.1185L12.0616 12.3324C11.9135 12.2608 11.7233 12.1613 11.4977 12.0272C10.884 11.6626 10.0055 11.0416 8.99415 10.0303C7.98285 9.01897 7.36179 8.14046 6.99724 7.52676C6.86319 7.3011 6.76365 7.11094 6.69204 6.96281Z" fill="white"/>
</svg>
