<?xml version="1.0" encoding="utf-8"?>
<!-- Generator: Adobe Illustrator 27.7.0, SVG Export Plug-In . SVG Version: 6.00 Build 0)  -->
<svg version="1.1" id="Слой_1" xmlns="http://www.w3.org/2000/svg" xmlns:xlink="http://www.w3.org/1999/xlink" x="0px" y="0px"
	 viewBox="0 0 1736.9 1303.5" style="enable-background:new 0 0 1736.9 1303.5;" xml:space="preserve">
<style type="text/css">
	.st0{opacity:0.6;}
	.st1{fill:#B11CBC;}
	.st2{opacity:0.8;}
	.st3{fill:#2346FA;}
	.st4{opacity:0.5;}
	.st5{fill:#00D1FF;}
</style>
<g class="st0">
	<path class="st1" d="M1623.9,801.3c-278.8,85.4-503.7,99.7-650.8,167.2c-138.3,30.4-137.2,101.7-248.2,163.2
		c-175.7,98.5-392.9,171.7-437-86.9C287.1,686.1,405.6,406.2,597.8,335c165.3-80.6,354.5-42.9,528,60.8
		C1335.4,491.8,1672.3,646.7,1623.9,801.3z"/>
</g>
<g class="st2">
	<path class="st3" d="M108.4,969.5c199-190.2,568.7-319.2,664.2-438.6C876.4,446.6,845.3,387,912.9,288
		c106.5-157.6,258.8-311.5,405.4-112c152.4,302.1,170.9,588.4,38.9,730.1c-105.4,138.1-299,229.1-489.2,215.2
		C650.5,1129.2,132.9,1120.4,108.4,969.5z"/>
</g>
<g class="st4">
	<path class="st5" d="M1020.9,792.3c41.9-108.4,92.8-181.8,107.9-244.7c24.5-50.7,2-68.7,10.1-118.9
		c12.5-79.8,43.1-165.9,134.7-113.2C1385.7,407.4,1444,516,1419,593.9c-15.5,72-73.8,120.9-148.9,148.1
		C1188.5,782.3,1057.2,847,1020.9,792.3z"/>
</g>
</svg>
