<svg width="964" height="936" viewBox="0 0 964 936" fill="none" xmlns="http://www.w3.org/2000/svg">
<g opacity="0.8" filter="url(#filter0_f_1063_12145)">
<path d="M215.339 313.387C325.748 341.846 447.031 442.606 510.491 450.29C562.504 468.316 578.63 444.784 628.975 447.108C708.914 450.419 796.486 470.42 750.983 563.913C668.258 681.325 564.958 748.895 485.962 733.338C413.549 726.256 341.262 678.481 308.834 609.498C262.889 535.698 163.815 354.121 215.339 313.387Z" fill="#2346FA"/>
</g>
<g opacity="0.7" filter="url(#filter1_f_1063_12145)">
<path d="M366.041 182.412C404.249 245.22 418.731 294.677 445.617 328.326C460.994 359.221 482.295 360.568 505.767 386.196C543.251 426.783 575.017 475.873 499.527 479.729C392.127 471.884 302.896 439.745 272.829 396.165C241.193 358.246 243.914 317.755 267.113 282.172C286.391 238.523 317.541 168.369 366.041 182.412Z" fill="#B11CBC"/>
</g>
<defs>
<filter id="filter0_f_1063_12145" x="0.864502" y="113.387" width="962.608" height="822.162" filterUnits="userSpaceOnUse" color-interpolation-filters="sRGB">
<feFlood flood-opacity="0" result="BackgroundImageFix"/>
<feBlend mode="normal" in="SourceGraphic" in2="BackgroundImageFix" result="shape"/>
<feGaussianBlur stdDeviation="100" result="effect1_foregroundBlur_1063_12145"/>
</filter>
<filter id="filter1_f_1063_12145" x="69.3927" y="0.585938" width="656.143" height="659.143" filterUnits="userSpaceOnUse" color-interpolation-filters="sRGB">
<feFlood flood-opacity="0" result="BackgroundImageFix"/>
<feBlend mode="normal" in="SourceGraphic" in2="BackgroundImageFix" result="shape"/>
<feGaussianBlur stdDeviation="90" result="effect1_foregroundBlur_1063_12145"/>
</filter>
</defs>
</svg>
