<svg width="40" height="40" viewBox="0 0 40 40" fill="none" xmlns="http://www.w3.org/2000/svg">
<path fill-rule="evenodd" clip-rule="evenodd" d="M20 1.5C9.78273 1.5 1.5 9.78273 1.5 20C1.5 30.2173 9.78273 38.5 20 38.5C21.3437 38.5 22.654 38.3567 23.9164 38.0847C19.0422 38.3764 15.4083 37.5021 12.7858 35.8952C9.95804 34.1625 8.35711 31.609 7.64152 28.8768C6.92822 26.1534 7.0923 23.2498 7.78414 20.7719C8.47191 18.3086 9.70438 16.1878 11.2059 15.0958C11.4292 14.9334 11.7419 14.9827 11.9043 15.2061C12.0667 15.4294 12.0174 15.7421 11.794 15.9045C10.5456 16.8125 9.40319 18.6917 8.7473 21.0408C8.09549 23.3754 7.94715 26.0969 8.60889 28.6234C9.26834 31.1413 10.7299 33.4627 13.3083 35.0425C15.8814 36.6192 19.6171 37.4876 24.8814 37.009C29.1289 35.2955 31.7892 32.8466 33.2322 30.1765C34.6834 27.4909 34.9256 24.5409 34.2642 21.8051C32.9348 16.3067 27.9907 11.7609 22.02 11.9998C21.7441 12.0108 21.5115 11.7961 21.5005 11.5202C21.4894 11.2442 21.7041 11.0116 21.9801 11.0006C28.5094 10.7393 33.8154 15.6934 35.2362 21.5701C35.9498 24.5218 35.6919 27.7281 34.1119 30.6519C32.7891 33.0997 30.5554 35.321 27.2462 37.027C33.8621 34.2079 38.5 27.6456 38.5 20C38.5 9.78273 30.2173 1.5 20 1.5ZM0.5 20C0.5 9.23045 9.23045 0.5 20 0.5C30.7696 0.5 39.5 9.23045 39.5 20C39.5 30.7696 30.7696 39.5 20 39.5C9.23045 39.5 0.5 30.7696 0.5 20ZM15 9.51812L21.9879 14.6002L15 17.7765V9.51812ZM16 11.4819V16.2235L20.0121 14.3998L16 11.4819Z" fill="white"/>
</svg>
