<svg width="2253" height="2229" viewBox="0 0 2253 2229" fill="none" xmlns="http://www.w3.org/2000/svg">
<g opacity="0.6" filter="url(#filter0_f_1147_3581)">
<path d="M1135.01 1854.12C1049.65 1575.37 1035.33 1350.46 967.851 1203.34C937.448 1065.05 866.181 1066.17 804.632 955.16C706.102 779.467 632.934 562.258 891.566 518.156C1250.15 517.388 1530.05 635.865 1601.33 828.048C1681.91 993.368 1644.21 1182.55 1540.54 1356.03C1444.49 1565.64 1289.55 1902.59 1135.01 1854.12Z" fill="#B11CBC"/>
</g>
<g opacity="0.8" filter="url(#filter1_f_1147_3581)">
<path d="M966.819 338.619C1157.04 537.645 1286.06 907.303 1405.37 1002.85C1489.67 1106.65 1549.3 1075.55 1648.3 1143.15C1805.92 1249.67 1959.76 1401.94 1760.32 1548.58C1458.21 1700.94 1171.87 1719.43 1030.24 1587.47C892.158 1482.11 801.135 1288.47 815.003 1098.27C807.113 880.81 815.912 363.12 966.819 338.619Z" fill="#2346FA"/>
</g>
<g opacity="0.5" filter="url(#filter2_f_1147_3581)">
<path d="M1144.03 1251.13C1252.39 1293.06 1325.8 1343.93 1388.75 1359.06C1439.44 1383.59 1457.4 1361.06 1507.63 1369.15C1587.42 1381.61 1673.57 1412.21 1620.8 1503.83C1528.92 1616.01 1420.28 1674.27 1342.38 1649.24C1270.42 1633.73 1221.44 1575.4 1194.29 1500.34C1153.97 1418.77 1089.3 1287.47 1144.03 1251.13Z" fill="#00D1FF"/>
</g>
<defs>
<filter id="filter0_f_1147_3581" x="514.113" y="318.152" width="1330.73" height="1740.67" filterUnits="userSpaceOnUse" color-interpolation-filters="sRGB">
<feFlood flood-opacity="0" result="BackgroundImageFix"/>
<feBlend mode="normal" in="SourceGraphic" in2="BackgroundImageFix" result="shape"/>
<feGaussianBlur stdDeviation="100" result="effect1_foregroundBlur_1147_3581"/>
</filter>
<filter id="filter1_f_1147_3581" x="613.002" y="138.619" width="1441.97" height="1737.11" filterUnits="userSpaceOnUse" color-interpolation-filters="sRGB">
<feFlood flood-opacity="0" result="BackgroundImageFix"/>
<feBlend mode="normal" in="SourceGraphic" in2="BackgroundImageFix" result="shape"/>
<feGaussianBlur stdDeviation="100" result="effect1_foregroundBlur_1147_3581"/>
</filter>
<filter id="filter2_f_1147_3581" x="1022.98" y="1151.13" width="714.037" height="603.853" filterUnits="userSpaceOnUse" color-interpolation-filters="sRGB">
<feFlood flood-opacity="0" result="BackgroundImageFix"/>
<feBlend mode="normal" in="SourceGraphic" in2="BackgroundImageFix" result="shape"/>
<feGaussianBlur stdDeviation="50" result="effect1_foregroundBlur_1147_3581"/>
</filter>
</defs>
</svg>
