<?xml version="1.0" standalone="no"?>
<!DOCTYPE svg PUBLIC "-//W3C//DTD SVG 20010904//EN"
 "http://www.w3.org/TR/2001/REC-SVG-20010904/DTD/svg10.dtd">
<svg version="1.0" xmlns="http://www.w3.org/2000/svg"
 width="960.000000pt" height="960.000000pt" viewBox="0 0 960.000000 960.000000"
 preserveAspectRatio="xMidYMid meet">
<metadata>
Created by potrace 1.14, written by Peter Selinger 2001-2017
</metadata>
<g transform="translate(0.000000,960.000000) scale(0.100000,-0.100000)"
fill="#000000" stroke="none">
<path d="M6032 9108 c-59 -16 -109 -51 -218 -153 -59 -55 -118 -111 -133 -124
-14 -13 -84 -79 -155 -145 -70 -67 -143 -134 -161 -151 -18 -16 -83 -78 -146
-137 -63 -58 -134 -125 -159 -148 -45 -41 -217 -203 -354 -332 -39 -36 -89
-83 -111 -103 -22 -21 -94 -88 -160 -150 -66 -62 -136 -127 -155 -145 -30 -28
-225 -210 -310 -290 -15 -14 -77 -72 -139 -130 -62 -58 -132 -123 -156 -145
-23 -22 -91 -85 -150 -140 -58 -55 -135 -127 -170 -160 -35 -33 -110 -103
-166 -155 -127 -119 -250 -234 -459 -430 -21 -19 -90 -84 -155 -145 -65 -60
-135 -126 -156 -145 -20 -19 -92 -87 -160 -150 -67 -63 -134 -126 -149 -140
-61 -58 -271 -253 -339 -316 -41 -38 -96 -89 -121 -114 -26 -25 -93 -88 -150
-140 -56 -52 -126 -117 -155 -145 -29 -27 -96 -90 -150 -140 -54 -49 -119
-110 -145 -135 -26 -25 -105 -99 -176 -165 -70 -66 -162 -152 -204 -191 -41
-39 -88 -84 -105 -99 -34 -31 -248 -230 -311 -290 -23 -22 -75 -72 -117 -112
-98 -93 -130 -157 -134 -266 -1 -43 3 -90 9 -105 27 -68 44 -102 51 -102 4 0
7 -4 7 -10 0 -24 103 -100 160 -118 55 -18 144 -24 545 -37 72 -3 130 -5 130
-6 0 0 38 -2 85 -4 271 -12 346 -15 450 -20 63 -3 167 -8 230 -10 63 -3 162
-7 220 -10 58 -3 157 -7 220 -10 163 -6 380 -16 485 -20 50 -3 142 -7 205 -9
63 -3 162 -8 220 -10 58 -3 173 -8 255 -12 201 -8 225 -10 259 -23 16 -7 183
-164 370 -351 188 -186 567 -563 843 -837 276 -274 648 -643 827 -821 376
-373 380 -376 526 -377 73 0 93 4 140 27 150 75 202 179 201 398 0 8 0 47 0
85 0 39 0 79 -1 90 -1 11 -1 26 -1 33 1 14 1 41 0 62 0 8 2 27 4 41 3 14 2 32
-3 39 -4 7 -4 25 0 40 4 15 4 33 0 40 -4 7 -4 25 0 40 4 15 3 34 -2 43 -6 11
-5 17 2 17 6 0 8 5 4 12 -7 11 -7 55 0 93 2 11 -1 28 -6 38 -6 11 -5 17 2 17
6 0 8 5 4 12 -7 11 -7 64 0 103 2 11 -1 26 -7 33 -6 8 -6 12 2 12 7 0 8 8 1
24 -5 13 -6 26 -3 29 4 5 7 170 3 192 -1 6 -1 13 0 18 6 18 4 67 -2 67 -4 0
-5 6 -3 13 9 23 11 107 2 107 -4 0 -5 5 -1 11 8 14 9 142 1 156 -4 6 -4 13 0
17 9 9 10 56 1 56 -4 0 -5 7 -1 15 9 26 9 144 -1 138 -5 -4 -6 -1 -2 5 10 17
14 82 4 88 -5 3 -6 10 -2 15 9 16 11 100 2 105 -5 3 -6 10 -2 15 9 15 11 99 3
105 -5 3 -5 15 0 27 9 26 6 60 -8 113 -30 112 -166 165 -271 108 -47 -26 -82
-69 -94 -117 -4 -16 -7 -494 -7 -1063 -1 -972 -2 -1035 -18 -1044 -18 -9 -79
50 -1728 1690 -518 516 -597 590 -634 600 -23 6 -96 14 -163 16 -157 6 -281
12 -281 13 0 1 -61 4 -135 6 -74 3 -184 7 -245 10 -60 3 -171 7 -245 11 -74 3
-175 7 -225 10 -49 2 -148 6 -220 9 -71 2 -175 7 -230 10 -55 2 -158 7 -230
10 -71 3 -173 8 -225 10 -106 5 -301 14 -460 20 -58 2 -105 4 -105 5 0 0 -63
3 -140 6 -237 10 -269 11 -287 13 -29 2 -20 34 20 70 20 19 73 68 118 110 44
42 132 123 194 181 62 58 139 131 172 163 33 31 61 57 62 57 1 0 34 30 73 67
39 38 110 104 158 148 47 44 112 105 144 135 32 30 107 100 166 155 59 55 129
120 155 145 26 25 103 97 170 160 68 63 138 129 155 145 18 17 81 76 141 132
126 116 131 121 288 268 65 61 139 130 165 155 41 38 104 97 327 305 117 110
273 255 304 285 20 19 92 87 160 150 68 63 140 131 160 150 21 19 81 76 134
125 54 50 126 117 161 150 78 74 266 250 320 300 22 20 94 88 160 150 66 62
136 128 157 146 55 51 255 239 303 284 106 100 285 266 330 308 28 25 78 71
111 104 34 32 106 99 160 150 55 50 124 116 155 145 31 29 107 100 169 158 62
58 135 127 164 154 28 27 60 55 72 62 52 35 50 72 49 -893 0 -606 3 -910 11
-939 26 -102 129 -160 232 -132 51 14 87 44 115 97 l24 46 -1 1040 -1 1040
-33 62 c-45 84 -128 156 -189 166 -10 1 -22 5 -28 9 -15 9 -125 6 -163 -4z"/>
<path d="M4134 6424 c-263 -44 -449 -210 -515 -461 -24 -87 -33 -270 -18 -350
11 -58 50 -186 59 -193 4 -3 13 -20 21 -37 8 -18 17 -33 21 -33 5 0 8 -6 8
-12 0 -17 95 -118 145 -155 44 -32 73 -46 153 -74 157 -55 417 -41 546 29 81
44 186 136 186 162 0 6 4 10 8 10 23 0 80 164 76 218 -1 12 -2 30 -3 40 -1 22
-47 74 -79 91 -39 21 -104 20 -145 -1 -32 -16 -45 -33 -78 -102 -71 -150 -139
-200 -274 -199 -118 1 -189 38 -244 127 -40 64 -51 114 -55 245 -9 272 111
430 321 423 103 -4 167 -49 244 -172 50 -80 78 -102 139 -108 61 -6 114 19
146 67 56 85 15 214 -102 327 -61 59 -165 120 -239 139 -16 5 -32 9 -35 10
-60 19 -203 24 -286 9z"/>
<path d="M5075 6426 c-41 -15 -85 -46 -85 -60 0 -7 -5 -17 -12 -24 -6 -6 -14
-20 -16 -29 -9 -39 -8 -1070 1 -1108 15 -59 42 -91 95 -112 42 -16 83 -18 422
-18 354 0 377 1 414 20 59 30 81 66 80 130 -1 44 -6 58 -30 83 -52 55 -73 58
-366 57 -148 0 -268 2 -269 5 0 3 -2 214 -3 470 -2 321 -6 473 -14 492 -32 77
-138 123 -217 94z"/>
<path d="M6189 6423 c-56 -17 -91 -48 -111 -98 -13 -35 -15 -113 -14 -585 1
-520 2 -547 20 -575 64 -99 190 -122 289 -53 31 22 66 84 62 111 -2 9 0 17 3
17 8 0 6 186 -2 206 -3 8 -2 14 2 14 8 0 6 216 -2 237 -3 7 -2 13 2 13 8 0 6
196 -2 217 -3 7 -2 13 2 13 8 0 6 216 -2 237 -3 7 -1 13 3 13 9 0 8 19 -4 99
-8 52 -41 97 -91 121 -55 27 -97 31 -155 13z"/>
<path d="M7157 6428 c-87 -8 -186 -38 -262 -79 -64 -34 -215 -177 -215 -204 0
-8 -3 -15 -8 -15 -8 0 -44 -78 -52 -115 -1 -5 -6 -17 -11 -26 -8 -15 -13 -38
-25 -114 -17 -100 -4 -271 27 -365 92 -280 291 -425 597 -434 143 -5 250 18
349 74 72 41 91 57 163 140 69 78 109 235 76 298 -33 63 -90 89 -183 83 -39
-2 -88 -56 -118 -128 -28 -69 -109 -163 -141 -163 -7 0 -14 -3 -14 -7 0 -14
-138 -21 -191 -10 -46 9 -103 44 -139 83 -19 22 -34 40 -32 42 1 1 -5 16 -14
34 -9 17 -17 40 -19 52 -2 12 -6 39 -10 61 -22 124 -2 274 49 374 19 36 71 91
86 91 5 0 10 4 10 9 0 17 93 41 158 41 106 0 180 -44 235 -139 12 -20 24 -38
27 -41 3 -3 13 -18 23 -33 67 -105 229 -83 273 37 38 102 -61 274 -209 364
-91 55 -207 88 -336 96 -14 1 -57 -2 -94 -6z"/>
<path d="M8062 6420 c-44 -20 -78 -58 -90 -104 -5 -17 -9 -273 -9 -568 0 -488
1 -541 17 -576 30 -66 108 -109 175 -96 17 4 36 7 43 7 6 0 12 4 12 9 0 5 4 7
8 4 13 -8 59 44 75 84 11 25 15 78 16 180 l2 145 77 72 c42 40 80 73 83 73 4
0 28 -33 55 -72 26 -40 52 -74 56 -76 4 -2 8 -8 8 -12 0 -5 27 -48 60 -95 33
-47 60 -90 60 -95 0 -6 4 -10 8 -10 4 0 25 -28 45 -62 49 -82 74 -109 122
-133 46 -22 166 -27 173 -7 2 7 9 12 16 12 32 0 78 82 70 127 -9 61 -17 78
-52 132 -55 84 -305 425 -314 429 -4 2 -8 9 -8 15 0 7 -11 25 -25 41 -14 16
-25 32 -25 36 0 4 19 24 43 45 220 196 285 261 302 301 10 26 11 43 6 106 -2
28 -70 87 -110 95 -49 10 -98 5 -134 -14 -17 -8 -140 -125 -274 -259 l-243
-244 0 188 c-1 199 -7 236 -50 284 -41 48 -135 66 -198 38z"/>
<path d="M3790 4718 c0 -3 -8 -4 -17 -2 -10 3 -38 -6 -63 -18 -34 -17 -51 -35
-68 -70 l-23 -46 0 -511 c0 -281 2 -514 4 -518 2 -5 7 -19 11 -33 9 -37 39
-68 86 -89 63 -28 133 -13 181 39 46 50 49 70 51 269 0 89 3 161 7 162 3 1 65
2 136 4 222 4 317 29 418 111 36 29 85 110 103 169 17 60 20 185 4 246 -13 50
-51 129 -62 129 -5 0 -8 6 -8 14 0 16 -53 61 -108 92 -78 44 -237 63 -462 55
-19 -1 -70 0 -113 1 -42 2 -77 0 -77 -4z m438 -283 c18 -9 39 -27 46 -38 19
-29 26 -92 15 -129 -8 -31 -51 -77 -72 -79 -7 0 -21 -3 -32 -6 -11 -2 -68 -7
-127 -10 l-108 -5 0 140 c0 103 3 142 13 145 6 3 62 3 122 2 77 -3 120 -9 143
-20z"/>
<path d="M5309 4725 c-3 -2 -31 -7 -64 -10 -78 -7 -80 -8 -150 -30 -143 -45
-261 -147 -325 -279 -22 -45 -42 -96 -45 -115 -3 -19 -8 -38 -10 -42 -7 -11
-18 -129 -18 -189 3 -281 131 -496 348 -587 90 -38 178 -55 275 -54 53 1 174
12 182 18 5 2 18 6 30 8 37 7 148 57 148 66 0 5 4 8 9 6 18 -5 122 98 161 159
38 61 78 160 87 219 2 17 8 46 12 65 10 50 5 204 -9 275 -50 263 -225 432
-490 474 -30 5 -66 8 -80 7 -14 -1 -32 1 -41 6 -9 4 -18 5 -20 3z m101 -286
c0 -5 11 -9 25 -9 14 0 25 -4 25 -10 0 -5 7 -10 15 -10 8 0 15 -4 15 -8 0 -5
10 -14 23 -21 62 -33 114 -186 111 -323 -2 -71 -32 -208 -46 -208 -4 0 -8 -6
-8 -13 0 -24 -66 -92 -111 -114 -178 -89 -369 7 -416 209 -9 38 -10 228 -2
273 9 49 44 119 80 160 50 56 117 83 212 83 42 0 77 -4 77 -9z"/>
<path d="M6249 4725 c-3 -2 -17 -6 -32 -9 -103 -18 -150 -74 -152 -181 -1 -34
-5 -66 -9 -73 -4 -7 -4 -12 1 -12 10 0 9 -292 -1 -308 -4 -7 -4 -12 1 -12 10
0 9 -211 -1 -228 -4 -7 -4 -12 1 -12 4 0 8 -75 7 -167 -1 -149 1 -173 19 -208
11 -22 26 -43 33 -48 7 -4 20 -14 28 -23 9 -8 31 -16 51 -18 20 -2 38 -6 41
-8 2 -3 26 -1 51 3 75 14 129 56 139 109 4 16 9 30 13 30 3 0 6 16 6 35 0 19
-4 35 -8 35 -5 0 -5 5 -1 12 10 15 11 99 1 105 -4 2 -4 9 -1 15 10 16 11 348
1 348 -5 0 -5 5 -1 12 10 15 11 99 2 105 -5 2 -4 12 0 21 9 18 8 92 -2 117 -3
8 -2 15 2 15 11 0 5 171 -8 220 -16 61 -66 103 -139 116 -14 3 -28 7 -31 9 -4
3 -9 3 -11 0z"/>
<path d="M6714 4703 c-56 -27 -89 -69 -101 -128 -5 -22 -9 -265 -8 -540 1
-539 -1 -518 56 -579 24 -26 35 -30 90 -32 70 -3 100 12 141 69 23 31 23 37
25 332 1 165 2 305 2 310 1 12 291 -423 291 -436 0 -5 4 -9 8 -9 5 0 15 -12
23 -27 8 -16 16 -30 19 -33 11 -11 50 -70 50 -75 0 -4 6 -13 14 -21 8 -7 23
-24 33 -37 43 -53 84 -72 159 -72 59 0 76 4 107 25 38 26 57 56 64 105 5 35 6
1032 1 1055 -6 24 -47 79 -70 91 -81 43 -179 14 -215 -65 -16 -35 -18 -72 -18
-343 -1 -166 -4 -305 -8 -309 -4 -4 -7 -2 -7 5 0 14 -99 164 -112 169 -4 2 -8
8 -8 13 0 5 -47 80 -105 165 -58 86 -105 159 -105 164 0 5 -4 10 -8 12 -4 2
-29 35 -55 75 -52 79 -98 123 -128 123 -24 0 -24 0 -57 9 -22 7 -40 3 -78 -16z"/>
<path d="M7917 4723 c-3 -3 -19 -6 -35 -8 -40 -3 -86 -32 -106 -65 -22 -38
-20 -108 3 -143 38 -59 68 -67 246 -70 l120 -2 1 -441 c1 -439 1 -441 24 -481
66 -118 240 -108 293 17 6 16 11 184 12 460 2 239 3 438 4 442 0 4 52 7 114 7
132 1 168 4 185 14 6 5 12 6 12 3 0 -4 13 6 30 20 34 31 51 76 45 119 -2 17
-4 33 -4 37 -2 15 -58 66 -81 73 -48 15 -162 21 -180 10 -5 -3 -11 -1 -15 4
-4 7 -15 7 -30 1 -14 -5 -25 -6 -25 -2 0 5 -23 6 -50 2 -28 -4 -53 -3 -56 1
-3 5 -16 4 -29 -1 -15 -6 -25 -6 -25 0 0 5 -12 5 -29 0 -15 -4 -34 -4 -41 0
-7 4 -25 4 -41 0 -15 -5 -30 -6 -33 -3 -3 3 -31 5 -63 4 -32 -1 -74 -2 -93 -2
-19 -1 -37 0 -40 1 -17 6 -62 4 -66 -2 -3 -5 -13 -4 -23 2 -10 5 -21 7 -24 3z"/>
<path d="M9261 4699 c-91 -49 -135 -122 -135 -224 1 -74 11 -101 63 -158 85
-94 251 -97 341 -7 59 59 82 156 56 241 -19 62 -45 96 -107 135 -56 35 -165
42 -218 13z"/>
</g>
</svg>
