<?xml version="1.0" encoding="UTF-8"?>
<svg id="b" data-name="Слой 2" xmlns="http://www.w3.org/2000/svg" viewBox="0 0 318.46 43">
  <defs>
    <style>
      .e {
        fill: #828282;
        fill-rule: evenodd;
      }
    </style>
  </defs>
  <g id="c" data-name="Слой 1">
    <g id="d" data-name="zarplata">
      <path class="e" d="m45.19,21h0c0,3.67-1.03,7.29-3.01,10.52-2.02,3.19-4.84,5.81-8.27,7.68-3.48,1.83-7.37,2.79-11.32,2.79h0c-3.95,0-7.84-.96-11.27-2.79-3.48-1.88-6.29-4.5-8.31-7.68-1.97-3.23-3.01-6.85-3.01-10.52s1.03-7.29,3.01-10.48c2.02-3.23,4.84-5.85,8.27-7.73,3.48-1.83,7.37-2.79,11.32-2.79s7.84.96,11.27,2.79c3.48,1.88,6.29,4.5,8.31,7.68,1.97,3.23,3.01,6.85,3.01,10.52h0ZM12.35,31.34c0,.44.28.83.7,1,2.49,1,5.54,1.48,9.21,1.48s6.86-.7,9.21-2.14,3.52-3.32,3.52-5.59c0-2.79-1.78-4.63-4.18-5.46-.14-.09-.19-.31,0-.35,2.11-.83,3.15-2.49,3.15-4.93,0-1.88-1.03-3.45-3.15-4.67-2.16-1.22-4.74-1.83-7.84-1.83-3.57,0-6.72.44-9.21,1.4-.42.17-.7.57-.7,1v3.41c0,.57.52.92,1.03.7,2.16-.83,4.6-1.22,7.28-1.22,3.48,0,5.21.79,5.21,2.31,0,1.4-1.22,2.1-3.71,2.1h-4.18c-.47,0-.85.35-.85.74v3.41c0,.39.38.7.85.7h4.23c3.01,0,4.46.79,4.46,2.36,0,1.75-2.25,2.79-6.11,2.79-2.87,0-5.5-.48-7.89-1.48-.47-.22-1.03.13-1.03.7v3.58h0Z"/>
      <path class="e" d="m191.31,28.29v3.54c0,.61-.38,1.14-.94,1.35-.8.31-1.78.48-2.96.48-2.77,0-4.7-.92-5.68-2.79-.05-.13-.19-.17-.28-.09-2.25,2.05-5.07,3.06-8.6,3.06-5.59,0-9.44-3.1-9.44-7.95,0-2.53.94-4.45,2.96-5.81,1.97-1.31,4.37-2.01,7.14-2.01s5.31.48,7.33,1.48v-.7c0-3.01-2.25-4.5-6.72-4.5-2.11,0-4.23.39-6.15,1.22-.75.35-1.6-.22-1.6-1v-2.92c0-.61.33-1.09.94-1.35,2.4-1,5.26-1.44,8.55-1.44,3.62,0,6.58.79,8.83,2.44,2.25,1.66,3.33,3.97,3.33,6.9v7.99c0,1.22.61,1.88,1.83,1.88.33,0,.66-.04.94-.13.28-.04.52.13.52.35h0Zm-10.47-3.67c0-.52-.28-.96-.8-1.22-1.27-.61-2.77-.92-4.51-.92-3.05,0-4.98,1.14-4.98,3.06,0,2.14,1.88,3.14,4.51,3.14,2.3,0,4.13-.7,5.45-2.1.23-.22.33-.57.33-.87v-1.09h0Z"/>
      <path class="e" d="m244.67,28.29v3.54c0,.61-.38,1.14-.94,1.35-.8.31-1.78.48-2.96.48-2.77,0-4.7-.92-5.68-2.79-.05-.13-.19-.17-.28-.09-2.25,2.05-5.07,3.06-8.6,3.06-5.59,0-9.44-3.1-9.44-7.95,0-2.53.94-4.45,2.96-5.81,1.97-1.31,4.37-2.01,7.14-2.01s5.31.48,7.33,1.48v-.7c0-3.01-2.25-4.5-6.72-4.5-2.11,0-4.23.39-6.15,1.22-.75.35-1.6-.22-1.6-1v-2.92c0-.61.38-1.09.94-1.35,2.4-1,5.26-1.44,8.55-1.44,3.62,0,6.58.79,8.83,2.44,2.25,1.66,3.33,3.97,3.33,6.9v7.99c0,1.22.66,1.88,1.83,1.88.33,0,.66-.04.94-.13.28-.04.52.13.52.35h0Zm-10.47-3.67c0-.52-.28-.96-.8-1.22-1.27-.61-2.77-.92-4.51-.92-3.05,0-4.98,1.14-4.98,3.06,0,2.14,1.88,3.14,4.51,3.14,2.3,0,4.13-.7,5.45-2.1.23-.22.33-.57.33-.87v-1.09h0Z"/>
      <path class="e" d="m94.41,12.44c2.3,2.4,3.43,5.33,3.43,8.86s-1.13,6.5-3.43,8.95c-2.25,2.36-5.12,3.54-8.6,3.54s-6.11-1.05-8.08-3.14c-.14-.09-.33-.04-.33.13v10.78c0,.61-.56,1.14-1.17,1.14h-4.84c-.66,0-1.17-.52-1.17-1.14V10.56c0-.61.52-1.09,1.17-1.09h4.84c.66,0,1.17.48,1.17,1.09v1.31c0,.13.19.22.33.09,1.88-2.05,4.56-3.1,8.08-3.1s6.34,1.18,8.6,3.58h0Zm-17,5.98v5.81c0,.13,0,.22.09.35,1.17,1.96,3.48,3.41,6.25,3.41,2.02,0,3.71-.65,4.98-1.92,1.27-1.31,1.93-2.88,1.93-4.76s-.66-3.45-1.93-4.71c-1.27-1.31-2.96-1.92-4.98-1.92-2.77,0-5.07,1.44-6.25,3.41-.09.13-.09.22-.09.35h0Z"/>
      <path class="e" d="m286.24,12.44c2.3,2.4,3.43,5.33,3.43,8.86s-1.13,6.5-3.43,8.95c-2.25,2.36-5.12,3.54-8.6,3.54s-6.11-1.05-8.08-3.14c-.14-.09-.33-.04-.33.13v10.78c0,.61-.56,1.14-1.17,1.14h-4.84c-.66,0-1.17-.52-1.17-1.14V10.56c0-.61.52-1.09,1.17-1.09h4.84c.66,0,1.17.48,1.17,1.09v1.31c0,.13.19.22.33.09,1.88-2.05,4.56-3.1,8.08-3.1s6.34,1.18,8.6,3.58h0Zm-17,5.98v5.81c0,.13,0,.22.09.35,1.17,1.96,3.48,3.41,6.25,3.41,2.02,0,3.71-.65,4.98-1.92,1.27-1.31,1.93-2.88,1.93-4.76s-.66-3.45-1.93-4.71c-1.27-1.31-2.96-1.92-4.98-1.92-2.77,0-5.07,1.44-6.25,3.41-.09.13-.09.22-.09.35h0Z"/>
      <path class="e" d="m102.58,32.48V10.17c0-.39.33-.7.75-.7h23.06c.42,0,.8.31.8.7v22.31c0,.44-.38.74-.8.74h-5.64c-.42,0-.8-.31-.8-.74V15.85c0-.48-.33-.79-.8-.79h-8.6c-.47,0-.8.31-.8.79v16.63c0,.44-.38.74-.8.74h-5.64c-.42,0-.75-.31-.75-.74h0Z"/>
      <path class="e" d="m144.72,15.06c-.42,0-.8.31-.8.74l-.09,2.62c-.14,3.27-.28,5.46-1.17,8.29-1.22,4.06-3.66,6.55-8.78,6.68-.89,0-1.6-.04-2.16-.22-.33-.09-.52-.39-.52-.7v-4.06c0-.44.38-.79.85-.74.19.04.38.04.61.04,1.69,0,2.77-.96,3.33-3.1.61-2.23.75-4.19.8-8.16l.14-6.29c0-.39.38-.7.8-.7h20.53c.42,0,.8.31.8.7v22.31c0,.44-.38.74-.8.74h-5.59c-.47,0-.85-.31-.85-.74V15.85c0-.48-.38-.79-.8-.79h-6.29Z"/>
      <path class="e" d="m199.91,32.48V15.85c0-.39-.38-.79-.8-.79h-6.39c-.47,0-.8-.35-.8-.74v-4.1c0-.44.33-.74.8-.74h21.7c.47,0,.8.31.8.74v4.1c0,.39-.33.74-.8.74h-6.48c-.47,0-.85.39-.85.79v16.63c0,.39-.33.74-.8.74h-5.59c-.42,0-.8-.35-.8-.74h0Z"/>
      <path class="e" d="m248.66,29.51c0-2.27,1.93-4.06,4.42-4.06s4.51,1.79,4.51,4.06-2.02,4.23-4.51,4.23-4.42-1.88-4.42-4.23h0Z"/>
      <path class="e" d="m291.69,41.47v-4.1c0-.52.52-.87,1.03-.7.89.31,1.88.48,2.87.48,2.54,0,4.13-1.35,5.54-4.45.09-.22.09-.44,0-.61l-10.38-21.61c-.19-.48.14-1,.7-1h5.78c.52,0,.94.26,1.13.65l6.06,14.06c.14.31.61.31.75,0l5.73-14.01c.19-.44.66-.7,1.17-.7h5.59c.56,0,.94.52.75,1l-11.41,25.23c-2.25,4.89-5.64,7.29-10.19,7.29-1.78,0-3.29-.22-4.46-.65-.42-.17-.66-.52-.66-.87h0Z"/>
      <path class="e" d="m65.24,27.94c-.28.09-.61.13-.94.13-1.17,0-1.83-.65-1.83-1.88v-7.99c0-2.92-1.08-5.24-3.33-6.9-2.25-1.66-5.21-2.44-8.83-2.44-3.15,0-6.2.52-8.36,1.4l-.05.04c.99,1.44,1.74,2.97,2.3,4.63h.05c1.36-.35,2.91-.57,4.32-.57,4.46,0,6.72,1.48,6.72,4.5v.7c-2.02-1-4.46-1.48-7.33-1.48s-5.17.7-7.14,2.01c-2.02,1.35-2.96,3.27-2.96,5.81,0,4.85,3.85,7.95,9.44,7.95,3.52,0,6.34-1,8.6-3.06.09-.09.23-.04.28.09.99,1.88,2.91,2.79,5.68,2.79,1.17,0,2.16-.17,2.96-.48.56-.22.94-.74.94-1.35v-3.54c0-.22-.23-.39-.52-.35h0Zm-9.96-2.23c0,.31-.09.65-.33.87-1.32,1.4-3.15,2.1-5.45,2.1-2.63,0-4.51-1-4.51-3.14,0-1.92,1.93-3.06,4.98-3.06,1.74,0,3.24.31,4.51.92.52.26.8.74.8,1.22v1.09h0Z"/>
    </g>
  </g>
</svg>