<?xml version="1.0" encoding="UTF-8"?>
<svg id="b" data-name="Слой 2" xmlns="http://www.w3.org/2000/svg" viewBox="0 0 352.49 63">
  <defs>
    <style>
      .e {
        fill: #828282;
        fill-rule: evenodd;
      }
    </style>
  </defs>
  <g id="c" data-name="Слой 1">
    <g id="d" data-name="megafon">
      <path class="e" d="m35.14.23v32.5h0c0,1.43-1.14,2.52-2.56,2.52h-3.82c-.23,0-.34.17-.34.4v27.24c.91.11,1.88.11,2.85.11,17.37,0,31.44-14.08,31.44-31.53C62.71,15.39,50.69,2.12,35.14.23h0Zm-.63,48.47c-2.16,0-3.93-1.77-3.93-3.95s1.77-3.95,3.93-3.95,3.99,1.77,3.99,3.95-1.82,3.95-3.99,3.95h0Zm9.23,0c-2.16,0-3.93-1.77-3.93-3.95s1.77-3.95,3.93-3.95,3.93,1.77,3.93,3.95-1.77,3.95-3.93,3.95h0Zm9.17,0c-2.16,0-3.87-1.77-3.87-3.95s1.71-3.95,3.87-3.95,3.99,1.77,3.99,3.95-1.77,3.95-3.99,3.95h0Z"/>
      <path class="e" d="m31.44,0C14.07,0,0,14.08,0,31.47c0,15.11,10.59,27.75,24.77,30.84v-28.32h0c0-1.32,1.08-2.46,2.45-2.46v-.06h3.93c.23,0,.34-.11.34-.29V0h-.06Zm-6.04,25.98c-2.22,0-3.99-1.77-3.99-3.95s1.77-3.89,3.99-3.89,3.93,1.72,3.93,3.89-1.77,3.95-3.93,3.95h0Z"/>
      <polygon class="e" points="344.69 17.28 344.69 29.13 328.74 29.13 328.74 17.28 320.94 17.28 320.94 48.69 328.74 48.69 328.74 35.99 344.69 35.99 344.69 48.69 352.49 48.69 352.49 17.28 344.69 17.28 344.69 17.28"/>
      <path class="e" d="m214.37,20.77c-1.31-2.86-3.93-4.23-6.44-4.23h0c-2.51,0-5.13,1.37-6.44,4.23l-12.81,27.92h8.32l2.85-6.64h16.17l2.85,6.64h8.32l-12.81-27.92h0Zm-11.9,14.99l4.84-11.44c.11-.34.4-.46.63-.46h0c.23,0,.46.11.63.46l4.84,11.44h-10.94Z"/>
      <path class="e" d="m121.37,11.62c-3.7,0-6.09,1.95-7.8,5.89l-10.19,23.69-10.19-23.69c-1.77-3.95-4.16-5.89-7.8-5.89-3.42,0-6.95,2.46-6.95,7.78v29.35h7.8v-28.55l10.31,23.52c1.37,3.26,3.59,5.32,6.83,5.32h0c3.25,0,5.41-2.06,6.83-5.32l10.31-23.52v28.55h7.8v-29.35c0-5.32-3.53-7.78-6.95-7.78h0Z"/>
      <path class="e" d="m141.99,42.06c-.4,0-.68-.34-.68-.69v-5.61h19.54v-6.47h-19.54v-4.75c0-.34.28-.69.68-.69h19.31v-6.58h-23.24c-2.68,0-4.61,2.23-4.61,4.63v22.09c0,2.4,1.94,4.69,4.61,4.69h23.24v-6.64h-19.31Z"/>
      <path class="e" d="m174.51,48.69v-24.15c0-.34.28-.69.68-.69h19.31v-6.58h-23.24c-2.68,0-4.61,2.23-4.61,4.63v26.78h7.86Z"/>
      <path class="e" d="m315.81,32.96c0-11.04-4.73-16.14-16.57-16.14h-2.79c-11.85,0-16.52,5.09-16.52,16.14h0c0,10.87,4.78,16.08,16.57,16.08h2.68c11.79,0,16.63-5.21,16.63-16.08h0Zm-16.69,9.61h-2.56c-6.49,0-9.06-3.03-9.06-9.61h0c0-6.35,2.22-9.56,9.06-9.56h2.56c6.66,0,9.06,3.2,9.06,9.56h0c0,6.58-2.56,9.61-9.06,9.61h0Z"/>
      <path class="e" d="m258.17,12.36h-15.55c-11.56,0-16.17,5.84-16.17,16.08,0,1.6.06,3.15.28,4.52,1.25,7.27,5.47,11.73,16.29,11.73h3.42v4.01h7.86v-4.01h3.42c10.82,0,15.09-4.46,16.29-11.73.23-1.37.34-2.92.34-4.52,0-10.24-4.61-16.08-16.17-16.08h0Zm-11.73,25.69h-3.59c-5.3,0-7.18-2-8.37-5.09-.46-1.2-.46-2.75-.46-4.52,0-6.64,3.08-9.5,7.63-9.5h4.78v19.11h0Zm19.82-5.09c-1.14,3.09-3.08,5.09-8.37,5.09h-3.59v-19.11h4.84c4.5,0,7.57,2.86,7.57,9.5,0,1.77,0,3.32-.46,4.52h0Z"/>
    </g>
  </g>
</svg>