<?xml version="1.0" encoding="UTF-8"?>
<svg id="b" data-name="Слой 2" xmlns="http://www.w3.org/2000/svg" viewBox="0 0 196.79 43">
  <defs>
    <style>
      .e {
        fill: #828282;
        fill-rule: evenodd;
      }
    </style>
  </defs>
  <g id="c" data-name="Слой 1">
    <g id="d" data-name="ozone">
      <path class="e" d="m82.2,32h-16.94L86.92,3.24c.47-.64.34-1.53-.3-2-.26-.21-.55-.3-.85-.3h-31.37c-2.77,0-5.02,2.22-5.02,4.99s2.26,5.03,5.02,5.03h14.09l-21.79,28.77c-.47.64-.34,1.53.26,2,.26.21.6.34.94.34h34.31c2.77-.17,4.9-2.51,4.77-5.28-.17-2.56-2.21-4.6-4.77-4.77h0ZM191.77.94h0c-2.77,0-4.98,2.22-4.98,4.99v16.88L159.71,1.24c-.64-.47-1.53-.38-2.04.21-.21.26-.34.6-.3.94v34.6c0,2.77,2.21,5.03,4.98,5.03s5.02-2.26,5.02-5.03v-16.88l27.07,21.61c.64.47,1.53.38,2.04-.26.17-.26.3-.6.3-.89V5.92c0-2.77-2.26-4.99-5.02-4.99h0Zm-71.68,32h0c-11.45,0-20.01-6.05-20.01-11.51s8.56-11.42,20.01-11.42,20.05,6.01,20.05,11.42-8.56,11.51-20.05,11.51h0Zm0-32.94h0c-16.56,0-30.01,9.59-30.01,21.44s13.45,21.52,30.01,21.52,30.1-9.59,30.1-21.52S136.69,0,120.08,0h0ZM21.45,32.94h0c-6.34.04-11.45-5.11-11.45-11.42-.04-6.39,5.11-11.55,11.41-11.55s11.49,5.11,11.49,11.46h0c0,6.39-5.15,11.51-11.45,11.51h0ZM21.45,0h0C9.62,0,0,9.59,0,21.44s9.58,21.56,21.41,21.56,21.5-9.63,21.5-21.48v-.09C42.91,9.59,33.29,0,21.45,0h0Z"/>
    </g>
  </g>
</svg>