<?xml version="1.0" encoding="UTF-8"?>
<svg id="b" data-name="Слой 2" xmlns="http://www.w3.org/2000/svg" viewBox="0 0 303.46 63">
  <defs>
    <style>
      .e {
        fill: #828282;
      }
    </style>
  </defs>
  <g id="c" data-name="Слой 1">
    <g id="d" data-name="5">
      <g>
        <polygon class="e" points="76.21 47.45 76.21 18.27 99.9 18.27 99.9 47.45 94.12 47.45 94.12 23.85 82 23.85 82 47.45 76.21 47.45"/>
        <path class="e" d="m122.19,26.19v21.26h-5.36v-7.38c-1.04.19-2.14.44-3.47.48l-4.43,6.9h-6.02l5.29-7.65c-2.78-1.17-4.24-3.19-4.24-6.35,0-4.33,3.16-7.26,9.42-7.26h8.8Zm-5.36,4.45h-3.28c-2.74,0-4.11.98-4.11,2.89s1.33,2.81,3.99,2.81c1.17,0,2.31-.08,3.4-.27v-5.42Z"/>
        <path class="e" d="m158.39,27.98c1.64,1.6,2.46,3.79,2.46,6.63v12.83h-5.51v-11.82c0-3.24-1.72-4.96-4.26-4.96-2.78,0-4.69,1.99-4.69,5.11v11.66h-5.51v-11.78c0-3.16-1.68-4.99-4.3-4.99s-4.65,1.99-4.65,5.15v11.63h-5.51v-21.26h5.39v3.04c1.21-2.22,3.71-3.67,6.49-3.63,2.66,0,5.12,1.29,6.26,3.75,1.56-2.34,4.46-3.75,7.62-3.75,2.54,0,4.61.78,6.22,2.38"/>
        <path class="e" d="m208.24,28.88c1.99,2.15,2.97,4.8,2.97,7.92s-1.02,5.77-3.01,7.92c-1.99,2.15-4.5,3.24-7.51,3.24-2.62,0-5.04-1.14-6.69-3.16v11.4h-5.51v-30h5.47v2.79c1.75-2.18,4.07-3.33,6.76-3.33,3.01,0,5.51,1.09,7.51,3.24m-4.22,12.29c1.09-1.17,1.64-2.62,1.64-4.33s-.55-3.16-1.64-4.33c-1.1-1.17-2.5-1.76-4.26-1.76s-3.13.59-4.22,1.76c-1.09,1.17-1.64,2.61-1.64,4.33s.55,3.16,1.64,4.33c1.1,1.17,2.5,1.76,4.22,1.76s3.17-.59,4.26-1.76"/>
        <path class="e" d="m216.41,28.88c2.15-2.18,4.89-3.28,8.21-3.28s6.06,1.09,8.21,3.28c2.15,2.15,3.21,4.8,3.21,7.92s-1.05,5.81-3.21,7.96c-2.15,2.15-4.89,3.24-8.21,3.24s-6.06-1.09-8.21-3.24c-2.15-2.15-3.21-4.8-3.21-7.96s1.05-5.77,3.21-7.92m8.21,14.01c1.68,0,3.05-.59,4.18-1.76,1.13-1.21,1.72-2.65,1.72-4.33s-.59-3.12-1.72-4.29c-1.13-1.17-2.5-1.76-4.18-1.76s-3.09.59-4.22,1.76c-1.13,1.17-1.68,2.62-1.68,4.29s.55,3.12,1.68,4.33c1.13,1.17,2.54,1.76,4.22,1.76"/>
        <path class="e" d="m251.55,26.19h5.51v21.26h-5.51v-7.16c-1.61.92-3.36,1.38-4.73,1.38-2.54,0-4.42-.47-6.1-1.6-1.68-1.21-2.62-3.47-2.62-6.75v-7.14h5.47v6.75c0,2.5,1.29,3.74,3.87,3.74,1.44,0,2.68-.2,4.1-.77v-9.73Z"/>
        <polygon class="e" points="275.29 47.45 266.8 37.63 266.8 47.45 261.29 47.45 261.29 26.16 266.8 26.16 266.8 34.59 274.54 26.19 281.5 26.19 272 36.04 282.05 47.45 275.29 47.45"/>
        <path class="e" d="m298.22,26.19h5.24v21.26h-5.24v-2.81c-1.83,2.22-4.1,3.32-6.8,3.32-3.05,0-5.59-1.06-7.59-3.2-1.99-2.14-2.97-4.84-2.97-8.04s1.02-5.85,3.01-7.92c1.99-2.11,4.54-3.16,7.55-3.16,2.66,0,5,1.21,6.8,3.34v-2.79Zm-1.64,6.28c-1.13-1.21-2.54-1.8-4.26-1.8s-3.16.59-4.3,1.8c-1.1,1.21-1.64,2.65-1.64,4.33s.55,3.16,1.68,4.37c1.13,1.21,2.54,1.79,4.26,1.79s3.13-.59,4.26-1.79c1.13-1.21,1.72-2.65,1.72-4.37s-.59-3.12-1.72-4.33"/>
        <path class="e" d="m185.29,38.75h-15.99c.78,3,2.85,4.53,6.22,4.53,2.31,0,4.87-.86,6.82-2.41l2.22,3.49c-2.69,2.51-5.76,3.56-9.27,3.56-3.75,0-6.61-1.09-8.6-3.24-1.99-2.15-2.97-4.8-2.97-7.88,0-3.24,1.02-5.89,3.09-8,2.07-2.11,4.73-3.16,8.02-3.16,3.09,0,5.67.97,7.66,2.89,1.99,1.91,3.01,4.49,3.01,7.8,0,.74-.08,1.56-.19,2.42m-14.39-21.11c1.84,0,3.28,1.44,3.28,3.2,0,1.91-1.41,3.32-3.28,3.32s-3.29-1.4-3.29-3.32c0-1.76,1.45-3.2,3.29-3.2m-1.6,17.01h10.83c-.51-2.77-2.5-4.45-5.32-4.45s-4.85,1.68-5.51,4.45m6.8-13.81c0-1.83,1.45-3.2,3.32-3.2s3.24,1.44,3.24,3.2c0,1.91-1.41,3.32-3.24,3.32s-3.32-1.4-3.32-3.32"/>
      </g>
      <g>
        <path class="e" d="m51.18,6.91c-4.39,11.4-16.03,9.92-24.24,10.2l-1.99,7.77c10.13-8.26,23.53-.07,22.09,12.39-.96,8.39-6.95,13.88-13.28,15.46-6.9,1.72-14.54-.85-17.96-7.88-.36-.74-1-2.23-1.24-3.03l7.27-1.87c.13.42.35.82.58,1.19,4.87,7.85,14.73,3.93,15.85-4.22,1.13-8.29-10.5-12.7-15.79-3.02l-6.45-2.75-.11-.05,2.4-9.64c.38-1.71,1.53-6.19,1.66-6.62.21-.67.25-.89.48-1.5C24.58,2.51,32.75,1.41,40.01,1.41c.29,0,.58,0,.86,0-2.96-.92-6.11-1.42-9.37-1.42C14.1,0,0,14.1,0,31.5s14.1,31.5,31.5,31.5,31.5-14.1,31.5-31.5c0-9.95-4.62-18.81-11.82-24.59"/>
        <path class="e" d="m48.31,4.78c-1.22,3.79-3.35,6.18-6.64,7.46-3.43,1.34-7.6,1.37-11.63,1.4-2.17.02-4.24.03-6.15.26,3.42-8.27,9.57-9.08,16.12-9.08.91,0,1.83.02,2.71.04.88.02,1.72.03,2.55.03,1.19,0,2.17-.04,3.04-.12"/>
      </g>
    </g>
  </g>
</svg>