<?xml version="1.0" encoding="UTF-8"?>
<svg id="b" data-name="Слой 2" xmlns="http://www.w3.org/2000/svg" viewBox="0 0 282.02 63">
  <defs>
    <style>
      .e {
        fill: #828282;
        fill-rule: evenodd;
      }
    </style>
  </defs>
  <g id="c" data-name="Слой 1">
    <path id="d" data-name="wildberries" class="e" d="m0,0h282.02v63H0V0h0Zm26.84,44.74h5.6l5.93-19.77,5.93,19.73,5.65.05,7.42-26.49h-4.88l-5.69,20.46-6.12-20.46h-4.54l-6.12,20.37-5.69-20.37h-4.83l7.37,26.49h0Zm33.87-26.49v26.44h4.64v-26.44h-4.64Zm14.54,22.3v-22.3h-4.54v26.44h15.88v-4.14h-11.34Zm25.55-22.26v-.05h-10.86v26.44h10.86c3.83,0,6.98-1.24,9.47-3.77,2.54-2.62,3.83-5.75,3.83-9.43s-1.29-6.9-3.83-9.43c-2.49-2.48-5.65-3.77-9.47-3.77h0Zm0,22.3h-6.32v-18.16h6.32c2.63,0,4.74.87,6.36,2.62,1.67,1.7,2.49,3.82,2.49,6.48s-.81,4.74-2.49,6.48c-1.58,1.75-3.73,2.58-6.36,2.58h0Zm37.7-3.45c0-2.76-1.44-4.97-3.88-6.16,1.87-1.33,2.82-3.08,2.82-5.38,0-2.12-.81-3.86-2.39-5.24-1.58-1.38-3.49-2.12-5.74-2.12h-11v26.49h11.86c2.34,0,4.26-.74,5.88-2.16,1.67-1.43,2.44-3.22,2.44-5.43h0Zm-15.6-14.81h6.46c2.01,0,3.54,1.52,3.54,3.49s-1.53,3.45-3.54,3.45h-6.46v-6.94h0Zm7.32,18.3v.05h-7.32v-7.45h7.32c2.11,0,3.73,1.61,3.73,3.68s-1.63,3.72-3.73,3.72h0Zm17.13-.05v-7.22h11.1v-4.09h-11.1v-6.9h12.1v-4.14h-16.65v26.49h16.84v-4.14h-12.3Zm32.15,4.14h5.02l-6.32-10.3c3.3-1.24,5.5-4.32,5.5-7.63,0-2.44-.91-4.46-2.63-6.07-1.67-1.66-3.78-2.48-6.27-2.48h-11.1v26.49h4.54v-9.66h5.36l5.88,9.66h0Zm-11.24-22.39h6.51c2.39,0,4.35,1.98,4.35,4.46s-1.91,4.41-4.35,4.41h-6.51v-8.88h0Zm35.5,22.39h5.07l-6.32-10.3c3.3-1.24,5.5-4.32,5.5-7.68,0-2.39-.86-4.41-2.63-6.02-1.67-1.66-3.83-2.48-6.32-2.48h-11.1v26.49h4.54v-9.7h5.36l5.88,9.7h0Zm-11.24-22.44h6.51c2.39,0,4.4,1.98,4.4,4.46s-1.96,4.41-4.4,4.41h-6.51v-8.88h0Zm19.61-4.05v26.49h4.54v-26.49h-4.54Zm14.45,22.35v-7.22h11.1v-4.09h-11.1v-6.9h12.06v-4.14h-16.6v26.49h16.79v-4.14h-12.25Zm15.45-1.89c1.44,4.05,5.31,6.48,10.67,6.48,2.97,0,5.31-.64,7.08-2.02,1.82-1.43,2.73-3.31,2.73-5.75.19-2.53-1.39-4.32-2.82-5.43-.43-.32-1.15-.74-2.01-1.06s-1.53-.6-2.06-.74c-.48-.18-1.24-.46-2.3-.78-4.26-1.24-5.6-2.16-5.6-4.09,0-2.07,1.67-3.36,4.35-3.36s4.64,1.29,5.79,3.72l3.83-2.12c-1.77-3.63-5.17-5.79-9.62-5.79-2.49,0-4.59.64-6.32,2.02-1.72,1.38-2.58,3.22-2.58,5.61s.86,4.09,2.68,5.29,3.16,1.66,5.79,2.44c2.39.64,4.02,1.29,4.93,1.89.91.55,1.39,1.33,1.39,2.44,0,2.12-1.72,3.49-5.17,3.49s-5.74-1.47-6.84-4.51l-3.92,2.25h0Z"/>
  </g>
</svg>