<?xml version="1.0" encoding="UTF-8"?>
<svg id="b" data-name="Слой 2" xmlns="http://www.w3.org/2000/svg" viewBox="0 0 83 83">
  <defs>
    <style>
      .e {
        fill: #828282;
        fill-rule: evenodd;
      }
    </style>
  </defs>
  <g id="c" data-name="Слой 1">
    <path id="d" data-name="hh" class="e" d="m41.46,83C18.55,83,0,64.41,0,41.46S18.55,0,41.46,0s41.54,18.55,41.54,41.46-18.59,41.54-41.54,41.54h0ZM23.58,22.8h-6.66v36.59h6.62l.04-12.9c-.04-2.14.19-3.78.58-4.91.43-1.13,1.05-1.95,1.91-2.49.9-.55,1.87-.86,3-.86.97,0,1.79.23,2.42.66.66.43,1.09,1.01,1.32,1.71.27.78.39,2.49.39,5.18v13.6h6.7v-15.08c0-2.34-.16-4.05-.35-5.14-.23-1.13-.66-2.1-1.29-3.04-.62-.9-1.56-1.64-2.81-2.22-1.21-.58-2.61-.86-4.13-.86-3.04,0-5.61,1.29-7.75,3.86v-14.11h0Zm26.34,0h-6.7v36.59h6.7v-12.9c0-2.14.19-3.78.58-4.91.43-1.13,1.05-1.95,1.91-2.49.9-.55,1.87-.86,2.96-.86.97,0,1.79.23,2.42.66.66.43,1.09,1.01,1.32,1.71.27.78.39,2.49.39,5.18v13.6h6.7v-15.08c0-2.34-.12-4.05-.35-5.14-.19-1.13-.62-2.1-1.25-3.04-.62-.9-1.56-1.64-2.81-2.22-1.25-.58-2.65-.86-4.21-.86-2.96,0-5.53,1.29-7.68,3.86v-14.11h0Z"/>
  </g>
</svg>