<?xml version="1.0" encoding="UTF-8"?>
<svg id="b" data-name="Слой 2" xmlns="http://www.w3.org/2000/svg" viewBox="0 0 75.55 83">
  <defs>
    <style>
      .e {
        fill: #828282;
        fill-rule: evenodd;
      }
    </style>
  </defs>
  <g id="c" data-name="Слой 1">
    <g id="d" data-name="burger-king">
      <path class="e" d="m69.86,78.43c-6.27,3.53-17.13,4.57-32.1,4.57s-25.79-1.04-32.1-4.57c-3.77-2.11-5.66-5.03-5.66-7.1,0-1.19.62-1.84,2-1.84h71.51c1.42,0,2.04.65,2.04,1.84,0,2.07-1.89,4.99-5.7,7.1h0Zm3.66-55.05H2c-1.39,0-2-.73-2-2.03C0,13.63,11.62,0,37.76,0s37.8,13.63,37.8,21.35c0,1.31-.62,2.03-2.04,2.03h0Z"/>
      <path class="e" d="m15.24,55.24c-.23-.31-.27-.54-.27-.61,0-.27.15-.46.46-.73.65-.65,2.35-2.23,3.27-3.65.69-1.11.96-2.11.96-2.92,0-2.11-1.89-3.72-3.96-3.72-1.35,0-2.62.73-3.46,2.11-1.12,1.84-2.54,3.99-3.39,4.84-.23.23-.35.27-.54.27-.27,0-.38-.19-.38-.5v-2.46c0-2.38-1.42-4.26-3.96-4.26S.04,45.49.04,47.87v14.93c0,2.38,1.35,4.26,3.93,4.26s3.96-1.88,3.96-4.26v-3.46c0-.31.12-.5.38-.5.42,0,.5.38.62.58.54,1.31,2.19,4.18,3.69,5.84,1.04,1.11,2.27,1.8,3.62,1.8,2.27,0,4.16-1.96,4.16-4.03,0-1.31-.58-2.3-1.62-3.49-1.39-1.46-2.96-3.38-3.54-4.3h0Z"/>
      <path class="e" d="m45.42,42.31c3.81,0,6.24-2.42,6.24-5.99,0-2.23-1.39-3.76-4.08-3.76h-.77c-1.46,0-2.58.65-2.58,2.19,0,1.34,1.19,2,2.12,2,.46,0,.73.15.73.5,0,.42-.5.73-1.08.73-1.85,0-3.08-1.31-3.08-3.69,0-2.65,1.69-3.61,3.04-3.61,1.58,0,1.85.81,2.96.81,1.27,0,2.16-1.07,2.16-2.23,0-.81-.35-1.42-.92-1.88-1-.73-2.42-1.27-4.58-1.27-3.77,0-7.43,2.46-7.43,8.18s3.66,8.02,7.27,8.02h0Z"/>
      <path class="e" d="m2.81,42.15h3.46c3.23,0,5.2-2.15,5.2-4.84,0-2.15-1.31-3.19-1.58-3.42-.12-.12-.27-.19-.27-.31s.08-.15.19-.31c.46-.54.92-1.38.92-2.61,0-2.88-1.96-4.41-5.04-4.41h-2.89c-1.92,0-2.81,1.07-2.81,2.57v10.71c0,1.5.89,2.61,2.81,2.61h0Zm1.42-11.75c0-.35.19-.58.62-.58h.31c1.08,0,1.39.73,1.39,1.34,0,.58-.31,1.42-1.39,1.42h-.31c-.42,0-.62-.23-.62-.58v-1.61h0Zm0,5.68c0-.31.19-.58.62-.58h.42c1.23,0,1.54.77,1.54,1.5,0,.61-.31,1.5-1.54,1.5h-.42c-.42,0-.62-.23-.62-.54v-1.88h0Z"/>
      <path class="e" d="m66.09,42.27c1.58,0,2.42-1.19,2.42-2.61v-2.57c0-.31.15-.46.38-.46.31,0,.38.19.46.46.19,1.23.77,2.92,1.42,3.76.85,1.07,1.62,1.42,2.42,1.42,1.27,0,2.35-1,2.35-2.23,0-.84-.35-1.42-.77-2-.81-1.04-1.35-1.69-1.66-2.53-.08-.19,0-.38.19-.54.77-.58,1.62-1.92,1.62-3.92,0-3.07-2.58-4.8-5.66-4.8h-2.77c-1.92,0-2.81,1.07-2.81,2.57v10.83c0,1.42.85,2.61,2.39,2.61h0Zm2.16-11.48c0-.31.19-.54.62-.54h.35c1,0,1.31.73,1.31,1.34s-.31,1.42-1.31,1.42h-.35c-.42,0-.62-.27-.62-.58v-1.65h0Z"/>
      <path class="e" d="m26.25,43.61c-2.73,0-4.2,2-4.2,4.53v14.36c0,2.57,1.46,4.57,4.2,4.57s4.23-2,4.23-4.57v-14.36c0-2.53-1.46-4.53-4.23-4.53h0Z"/>
      <path class="e" d="m69.36,52.9h-1.19c-2.12,0-3.77.96-3.77,3.19,0,1.96,1.77,2.92,3.12,2.92.65,0,1.12.19,1.12.69,0,.65-.77,1.04-1.58,1.04-2.77,0-4.62-1.84-4.62-5.3,0-3.88,2.54-5.3,4.5-5.3,2.39,0,2.77,1.23,4.5,1.23,1.92,0,3.23-1.57,3.23-3.15,0-1.19-.54-2.11-1.39-2.73-1.46-1.11-3.73-1.88-6.89-1.88-5.66,0-11.16,3.53-11.16,11.82s5.5,11.59,10.93,11.59c5.73,0,9.35-3.49,9.35-8.64,0-3.26-2.04-5.49-6.16-5.49h0Z"/>
      <path class="e" d="m60.24,42.15c1.35,0,2.42-.81,2.42-2.27s-1.08-2.23-2.42-2.23h-2.23c-.38,0-.58-.23-.58-.54v-.46c0-.31.19-.58.58-.58h1.69c1.19,0,2.12-.69,2.12-1.96s-.92-1.92-2.12-1.92h-1.69c-.38,0-.58-.23-.58-.58v-.38c0-.31.19-.54.58-.54h2.23c1.35,0,2.42-.81,2.42-2.27s-1.08-2.19-2.42-2.19h-4.62c-1.96,0-2.85,1.07-2.85,2.57v10.71c0,1.5.89,2.61,2.85,2.61h4.62Z"/>
      <path class="e" d="m18.55,42.23c3.96,0,6.04-2.34,6.04-5.3v-8.18c0-1.42-.85-2.57-2.39-2.57s-2.42,1.15-2.42,2.57v7.91c0,.58-.35,1.27-1.23,1.27s-1.15-.69-1.15-1.27v-7.91c0-1.42-.89-2.57-2.46-2.57s-2.39,1.15-2.39,2.57v8.18c0,2.96,2.04,5.3,6,5.3h0Z"/>
      <path class="e" d="m35.64,42.27c1.27,0,2.35-1,2.35-2.23,0-.84-.35-1.42-.77-2-.69-.92-1.35-1.69-1.66-2.53-.08-.19,0-.38.19-.54.77-.58,1.62-1.92,1.62-3.92,0-3.07-2.58-4.8-5.66-4.8h-2.77c-1.92,0-2.81,1.07-2.81,2.57v10.83c0,1.46.85,2.61,2.39,2.61s2.42-1.15,2.42-2.61v-2.57c0-.31.15-.46.38-.46.31,0,.38.19.46.46.19,1.23.77,2.92,1.42,3.76.85,1.07,1.62,1.42,2.42,1.42h0Zm-4-9.25h-.35c-.42,0-.62-.27-.62-.58v-1.65c0-.31.19-.54.62-.54h.35c1,0,1.31.73,1.31,1.34s-.31,1.42-1.31,1.42h0Z"/>
      <path class="e" d="m49.54,43.61c-2.54,0-3.89,1.84-3.89,4.18v5.26c0,.42-.15.61-.38.61s-.35-.12-.54-.46l-3.35-6.56c-1.31-2.46-2.62-3.03-4.2-3.03-2.54,0-3.93,1.88-3.93,4.26v15.01c0,2.34,1.35,4.18,3.85,4.18s3.89-1.84,3.89-4.18v-5.26c0-.42.12-.61.38-.61.19,0,.35.12.54.46l3.35,6.53c1.27,2.5,2.66,3.07,4.2,3.07,2.54,0,3.93-1.88,3.93-4.3v-14.97c0-2.34-1.35-4.18-3.85-4.18h0Z"/>
    </g>
  </g>
</svg>