<?xml version="1.0" encoding="UTF-8"?>
<svg id="b" data-name="Слой 2" xmlns="http://www.w3.org/2000/svg" viewBox="0 0 140.28 53">
  <defs>
    <style>
      .e {
        fill: #828282;
      }
    </style>
  </defs>
  <g id="c" data-name="Слой 1">
    <g id="d" data-name="tele2">
      <path class="e" d="m106.96,40.2c.16-.18.25-.29.35-.39.96-.9,1.92-1.8,2.87-2.7.76-.72,1.52-1.46,2.28-2.18.93-.88,1.89-1.74,2.81-2.64,1.76-1.72,3.51-3.44,5.26-5.18.57-.57,1.06-1.2,1.63-1.77,1.25-1.26,2.38-2.61,3.29-4.12.57-.93,1.02-1.91,1.3-2.98.22-.86.44-1.71.35-2.6-.06-.61-.17-1.22-.46-1.76-.35-.66-.87-1.17-1.54-1.52-.61-.32-1.24-.48-1.92-.52-.36-.02-.72-.08-1.14-.12.02-3.81-.06-7.64.1-11.49.26-.06.5-.14.74-.15.71-.04,1.43-.06,2.14-.08.61-.01,1.21.1,1.82.13.7.04,1.37.19,2.05.31.64.12,1.26.36,1.89.55,1.58.48,2.94,1.33,4.22,2.36.69.55,1.26,1.2,1.81,1.88.63.77,1.13,1.6,1.58,2.48.34.67.57,1.37.77,2.09.13.48.27.95.37,1.44.23,1.13.32,2.27.15,3.42-.06.4-.06.81-.1,1.21-.07.67-.14,1.33-.31,1.99-.15.56-.23,1.15-.38,1.71-.16.59-.34,1.17-.56,1.74-.37.93-.74,1.86-1.17,2.76-.78,1.61-1.73,3.13-2.79,4.57-.6.81-1.19,1.63-1.82,2.42-.52.66-1.1,1.27-1.64,1.91-1.41,1.66-2.94,3.21-4.47,4.75-.58.58-1.15,1.17-1.71,1.76-.16.17-.34.25-.57.25-2.24.05-4.49.11-6.73.18-2.8.09-5.6.2-8.4.29-.64.02-1.29,0-2.05,0Z"/>
      <path class="e" d="m73.93,8.23c.32-.05.63-.11.94-.16.52-.09,1.04-.18,1.56-.26.47-.07.94-.12,1.4-.19.54-.08,1.07-.18,1.6-.26.28-.04.57-.05.86-.09.59-.08,1.19-.18,1.78-.26.21-.03.43-.04.65-.06.48-.05.96-.1,1.5-.15.05,1.06.14,2.06.14,3.07.01,14.26.02,28.52.02,42.78,0,.09,0,.17,0,.29h-10.46V8.23Z"/>
      <path class="e" d="m140.28,52.96h-35.47c-.1-.31-.12-10.46-.03-10.97,11.82-.35,23.65-.7,35.5-1.06v12.03Z"/>
      <path class="e" d="m47.24,52.96V11.97c.43-.07.84-.14,1.26-.21.57-.09,1.13-.18,1.7-.26.53-.07,1.06-.11,1.59-.18.52-.07,1.04-.17,1.56-.25.23-.03.46-.06.68-.08.7-.07,1.41-.14,2.11-.2.04,0,.08.02.15.04.03.48.07.96.07,1.44.01,4.26.02,8.52.03,12.78.01,9.09.02,18.19.03,27.28,0,.2,0,.4,0,.62h-9.19Z"/>
      <path class="e" d="m31.34,52.96h-7.98c0-12.51-.01-25.01.02-37.54.12-.05.23-.11.35-.13.65-.13,1.3-.23,1.96-.28.64-.05,1.26-.23,1.89-.33.31-.05.63-.05.94-.1.59-.08,1.19-.18,1.78-.26.33-.04.67-.04,1.03-.06v38.71Z"/>
      <path class="e" d="m105.29,22.65c0-1.09-.02-2.11,0-3.13.02-.95.04-1.9.14-2.85.09-.86.26-1.73.44-2.58.21-.97.48-1.93.86-2.85.41-.98.82-1.96,1.41-2.85.44-.67.86-1.37,1.38-1.98.6-.7,1.28-1.35,1.96-1.97,1.1-1,2.36-1.75,3.7-2.39,1.45-.69,2.96-1.18,4.53-1.53.11-.02.23,0,.38,0,0,.13.02.26.02.39,0,3.65,0,7.29,0,10.94,0,.38-.01.36-.38.54-.77.36-1.42.86-1.95,1.55-.38.49-.68,1.02-.92,1.59-.34.8-.44,1.65-.46,2.51-.02.99-.04,1.99-.08,2.98,0,.21-.06.42-.1.65-.38.16-.8.14-1.2.18-.77.07-1.54.12-2.31.19-.65.05-1.3.12-1.95.18-.9.08-1.79.16-2.69.24-.78.07-1.57.13-2.35.19-.14.01-.29,0-.46,0Z"/>
      <path class="e" d="m6.56,52.89c0-.16-.02-.32-.02-.48,0-8.39,0-16.78,0-25.17,0-.16,0-.32,0-.53.86-.09,1.69-.17,2.52-.27.73-.08,1.45-.18,2.18-.26.07,0,.15,0,.22,0,.51-.06,1.03-.13,1.54-.16.32-.02.64,0,1,0,.01.09.05.2.05.31.03,1.21.07,2.43.07,3.64.01,7.18.02,14.35.02,21.53,0,.48,0,.96,0,1.44-.07.02-.11.05-.15.05-2.45,0-4.9,0-7.35,0-.03-.02-.06-.05-.08-.07Z"/>
      <path class="e" d="m20.58,15.71v8.34c-.22.03-.47.08-.72.11-.3.04-.6.06-.9.09-.23.02-.45.06-.68.09-.26.03-.51.06-.77.09-.7.09-1.39.18-2.09.26-.36.04-.72.06-1.08.1-.43.05-.85.11-1.28.17-.3.04-.6.07-.9.09-.66.06-1.32.1-1.98.18-.82.1-1.63.22-2.44.34-.06,0-.12,0-.17.01-.78.07-1.56.15-2.33.22-.5.05-1.01.08-1.51.13-.63.07-1.25.17-1.88.24-.55.06-1.09.1-1.64.15-.02,0-.05-.03-.13-.07-.12-2.49-.02-5.02-.07-7.6.33-.06.65-.13.97-.18.6-.09,1.2-.17,1.79-.25.51-.07,1.03-.13,1.54-.2.44-.06.88-.13,1.32-.2.35-.05.71-.11,1.06-.16.56-.08,1.13-.17,1.69-.25.44-.06.88-.12,1.32-.18.59-.09,1.19-.18,1.78-.26.45-.06.91-.11,1.36-.18.58-.08,1.16-.18,1.74-.26.47-.07.94-.11,1.41-.18.55-.08,1.1-.19,1.65-.26.53-.07,1.05-.11,1.58-.18.31-.04.62-.1.93-.15.13-.02.25-.02.43-.03Z"/>
      <path class="e" d="m101.47,4.46c.03.28.08.55.08.83.02,3.21.03,6.41.04,9.62,0,.07-.02.14-.04.25-.33.04-.66.07-.98.13-.66.12-1.35.07-2,.25-.22.06-.47.03-.7.05-.69.07-1.39.14-2.08.23-.64.08-1.29.18-1.93.26-.33.04-.66.06-.99.09-.66.06-1.32.11-1.98.18-.8.08-1.6.17-2.4.26-.6.07-1.19.18-1.78.26-.13.02-.26,0-.39-.01-.03-.02-.05-.05-.08-.07,0-.25-.02-.5-.02-.75,0-3.03,0-6.06,0-9.09,0-.13,0-.26,0-.42.27-.07.53-.15.79-.19.51-.07,1.03-.11,1.54-.18.51-.07,1.01-.17,1.52-.25.25-.04.51-.07.77-.1.94-.12,1.88-.23,2.82-.35.82-.11,1.65-.23,2.47-.35.71-.11,1.41-.24,2.12-.34.54-.08,1.09-.1,1.62-.19.5-.08.99-.19,1.5-.16.03.03.06.05.1.08Z"/>
      <path class="e" d="m101.57,42.08v10.86h-15.32v-10.32c.21,0,.41-.02.61-.03,3.82-.13,7.64-.26,11.46-.39.89-.03,1.79-.08,2.68-.12.17,0,.35,0,.56,0Z"/>
      <path class="e" d="m58.01,52.95v-9.52c4.41-.14,8.8-.28,13.22-.42v9.89c-.31.09-12.11.14-13.22.04Z"/>
      <path class="e" d="m86.24,34.87c0-.07-.02-.15-.02-.22,0-3.25,0-6.5,0-9.75,0-.12,0-.23,0-.4.53-.06,1.04-.13,1.55-.18.84-.08,1.68-.15,2.51-.22.62-.05,1.25-.08,1.87-.14.47-.04.94-.12,1.41-.17.39-.04.79-.06,1.18-.09.51-.04,1.01-.08,1.52-.13.1.3.14,9.52.04,10.85-.51.05-1.03.12-1.55.15-.99.07-1.99.12-2.98.17-.83.04-1.66.08-2.49.11-.93.04-1.86.06-2.8.09-.06,0-.12-.01-.17-.02-.03-.03-.05-.06-.08-.08Z"/>
      <path class="e" d="m32.73,44.21c3.85-.13,7.71-.26,11.59-.38v9.13h-11.58c-.09-.31-.11-8.28,0-8.74Z"/>
      <path class="e" d="m44.24,12.47c.03.54.09,1.03.09,1.52,0,2.46,0,4.92,0,7.43-.18.03-.37.07-.56.1-.26.04-.51.06-.77.09-.23.03-.45.06-.68.09-.34.05-.68.1-1.02.14-.06,0-.11.02-.17.02-.79.08-1.58.16-2.37.24-.42.04-.84.07-1.25.12-.64.08-1.27.18-1.91.26-.31.04-.63.05-.95.08-.64.07-1.28.15-1.94.22v-8.8c.79-.1,1.56-.18,2.32-.29,1.08-.16,2.15-.35,3.22-.52.34-.05.69-.05,1.03-.09.49-.05.97-.11,1.46-.18.32-.05.64-.12.97-.17.62-.09,1.24-.18,1.87-.26.2-.02.41,0,.67,0Z"/>
      <path class="e" d="m32.7,29.09c.86-.1,1.68-.2,2.5-.28.55-.05,1.1-.05,1.65-.1.54-.04,1.09-.13,1.63-.17.58-.04,1.16-.06,1.79-.08.03.25.09.48.09.72.02,1.96.04,3.92.06,5.89,0,.66,0,1.32,0,1.98,0,.16,0,.32,0,.51-2.6.15-5.14.29-7.72.44v-8.9Z"/>
    </g>
  </g>
</svg>