<?xml version="1.0" encoding="UTF-8"?>
<svg id="b" data-name="Слой 2" xmlns="http://www.w3.org/2000/svg" viewBox="0 0 325.88 83">
  <defs>
    <style>
      .e {
        fill: #828282;
      }
    </style>
  </defs>
  <g id="c" data-name="Слой 1">
    <g id="d" data-name="rostelecom">
      <path class="e" d="m257.03,59.76l11.34,12.89h-7.36l-8.77-9.93v9.93h-6.1v-24.03h6.1v8.72l8.62-8.72h7.22l-11.04,11.14Zm-182.64-4.65c4.46,0,6.49-2.13,6.49-5.33s-2.03-5.33-6.49-5.33h-8.82v10.66h8.82m.19-16.37c7.65,0,12.69,3.92,12.69,11.04s-5.04,11.04-12.69,11.04h-9.01v11.82h-6.39v-33.91h15.4m27.13,28.87c3.58,0,6.93-2.57,6.93-6.98s-3.34-6.98-6.93-6.98-6.93,2.57-6.93,6.98,3.34,6.98,6.93,6.98m0-19.67c6.59,0,13.13,4.26,13.13,12.69s-6.54,12.69-13.13,12.69-13.13-4.26-13.13-12.69,6.54-12.69,13.13-12.69m28.71,19.67c-3.68,0-6.39-2.66-6.39-6.98s2.81-6.98,6.39-6.98c2.18,0,4.07,1.02,5.57,3.29l5.23-3c-1.74-3.73-5.52-6.01-10.75-6.01-6.83,0-12.64,5.04-12.64,12.69s5.52,12.69,12.64,12.69c5.13,0,8.57-2.32,11-6.44l-5.04-2.76c-1.45,2.03-3,3.49-6.01,3.49m64.99-5.38c-.29,3.68-1.02,4.5-2.28,4.5-.86,0-1.27-.1-1.85-.25l.03,6.22s.76.23,2.16.23c5.18,0,7.12-3.34,7.61-10.46l.58-8.38h6.88v18.51h6.1v-23.98h-18.21l-1.02,13.61Zm-11.26-4.8c-.58-3-2.86-4.84-6.25-4.84-3.2,0-5.62,2.13-6.49,4.84h12.74Zm-6.06-9.49c6.88,0,11.72,4.99,11.72,12.01v2.13h-18.51c.39,3.68,3,6.01,6.59,6.01,3.25,0,4.6-1.4,6.1-3.29l4.84,2.42c-2.42,4.12-5.76,6.1-11.04,6.1-6.68,0-12.35-5.09-12.35-12.69s5.67-12.69,12.64-12.69m58.66,9.49c-.58-3-2.86-4.84-6.25-4.84-3.2,0-5.62,2.13-6.49,4.84h12.74Zm-6.06-9.49c6.88,0,11.72,4.99,11.72,12.01v2.13h-18.51c.39,3.68,3,6.01,6.59,6.01,3.25,0,4.6-1.4,6.1-3.29l4.84,2.42c-2.42,4.12-5.76,6.1-11.04,6.1-6.69,0-12.35-5.09-12.35-12.69s5.67-12.69,12.64-12.69m-87.34,6.01h7.17v18.7h6.1v-18.7h7.17v-5.33h-20.44v5.33Zm137.13,13.66c3.58,0,6.93-2.57,6.93-6.98s-3.34-6.98-6.93-6.98-6.93,2.57-6.93,6.98,3.34,6.98,6.93,6.98m0-19.67c6.59,0,13.13,4.26,13.13,12.69s-6.54,12.69-13.13,12.69-13.13-4.26-13.13-12.69,6.54-12.69,13.13-12.69m37.41.67l-6.62,16.83-6.62-16.83h-7.98v23.98h5.8v-15.18l6.43,15.18h4.74l6.43-15.18v15.18h5.8v-23.98h-7.98Z"/>
      <path class="e" d="m18.14,60.8l31.88-31.68L20.83,0,4.3,16.5C-.64,21.42.03,24.64.03,31.26v45.26c0,3.5,2.9,6.49,6.56,6.49h33.77l-.95-.95-21.26-21.25Zm-11.55,21.64c-4.77,0-5.54-4.66-3.51-6.67l14.65-14.57s21.27,21.24,21.27,21.24H6.59Z"/>
    </g>
  </g>
</svg>