<?xml version="1.0" encoding="utf-8"?>
<!-- Generator: Adobe Illustrator 27.7.0, SVG Export Plug-In . SVG Version: 6.00 Build 0)  -->
<svg version="1.1" id="Слой_1" xmlns="http://www.w3.org/2000/svg" xmlns:xlink="http://www.w3.org/1999/xlink" x="0px" y="0px"
	 viewBox="0 0 113.1 177.7" style="enable-background:new 0 0 113.1 177.7;" xml:space="preserve">
<style type="text/css">
	.st0{fill:#E6E648;}
	.st1{fill:#312F2D;}
</style>
<g>
	<path class="st0" d="M95.3,169.5c-3.8,0.3-7.7,0.4-11.5,0.6c-1.9,0.1-3.8,0.1-5.7,0.2c-12.8,0.5-25.5,0.2-38.3,0.2
		c-5,0-10.1-0.2-15.1-0.5c-3.5-0.2-7.1,0-10.5-0.9c-5.5-1.5-9.2-4.9-11.5-10.1c-0.9-2.1-1-4.3-1.2-6.5c-0.3-4.3-0.6-8.6-0.7-12.9
		c-0.1-3.3-0.3-6.6-0.3-9.9c-0.1-2.7-0.1-5.4-0.2-8.1C-0.2,108.1,0.1,94.8,0,81.5C0,75.3,0,69.2,0.1,63c0.1-2.9,0.1-5.9,0.3-8.8
		c0.1-2.1,0.1-4.3,0.2-6.4c0.2-4.8,0.4-9.7,0.8-14.5c0.2-2.6,0.1-5.2,0.7-7.7c1.5-6.3,7.1-11.4,12.7-12.3c2-0.3,4.1-0.4,6.2-0.5
		c4.4-0.2,8.9-0.4,13.3-0.5c2.2-0.1,4.4-0.1,6.7-0.2c8.5-0.4,17-0.3,25.5-0.2c4.9,0,9.8,0.1,14.7,0.3c2.8,0.1,5.6,0.3,8.4,0.4
		c2.7,0.1,5.4,0.1,8,0.5c5.8,0.9,10,4.2,12.5,9.5c1.3,2.7,1.4,5.7,1.5,8.7c0.1,3.8,0.4,7.7,0.7,11.5c0,0.2,0,0.5,0,0.7
		c0.2,8.8,0.6,17.7,0.8,26.5c0.2,12.7,0.1,25.3,0.1,38c0,4.4-0.1,8.9-0.3,13.3c-0.1,4.1-0.2,8.1-0.4,12.2c-0.2,3.6-0.4,7.2-0.5,10.8
		c-0.1,3.8-0.1,7.7-0.7,11.5c-1,6.3-4.8,10.6-10.8,12.9C98.8,169.1,97.1,169.6,95.3,169.5z M5.4,47C5.2,52.1,5,57.4,4.9,62.6
		c-0.1,5.9-0.1,11.9-0.2,17.8c-0.1,9.5-0.1,18.9,0.1,28.4c0.2,7.3,0.1,14.6,0.4,21.9c0.3,6.2,0.4,12.5,0.6,18.7
		c0.1,1.9,0.4,3.8,0.3,5.7c0,1.1,0.3,2.3,0.8,3.3c2,4.2,5.4,6.5,10.1,6.7c3.7,0.2,7.4,0.4,11.2,0.5c4.1,0.1,8.1,0.1,12.2,0.2
		c5.5,0.2,11.1,0.1,16.6,0.1c10.1,0,20.2,0.1,30.3-0.5c3.2-0.2,6.4-0.3,9.6-0.5c5.1-0.4,9.8-4.4,9.9-10.5c0.1-3.3,0.3-6.6,0.5-9.9
		c0.2-4.6,0.4-9.2,0.5-13.8c0.1-2.3-0.1-4.6,0.1-6.9c0.2-2.4,0.2-4.9,0.3-7.3c0.2-13,0.1-26,0.1-39.1c0-6.5-0.2-13.1-0.4-19.6
		c-0.1-3.3-0.1-6.7-0.2-10.1c-0.1-3.9-0.4-7.8-0.5-11.8c-0.1-3.4-0.2-6.7-0.5-10.1c-0.3-3.8-4.6-8.2-8.3-8.7
		c-2.1-0.3-4.2-0.2-6.3-0.3c-4.2-0.2-8.5-0.3-12.7-0.5c-4.4-0.2-8.8-0.3-13.2-0.3c-8,0-16.1-0.3-24.1,0.2c-3.5,0.2-6.9,0.1-10.4,0.2
		c-3.7,0.1-7.3,0.3-11,0.4c-1.9,0.1-3.8,0-5.7,0.3c-5,0.8-8.5,5.2-8.9,9.8c-0.2,3-0.4,6-0.5,9C5.6,39.8,5.1,43.4,5.4,47z"/>
	<path class="st0" d="M78.2,8.2c-0.3,0-0.6,0-0.8,0c-0.8,0.1-1.1-0.1-1.1-1c-0.1-1.3-0.8-1.8-2.7-1.9C69.7,5.3,66,5.5,62.2,5.8
		c-1.7,0.1-3.5,0-5.3,0c-4,0.1-8-0.2-12-0.3c-1.7,0-3.4-0.2-5.1-0.2c-2.1,0-2.6,0.4-3.1,2.4c-0.1,0.4-0.3,0.4-0.6,0.4
		c-0.5,0-1,0-1.4,0c-2.3,0-2.1,0.1-1.5-2.1c1.1-3.8,4.1-5.9,8-6c10.3-0.2,20.7-0.2,31,0c4,0.1,7.3,2.8,7.8,7.5
		c0,0.3-0.1,0.5-0.4,0.5C79.1,8.2,78.6,8.2,78.2,8.2C78.2,8.2,78.2,8.2,78.2,8.2z"/>
	<path class="st0" d="M25.5,173.9c0,2.6-1.3,3.9-3.9,3.8c-0.8,0-1.6-0.2-2.3-0.3c-2-0.4-3.5-3.2-2.9-5.1c0.2-0.5,0.5-0.4,0.8-0.3
		c2.5,0.5,5.1,0,7.7,0.5C26,172.6,25.2,173.5,25.5,173.9z"/>
	<path class="st0" d="M87.4,173.8c-0.2-1,0.1-1.4,1.4-1.5c2.2-0.2,4.4,0.2,6.5-0.4c0.8-0.2,1,0.2,1,1c0,3.4-1.3,4.6-5.1,4.8
		C89,177.8,87.1,176.4,87.4,173.8z"/>
	<path class="st1" d="M75,83.7c0,4.3,0,8.6,0,12.9c0,0.9,0.2,1.4,1.2,1.2c0.9-0.2,1.1,0.2,1.1,1.1c0,1.5,0.1,3.1-1.8,3.7
		c-0.4,0.1-0.8,0.2-1.1,0.2c-6.5,0-12.9,0-19.4,0c-0.9,0-1.2-0.1-1.2-1.1c0.1-1.1,0-2.2,0-3.4c0-0.4,0-0.7,0.5-0.8
		c2.6-0.2,3.7-2.1,4.4-4.3c0.8-2.3,0.9-4.7,0.9-7.1c0.1-5.1,0-10.2,0-15.3c0-2.4,0.8-3.2,3.2-3.2c3,0,6,0,9,0c2.1,0,3.1,1,3.1,3.1
		C75,75.2,75,79.5,75,83.7z M61.8,97.7c2.3,0,4.3,0,6.4,0c0.9,0,1.2-0.2,1.2-1.2c0-6.7,0-13.5,0-20.2c0-1.1,0.5-2.6-0.2-3.2
		c-0.6-0.5-2.1-0.1-3.1-0.2c-1.1-0.1-1.2,0.3-1.2,1.3c0.1,4,0,8,0,12c0,2-0.3,4.1-0.7,6.1C63.7,94.1,63,95.9,61.8,97.7z"/>
	<path class="st1" d="M38,127.5c0-4.2-0.2-7.6,0-11c0.3-4.4,2.7-7.3,7.4-7.6c2.7-0.1,5.2,0.3,7.2,2.3c1.7,1.7,2.1,3.9,2.1,6.2
		c0.1,6.2,0.1,12.5,0,18.7c0,2.6-0.6,5.2-2.9,6.9c-1.3,1-2.7,1.6-4.3,1.6c-1.9,0-3.8,0.2-5.5-0.8c-2.2-1.2-3.5-3.1-3.8-5.5
		C37.7,134.4,38.2,130.5,38,127.5z M49.2,126.1c-0.2-2.9,0.2-6.4-0.2-9.9c-0.2-1.6-1.6-2.2-2.9-2.2c-1.3,0-2.4,1.1-2.4,2.5
		c0,5-0.1,10-0.1,15c0,2,0,4.1,0.1,6.1c0,1.1,1,2,2.1,2.1c1.6,0.1,2.9-0.6,3.1-1.7c0.1-0.9,0.3-1.8,0.3-2.7
		C49.1,132.3,49.2,129.5,49.2,126.1z"/>
	<path class="st1" d="M28.1,84.8c2.5,1,3.1,3.1,3.4,5.4c0.3,1.9,0.2,3.9,0.2,5.8c0,1.5,0.2,1.7,1.6,1.7c0.9,0,1.3,0.2,1.2,1.2
		c-0.1,1.1,0,2.2,0,3.2c0,0.4,0,0.8-0.5,0.8c-2.2,0.1-4.4,0.3-6.1-1.6c-0.9-1-1.3-2.2-1.4-3.5c0-2.2,0-4.4,0-6.6
		c-0.1-2.1-1.5-3.4-3.4-3.4c-0.8,0-0.9,0.2-0.9,0.9c0,3.6,0,7.3,0,10.9c0,2.3-1,3.3-3.2,3.3c-2.4,0-2.4,0-2.4-2.3
		c0-10.5,0-21,0-31.5c0-0.9,0.2-1.3,1.1-1.2c0.9,0.1,1.8-0.1,2.6,0.1c1.2,0.3,1.8,1.2,1.8,2.7c0,3.6,0.1,7.2,0,10.8
		c0,1.1,0.5,1.3,1.2,1.1c1.9-0.5,3-1.1,3.1-3.3c0-2.1,0-4.2,0-6.3c0-2.7,2-4.9,4.7-4.9c1,0,2.4-0.3,3,0.2c0.7,0.5,0.1,1.9,0.2,3
		c0.1,1.2,0,2.1-1.6,1.9c-0.8-0.1-1,0.7-1.1,1.4c-0.1,1.4-0.1,2.8-0.2,4.3C31.4,81.3,30.4,83.3,28.1,84.8z"/>
	<path class="st1" d="M36,45.1c0,5.1,0,10.1,0,15.2c0,0.9-0.3,1.2-1.1,1.1c-1-0.1-2.1,0.2-3.1-0.3c-0.8-0.3-1.3-0.9-1.3-1.8
		c0-0.4-0.1-0.9-0.1-1.3c0-8.5,0-16.9,0-25.4c0-1-0.3-1.3-1.3-1.2c-2.7,0.1-2.7,0-2.7,2.8c0,4.9,0.1,9.9-0.1,14.8
		c-0.1,2.9-0.4,5.9-1.9,8.5c-1.2,2.1-3.1,3.3-5.4,3.6c-2.5,0.3-2.5,0.3-2.5-2.3c0-0.1,0-0.2,0-0.4c-0.1-1.3-0.1-2.3,1.6-2.7
		c2.1-0.5,2.3-2.6,2.7-4.3c0.4-1.5,0.1-3.1,0.3-4.6c0.4-6,0.1-12.1,0.2-18.2c0-1.4,0.8-2.3,2.2-2.4c3.2-0.1,6.5-0.2,9.7,0
		c2,0.1,2.6,0.9,2.7,3.4C36.1,34.9,36,40,36,45.1z"/>
	<path class="st1" d="M88.4,67.8c0.7,0.1,1.8-0.2,2.7,0.3c0.8,0.4,1.3,1,1.4,1.9c0.8,4.8,1.5,9.7,2.4,14.5c0.8,4.4,1.3,8.8,2,13.2
		c0.2,1.5,0.5,3,0.9,4.5c0.2,0.7-0.1,0.7-0.6,0.7c-0.6,0-1.2,0-1.8,0c-2.8,0.2-3.6-1.2-3.8-3.6c-0.1-0.7-0.4-1.4-0.3-2.2
		c0.1-0.5-0.4-0.5-0.7-0.5c-1.8,0-3.5,0-5.3,0c-0.7,0-0.9,0.3-0.9,0.9c-0.2,1.6-0.5,3.2-0.7,4.9c-0.1,0.5-0.2,0.6-0.7,0.6
		c-1.4,0-2.7,0-4.1,0c-0.5,0-0.5,0-0.4-0.6c0.6-3.3,1-6.6,1.5-9.9c0.5-3.2,1.1-6.4,1.7-9.6c0.5-3.2,1-6.5,1.5-9.7
		c0.2-1.1,0.4-2.1,0.5-3.2c0.2-1.1,1.2-1.9,2.3-1.9C86.7,67.8,87.4,67.8,88.4,67.8z M88,75.4c-0.1,0-0.2,0-0.3,0
		c-0.2,0.8-0.4,1.7-0.5,2.5c-0.4,2.5-0.7,5.1-1.1,7.7c-0.3,1.8-0.6,3.5-0.8,5.3c-0.1,0.5,0.1,0.8,0.7,0.8c1.2-0.1,2.5,0,3.7,0
		c0.7,0,0.8-0.4,0.6-0.8c-0.4-0.7-0.3-1.5-0.4-2.3C89.2,84.2,88.6,79.8,88,75.4z"/>
	<path class="st1" d="M26.2,130.6c-1,3.1-2,6-2.9,8.8c-0.4,1.1-0.7,2.3-1.1,3.5c-0.5,1.5-1.6,1.9-3.1,1.3c-1.5-0.7-1.9-1.7-1.4-3.4
		c1.5-4.6,3.1-9.2,4.6-13.8c0.2-0.5,0.2-0.9,0-1.5c-1.7-5.1-3.4-10.2-5.1-15.2c-0.3-0.9-0.1-1,0.7-1c0.9,0,1.8,0,2.8,0
		c1.4,0,2.2,0.6,2.6,1.9c1,3.2,2.1,6.4,3.1,9.6c0.1,0.2,0.2,0.4,0.4,0.9c0.5-1.6,1-2.9,1.5-4.3c0.7-2.1,1.4-4.3,2.2-6.4
		c0.5-1.5,1.7-2.1,3.2-1.6c1.2,0.4,1.8,1.8,1.3,3.2c-1.5,4.2-2.6,8.5-4.3,12.6c-0.3,0.7-0.2,1.4,0,2.1c1.8,5.2,3.6,10.5,5.5,15.7
		c0.4,1,0.1,1.3-0.9,1.2c-0.8-0.1-1.6,0-2.4,0c-1.7,0-2.4-0.5-2.9-2.2c-1.1-3.4-2.2-6.8-3.4-10.3C26.6,131.5,26.5,131.2,26.2,130.6z
		"/>
	<path class="st1" d="M68.9,48c-2.8,0.8-5.6,0.6-8.1-1.2c-1.7-1.2-2.5-2.9-2.7-4.8c-0.6-5-0.1-9.9-0.2-14.9c0-0.5,0.2-0.7,0.7-0.7
		c0.7,0,1.4,0,2,0c2,0,2.9,0.9,3,3c0,3.6,0,7.2,0,10.8c0,2.1,0.8,2.9,2.4,3c2,0.1,3.1-1,3.1-3.1c0.1-3.3,0-6.5,0-9.8
		c0-0.8-0.1-1.7,0.2-2.5c0.5-1.2,1.5-1.6,3.2-1.4c1.1,0.2,2,1.1,2.1,2.2c0,0.3,0,0.6,0,1c0,10.2,0,20.4,0,30.5c0,1-0.2,1.4-1.3,1.3
		c-1-0.1-2.1-0.1-3.1,0c-0.9,0.1-1.2-0.2-1.2-1.2c0.1-3.8,0-7.5,0-11.3C69.1,48.7,69.1,48.4,68.9,48z"/>
	<path class="st1" d="M69.1,131c-3.1,0.1-6.1,0.7-8.6-1.6c-1.4-1.3-2.3-2.9-2.4-4.8c-0.4-4.9-0.1-9.8-0.2-14.7
		c0-0.3-0.1-0.6,0.2-0.7c0.6-0.3,3.8,0.1,4.4,0.5c0.7,0.6,1.1,1.3,1.1,2.3c0,3.8,0,7.7,0,11.5c0,1.2,0.6,2,1.7,2.5
		c1.1,0.4,2.7,0,3.2-0.9c0.5-0.8,0.7-1.6,0.7-2.6c0-3.5,0-7,0-10.5c0-2,0.7-2.7,2.7-2.7c2,0,2.8,0.8,2.8,2.8c0,10.3,0,20.7,0,31
		c0,0.9-0.2,1.2-1.1,1.1c-1.2-0.1-2.3-0.1-3.5,0c-0.8,0-1-0.2-1-1c0-3.8,0-7.5,0-11.3C69.1,131.7,69.1,131.3,69.1,131z"/>
	<path class="st1" d="M39.4,44.6c0-5.1,0-10.2,0-15.3c0-2.1,0.7-2.9,2.8-2.9c4,0,8,0,12,0c0.7,0,0.8,0.2,0.8,0.8
		c0,1.2-0.1,2.3,0,3.5c0,0.7-0.2,0.8-0.9,0.8c-2.7,0-5.4,0-8.1,0c-0.8,0-1,0.2-1,1c0,2.6,0.1,5.1,0,7.7c0,0.8,0.3,1,1,1
		c1.6-0.1,3.3,0,4.9,0c2.2,0,2.2,0,2.1,2.2c0,0.4,0,0.9-0.2,1.3c-0.5,1-1.3,1.6-2.4,1.6c-1.5,0-3,0-4.5,0c-0.6,0-0.9,0.1-0.9,0.8
		c0,2.8,0,5.7,0,8.5c0,0.7,0.3,0.9,0.9,0.8c2.6,0,5.3,0,7.9,0c1,0,1.3,0.3,1.2,1.3c-0.1,1,0,2.1,0,3.1c0,0.6-0.2,0.7-0.7,0.7
		c-4.7,0-9.4,0-14.1,0c-0.9,0-0.7-0.5-0.7-1C39.4,55.1,39.4,49.9,39.4,44.6z"/>
	<path class="st1" d="M47.5,87.5c0.7-2.9,1.3-5.8,1.9-8.7c0.7-3,1.3-6.1,2-9.1c0.3-1.3,1.1-1.9,2.5-1.9c0.9,0,1.8,0,2.8,0
		c0.6,0,0.8,0,0.6,0.8c-1.8,6.8-3.7,13.5-5.4,20.3c-0.8,3.2-1.5,6.4-2.9,9.5c-1.3,2.7-3.1,4.4-6.6,4.5c-3,0.1-3,0.1-3-2.9
		c0-0.1,0-0.2,0-0.2c0-1.8,0-1.7,1.7-1.9c2.1-0.2,3.3-1.4,2.7-3.7c-2.1-7.6-4.3-15.1-6.4-22.7c-0.5-1.6,0.2-3.4,1.5-3.6
		c1.6-0.3,3.1,0,3.7,2.3c1.2,4.8,2.6,9.6,3.9,14.5c0.3,1,0.5,1.9,0.8,2.8C47.3,87.5,47.4,87.5,47.5,87.5z"/>
	<path class="st1" d="M87.8,46.3c0.9-4.1,1.7-8,2.6-11.8c0.5-2.1,0.9-4.1,1.4-6.2c0.3-1.3,1.1-1.9,2.4-1.9c0.9,0,1.8,0.1,2.6-0.1
		c0.9-0.1,0.8,0.4,0.7,0.9c-0.8,3-1.6,6.1-2.4,9.1c-1.4,5.2-2.7,10.4-4.1,15.6c-0.6,2.3-1.3,4.6-2.7,6.6c-1.5,2.2-3.7,2.9-6.2,2.9
		c-2.4-0.1-2.4,0-2.4-2.4c0-0.8-0.2-1.7,0.1-2.4c0.4-0.7,1.4-0.1,2.1-0.3c1.9-0.3,2.7-1.8,2.1-4c-1-3.7-2.1-7.4-3.1-11.1
		c-1.1-4-2.3-7.9-3.4-11.9c-0.3-1.1,0.7-2.7,1.8-3c1.4-0.4,3.1,0.4,3.4,1.6c1.5,5.7,3,11.4,4.6,17C87.4,45.4,87.6,45.8,87.8,46.3z"
		/>
	<path class="st1" d="M87.8,129c1.2-5.7,2.5-11.4,3.7-17c0.4-1.9,1-2.9,3.3-2.7c0.6,0,1.3,0.1,1.9,0c1-0.2,0.9,0.4,0.8,1.1
		c-1.2,4.7-2.6,9.3-3.7,14c-1.1,4.3-2.1,8.6-3.4,12.8c-0.4,1.3-1,2.5-1.7,3.7c-1.3,2.4-3.4,3.3-6,3.4c-3,0.1-3,0-3-2.9
		c0-0.2,0-0.3,0-0.5c-0.2-1.2,0.1-1.7,1.5-1.7c2.3,0.1,3.4-1.6,2.8-4c-1.5-5.3-3-10.6-4.5-15.9c-0.7-2.3-1.4-4.7-2.1-7
		c-0.3-1.2,0.5-2.8,1.6-3c1.7-0.4,3.2,0.4,3.6,1.8c1.6,5.8,3.2,11.6,4.7,17.5C87.5,128.8,87.5,128.9,87.8,129z"/>
	<path class="st1" d="M82.2,155.2c0-0.9,0-1.8,0-2.7c0-0.6,0.2-0.8,0.8-0.8c0.8,0,1.6,0,2.4,0c1.8,0.1,2.4,1.5,1.4,3
		c-0.1,0.1-0.5,0.2,0,0.5c0.9,0.6,0.9,1.6,0.6,2.4c-0.3,0.8-1.2,1.2-2.2,1.1c-0.9-0.1-2.2,0.3-2.8-0.2c-0.7-0.6-0.1-1.9-0.2-2.8
		C82.2,155.5,82.2,155.4,82.2,155.2z M83.6,157.5C83.6,157.5,83.7,157.5,83.6,157.5c0.1,0,0.2,0,0.2,0c0.1,0,0.1,0,0.2,0
		c0.1,0,0.1,0,0.2,0c0.4,0,0.8,0,1.2,0c0.5,0,0.8-0.1,0.9-0.7c0-0.6-0.1-0.9-0.7-1.1c-0.3-0.1-0.6-0.2-0.8-0.2c-0.2,0-0.4,0-0.6,0.1
		c-0.2,0.1-0.3,0.2-0.4,0.3c-0.1,0.2-0.2,0.4-0.2,0.6c0,0.1,0,0.3,0,0.4c0,0.1,0,0.2,0,0.3C83.5,157.3,83.5,157.4,83.6,157.5
		C83.6,157.4,83.6,157.4,83.6,157.5z M84.7,152.9c-0.1,0-0.1,0-0.2,0c0,0-0.1,0-0.1,0c-0.1,0-0.1,0-0.2,0c-0.1,0-0.2,0-0.3,0
		c-0.2,0-0.4,0.1-0.5,0.3c-0.1,0.1-0.1,0.3-0.1,0.5c0,1,0.5,0.9,1.1,0.9c0.7,0,1.5,0.1,1.4-0.9c0-0.2-0.1-0.5-0.3-0.6
		c-0.2-0.1-0.4-0.1-0.6,0C85,153,84.8,153,84.7,152.9z"/>
	<path class="st1" d="M91.9,151.8c2.6-0.3,3.7,1.6,3.7,3.3c0.1,2.4-1.7,3.7-3.7,3.8c-2,0.1-3.5-1.6-3.5-3.7
		C88.5,153,89.7,151.8,91.9,151.8z M94.5,155.3c0-1.3-1.2-2.5-2.5-2.5c-1.1,0-2.2,1.2-2.3,2.4c0,1.3,1.1,2.6,2.2,2.6
		C93.2,157.8,94.4,156.6,94.5,155.3z"/>
	<path class="st1" d="M36.3,158.8c0.8-2.2,1.6-4.3,2.4-6.3c0.2-0.5,0.4-0.8,1-0.7c0.5,0.1,0.9,0,1.1,0.6c0.7,2.1,1.5,4.2,2.3,6.3
		c0,0-0.5,0.1-0.5,0.1c-0.1,0-0.8,0-0.8,0c-0.1-0.3-0.3-0.6-0.3-0.9c0-0.1-0.1-0.3-0.1-0.4c0-0.1-0.1-0.3-0.1-0.4c0,0-0.5,0-0.5,0
		c-0.2,0-0.3,0-0.5,0c-0.3,0.1-0.7,0-1,0c-0.3,0.1-0.7,0-1,0c-0.1,0-0.1,0-0.2,0c0,0-0.1,0.1-0.1,0.2c-0.1,0.3-0.2,0.5-0.2,0.8
		c-0.1,0.2-0.1,0.5-0.1,0.7c0,0,0,0.1,0,0.1c0,0-0.1,0-0.1,0c-0.2,0-0.4,0-0.6,0C36.7,158.7,36.5,158.7,36.3,158.8z M39.7,153.3
		c-0.1,0.2-0.1,0.3-0.2,0.5c-0.1,0.2-0.2,0.4-0.3,0.7c-0.2,0.4-0.3,0.8-0.5,1.3c0,0,0.5,0,0.5,0c0.2,0,0.4,0,0.5,0
		c0.3-0.1,0.7,0,1,0c-0.2-0.2-0.3-0.6-0.4-0.9c-0.1-0.3-0.2-0.6-0.3-0.8c-0.1-0.1-0.1-0.2-0.2-0.4c0-0.1-0.1-0.3-0.1-0.4
		c0,0,0,0,0,0c0,0,0,0,0,0C39.7,153.2,39.7,153.2,39.7,153.3z"/>
	<path class="st1" d="M55.4,155.2c0-0.9,0-1.8,0-2.7c0-0.5,0.2-0.7,0.7-0.7c0.5,0,0.5,0.3,0.6,0.7c0.1,2.2,0.2,2.1,2.3,2.2
		c0.9,0,1.1-0.2,1.2-1.1c0-0.5-0.7-1.6,0.5-1.7c1.3,0,0.6,1.1,0.6,1.7c0.1,1.5,0,2.9,0,4.4c0,0.5-0.1,0.8-0.7,0.8
		c-0.7,0-0.5-0.4-0.6-0.8c-0.1-2.3-0.1-2.2-2.3-2.3c-0.9,0-1.3,0.2-1.1,1.1c0.1,0.4,0,0.9,0,1.3c0,0.4-0.1,0.6-0.6,0.6
		c-0.5,0-0.7-0.2-0.7-0.7C55.4,157.1,55.4,156.1,55.4,155.2z"/>
	<path class="st1" d="M75.1,156.6c-0.5,1.6-2.3,2.4-3.6,2.3c-1.4-0.1-2.8-1.3-3.1-2.6c-0.4-1.6,0.3-3.5,1.5-4.3
		c1.3-0.8,4.2-0.1,5,1.2c0.2,0.3,0.3,0.7,0,0.8c-0.3,0.2-0.8,0.3-1.1-0.2c-0.7-1.2-1.8-1.3-2.9-0.9c-0.9,0.3-1.3,1-1.4,2
		c-0.1,1.3,0.4,2.2,1.6,2.7c1,0.4,1.7-0.1,2.3-0.6C74,156.5,74.4,156.5,75.1,156.6z"/>
	<path class="st1" d="M49.7,155.1c0-0.4,0-0.7,0-1.1c0-0.1,0-0.2,0-0.3c0-0.1,0-0.2,0-0.3c0-0.2,0-0.4,0-0.6c0-0.3,0.1-0.7,0.3-0.9
		c0.6-0.7,2.2-0.2,3.3-0.2c0.4,0,1-0.4,1,0.5c0,0.8-0.6,0.7-1.1,0.7c-0.4,0-0.9,0-1.3,0c-0.7-0.1-1,0-1,0.9c0,0.9,0.4,0.9,1,0.8
		c0.5,0,1,0,1.4,0c0.3,0,0.7-0.2,0.7,0.4c0,0.5-0.1,0.8-0.6,0.8c-0.6,0-1.2,0.1-1.8,0c-0.8-0.1-0.7,0.4-0.7,0.9c0,0.4-0.3,1.1,0.7,1
		c0.7-0.1,1.4,0,2.2,0c0.3,0,0.5,0,0.5,0.4c0,0.4-0.2,0.5-0.6,0.5c-1.1,0-2.2,0-3.4,0c-0.6,0-0.7-0.2-0.7-0.7c0-0.4,0-0.8,0-1.2
		c0-0.5,0-0.9,0-1.4C49.7,155.3,49.7,155.2,49.7,155.1z"/>
	<path class="st1" d="M30.9,155.1c0-0.1,0-0.2,0-0.4c0-1-0.3-2.2,0.2-2.8c0.6-0.7,1.9-0.2,2.9-0.2c1.4,0,2.3,0.9,2.3,2.2
		c0,1.3-0.9,2.3-2.3,2.3c-0.2,0-0.4,0-0.6,0c-1.1-0.2-1.6,0.2-1.4,1.4c0,0.3,0.4,1.1-0.5,1c-0.9,0-0.5-0.7-0.5-1.1
		C30.9,156.8,30.9,156,30.9,155.1z M33.2,155.1c0.2,0,0.4,0,0.6,0c0.8,0.1,1.2-0.4,1.3-1.1c0-0.8-0.4-1.2-1.3-1.1
		c-0.4,0-0.8,0-1.2,0c-0.2,0-0.5-0.1-0.6,0.3C31.5,154.3,32.1,155.1,33.2,155.1z"/>
	<path class="st1" d="M24.9,158.7c0.1-0.3,0.1-0.6,0.2-0.7c1.4-1.6,0.5-2.9-0.3-4.3c-0.4-0.6-0.7-1.2-1-1.8c1.1-0.5,1.6,0,1.9,0.9
		c0.3,0.6,0.5,1.6,1.1,1.7c0.6,0.1,0.7-1,1-1.5c0.5-0.7,0.8-1.6,2-1.1c-1.1,2.1-2.2,4.2-3.3,6.4C26,159,25.5,158.6,24.9,158.7z"/>
	<path class="st1" d="M44.2,155.2c0-0.2,0-0.3,0-0.5c0.1-1-0.5-2.4,0.2-2.8c1-0.6,2.5-0.2,3.7-0.2c0.3,0,0.5,0.2,0.5,0.5
		c0,0.3,0,0.7-0.5,0.7c-0.1,0-0.2,0-0.4,0c-2.3,0.1-2.3,0.1-2.3,2.4c0,0.9,0,1.8,0,2.7c0,0.6-0.2,0.7-0.7,0.7
		c-0.5,0-0.6-0.2-0.6-0.6C44.2,157.1,44.2,156.2,44.2,155.2z"/>
	<path class="st1" d="M64.5,155.8c0-0.2,0-0.4,0-0.7c0-0.2,0-0.4,0-0.6c0-0.4,0-0.9,0-1.3c0-0.1,0-0.1,0-0.2
		c-0.1-0.1-0.1-0.1-0.2-0.1c-0.5,0-1,0-1.5,0c-0.4,0-0.4-0.4-0.4-0.6c0-0.4,0.1-0.7,0.6-0.6c1.4,0,2.8,0,4.2,0
		c0.4,0,0.6,0.2,0.5,0.6c0,0.2,0,0.7-0.3,0.7c-0.1,0-0.2,0-0.3,0c-0.2,0-0.3,0-0.5,0c-0.3,0-0.6,0-0.9,0c0,0.6,0,1.1,0,1.7
		c0.1,1.1,0,2.2,0,3.3c0,0.5,0,0.7-0.6,0.7c-0.6,0-0.6-0.4-0.6-0.8C64.5,157.2,64.5,156.5,64.5,155.8z"/>
	<path class="st1" d="M77.9,155.7c0-0.4,0-0.7,0-1.1c0.1-1.2,0-2.1-1.5-1.7c-0.4,0.1-0.7-0.1-0.6-0.6c0-0.4,0-0.7,0.6-0.7
		c1.4,0,2.8,0,4.2,0c0.5,0,0.6,0.2,0.6,0.6c0,0.4-0.1,0.7-0.6,0.6c-1.4-0.3-1.4,0.6-1.3,1.5c0,1.2,0,2.4,0,3.6
		c0,0.4-0.1,0.6-0.6,0.6c-0.4,0-0.6-0.1-0.6-0.6C77.9,157.3,77.9,156.5,77.9,155.7z"/>
	<path class="st1" d="M19.5,155.8c0-0.4,0-0.8,0-1.2c0.1-1.2,0-2-1.6-1.7c-0.4,0.1-0.6-0.1-0.6-0.6c0-0.4,0-0.7,0.6-0.7
		c1.4,0,2.8,0,4.2,0c0.5,0,0.6,0.2,0.6,0.7c0,0.4-0.1,0.7-0.6,0.6c-1.4-0.3-1.4,0.5-1.4,1.5c0.1,1.2,0,2.3,0,3.5
		c0,0.4,0.1,0.8-0.6,0.8c-0.6,0-0.6-0.3-0.6-0.7C19.5,157.3,19.5,156.6,19.5,155.8z"/>
</g>
</svg>
