<?xml version="1.0" encoding="utf-8"?>
<!-- Generator: Adobe Illustrator 27.7.0, SVG Export Plug-In . SVG Version: 6.00 Build 0)  -->
<svg version="1.1" id="b" xmlns="http://www.w3.org/2000/svg" xmlns:xlink="http://www.w3.org/1999/xlink" x="0px" y="0px"
	 viewBox="0 0 579.3 110.6" style="enable-background:new 0 0 579.3 110.6;" xml:space="preserve">
<style type="text/css">
	.st0{fill:#A1A1A1;}
	.st1{fill:#A1A1A1;stroke:#000000;stroke-width:0.22;stroke-miterlimit:2.41;}
</style>
<g id="c">
	<g>
		<path class="st0" d="M124.8,87.7H117V41.5h17.8c5.1,0,8.8,1.4,11.3,4.1c2.4,2.7,3.7,5.9,3.7,9.6c0,4.2-1.3,7.6-4,10.2
			c-2.6,2.6-6,3.9-10.1,3.9h-10.8L124.8,87.7C124.8,87.7,124.8,87.7,124.8,87.7z M124.8,62.3h9.3c2.4,0,4.2-0.6,5.5-1.9
			c1.3-1.3,1.9-2.9,1.9-5c0-1.9-0.6-3.5-1.8-4.9c-1.2-1.3-3.3-2-6.4-2h-8.6L124.8,62.3L124.8,62.3L124.8,62.3z M167.2,88.4
			c-4.8,0-8.4-1.8-10.9-5.4c-2.5-3.6-3.8-7.8-3.8-12.5c0-5.1,1.4-9.2,4.1-12.6c2.8-3.4,6.4-5,11-5c4.3,0,7.8,1.6,10.6,4.9
			c2.8,3.3,4.1,7.5,4.1,12.8s-1.4,9.7-4.3,13C175.3,86.7,171.6,88.4,167.2,88.4L167.2,88.4L167.2,88.4z M167.5,82
			c4.9,0,7.3-3.9,7.3-11.6c0-3.5-0.6-6.2-1.8-8.3c-1.2-2-3-3-5.4-3s-4.4,1-5.6,3.1c-1.2,2.1-1.8,4.9-1.8,8.3c0,3.7,0.6,6.6,1.9,8.5
			C163.5,81.1,165.2,82,167.5,82L167.5,82L167.5,82z M207.6,75.1l6.2,0.7c-0.8,4.3-2.4,7.4-4.7,9.5c-2.3,2.1-5.1,3.1-8.4,3.1
			c-4.4,0-7.8-1.7-10.2-5.2c-2.4-3.4-3.6-7.7-3.6-12.6s1.3-9.4,3.9-12.7c2.6-3.4,6.1-5,10.4-5c7,0,11.2,3.9,12.5,11.8l-6.2,0.9
			c-0.5-4.2-2.5-6.4-5.9-6.4c-2.4,0-4.2,1.1-5.4,3.4c-1.1,2.3-1.7,5-1.7,8.3c0,3.4,0.6,6.1,1.7,8c1.1,1.9,2.8,2.8,4.8,2.8
			C204.5,81.7,206.6,79.5,207.6,75.1L207.6,75.1L207.6,75.1z M237.9,75.1l6.2,0.7c-0.8,4.3-2.4,7.4-4.7,9.5
			c-2.3,2.1-5.1,3.1-8.4,3.1c-4.4,0-7.8-1.7-10.2-5.2c-2.4-3.4-3.6-7.7-3.6-12.6s1.3-9.4,3.9-12.7c2.6-3.4,6.1-5,10.4-5
			c7,0,11.2,3.9,12.5,11.8l-6.2,0.9c-0.5-4.2-2.5-6.4-5.9-6.4c-2.4,0-4.2,1.1-5.4,3.4c-1.1,2.3-1.7,5-1.7,8.3c0,3.4,0.6,6.1,1.7,8
			c1.1,1.9,2.8,2.8,4.8,2.8C234.8,81.7,236.9,79.5,237.9,75.1L237.9,75.1L237.9,75.1z M270.1,76.8l6.5,0.9c-0.9,3.1-2.5,5.6-5,7.6
			c-2.5,2-5.5,3-9.2,3c-4.5,0-8-1.6-10.7-4.8c-2.7-3.2-4.1-7.5-4.1-12.9s1.4-9.4,4.1-12.8c2.7-3.4,6.4-5.1,11.1-5.1s8.1,1.7,10.6,5
			c2.5,3.3,3.7,7.6,3.7,12.8l0,0.9h-22c0,2.3,0.2,4.2,0.6,5.6c0.4,1.4,1.2,2.6,2.5,3.7c1.2,1,2.8,1.6,4.6,1.6
			C266.5,82.3,268.9,80.5,270.1,76.8L270.1,76.8L270.1,76.8z M269.7,66.6c0-2.5-0.7-4.5-2.1-6c-1.4-1.5-3-2.3-5.1-2.3
			s-3.7,0.7-5,2.2s-2.1,3.5-2.4,6.2H269.7z M279,87.7l10.3-34.1h8.5l10,34.1h-7.6l-7.2-28.2l-8.1,28.2H279z M311.8,87.7V53.5h7.2V66
			h8.5c3.7,0,6.4,1.1,8.1,3.2c1.7,2.1,2.6,4.7,2.6,7.8c0,3.4-0.9,6.1-2.8,7.9s-4.5,2.8-7.9,2.8C327.5,87.7,311.8,87.7,311.8,87.7z
			 M319.1,81.7h7c1.8,0,3.1-0.4,3.8-1.1c0.8-0.8,1.2-2,1.2-3.7c0-3.5-1.7-5.3-5-5.3h-7V81.7C319.1,81.7,319.1,81.7,319.1,81.7z
			 M368,87.7h-8.3L353,75.2l-7.4,12.4h-6.2L350,70.1l-9.2-16.6h8.3l5.3,10l6-10h6.1l-9.1,14.8L368,87.7L368,87.7L368,87.7z
			 M384.1,88.4c-4.8,0-8.4-1.8-10.9-5.4c-2.5-3.6-3.8-7.8-3.8-12.5c0-5.1,1.4-9.2,4.1-12.6s6.4-5,11-5c4.3,0,7.8,1.6,10.6,4.9
			c2.8,3.3,4.1,7.5,4.1,12.8s-1.4,9.7-4.3,13S388.5,88.4,384.1,88.4L384.1,88.4L384.1,88.4z M384.4,82c4.9,0,7.3-3.9,7.3-11.6
			c0-3.5-0.6-6.2-1.8-8.3c-1.2-2-3-3-5.4-3s-4.4,1-5.6,3.1c-1.2,2.1-1.8,4.9-1.8,8.3c0,3.7,0.6,6.6,1.9,8.5
			C380.4,81,382.1,82,384.4,82L384.4,82L384.4,82z M412.9,72.7v-5.3c3.5,0,5.7-0.4,6.5-1.4c0.9-0.9,1.3-2,1.3-3.2
			c0-1.3-0.4-2.3-1.3-3.2c-0.9-0.8-2-1.2-3.6-1.2c-3.3,0-5.3,1.7-5.9,5.1l-6.6-1.2c1.4-6.3,5.8-9.5,13.1-9.5c3.9,0,6.9,0.9,9,2.6
			c2,1.8,3.1,4,3.1,6.7c0,3.4-2,5.9-5.9,7.4c4.6,1.3,6.9,4,6.9,8.2c0,3-1.1,5.6-3.3,7.6c-2.2,2-5.4,3-9.5,3c-7.6,0-12.3-3.5-14-10.4
			l6.7-1.2c0.9,4.1,3.1,6.1,6.6,6.1c1.8,0,3.2-0.5,4.3-1.4c1-1,1.5-2.2,1.5-3.9c0-1.2-0.4-2.2-1-3c-0.7-0.8-1.6-1.3-2.7-1.4
			C416.9,72.8,415.2,72.7,412.9,72.7L412.9,72.7L412.9,72.7z M436.1,87.7V41.5h29v8.3H446v10.1h7.3c3.8,0,6.8,0.4,9,1.2
			c2.2,0.8,4,2.3,5.4,4.4c1.4,2.2,2.1,4.9,2.1,8.1c0,4.4-1.3,7.9-3.8,10.4c-2.6,2.5-6.1,3.7-10.7,3.7L436.1,87.7L436.1,87.7z
			 M446,78.9h7.8c1.8,0,3.3-0.5,4.3-1.5c1-1,1.5-2.4,1.5-4c0-3.6-2.2-5.4-6.6-5.4h-7L446,78.9L446,78.9L446,78.9z M503.9,87.7h-9.2
			c-0.3-1.3-0.4-3.1-0.4-5.3c-1.6,2.4-3.2,4.1-4.8,4.9c-1.6,0.8-3.4,1.2-5.5,1.2c-3,0-5.4-0.9-7.3-2.6s-2.8-4.1-2.8-7
			c0-2.1,0.5-4.1,1.6-5.9c1.1-1.8,2.8-3.2,5.2-4.2c2.4-1,6.8-1.8,13.1-2.3v-2c0-3.3-1.6-5-4.7-5c-3.3,0-5.2,1.7-5.6,5l-8.7-0.9
			c0.6-3.9,2.3-6.6,5.2-8.2c2.9-1.6,6.1-2.4,9.8-2.4c2.2,0,4.2,0.3,6.2,0.8c1.9,0.5,3.4,1.3,4.5,2.4c1.1,1.1,1.8,2.2,2.2,3.4
			c0.4,1.2,0.6,3.3,0.6,6.3v15.5C503.3,84.2,503.4,86.4,503.9,87.7L503.9,87.7L503.9,87.7z M493.8,71.3c-6.6,0.7-10,2.8-10,6.4
			c0,1.2,0.4,2.2,1,3.1c0.7,0.9,1.7,1.3,3,1.3c1.7,0,3.1-0.7,4.2-2.2c1.1-1.5,1.7-3.3,1.7-5.5V71.3L493.8,71.3L493.8,71.3z
			 M511.1,87.7V53.5h9.5v12.3h9.9V53.5h9.5v34.1h-9.5V73.2h-9.9v14.5L511.1,87.7L511.1,87.7z M568.3,65.2l11,22.4h-9.9L562,72.4
			l-4.8,5.4v9.8h-9.5V53.5h9.5V62c0,1.4,0,3.4-0.1,6c0.7-1.2,1.6-2.3,2.7-3.5l9.7-11h8.8L568.3,65.2L568.3,65.2L568.3,65.2z"/>
		<g>
			<polygon class="st0" points="7.6,38.6 7.7,40.1 7.9,41.5 8.3,42.9 8.7,44.2 9.2,45.4 9.8,46.6 10.4,47.8 11.2,48.9 12,50 
				12.9,51.1 14.7,53.1 16.7,55 18.7,57 20.7,58.9 22.7,60.9 24.5,62.9 25.4,64 26.2,65 27,66.2 27.6,67.3 28.2,68.5 28.8,69.8 
				29.1,71.1 29.5,72.5 29.7,73.9 29.8,75.4 29.7,87.9 29.6,86.4 29.4,84.9 29.1,83.6 28.7,82.3 28.2,81 27.5,79.8 26.9,78.6 
				26.1,77.5 25.4,76.4 24.5,75.4 22.6,73.3 20.7,71.3 18.7,69.5 16.6,67.5 14.6,65.5 12.8,63.5 11.9,62.5 11.1,61.3 10.4,60.2 
				9.8,59.1 9.2,57.9 8.6,56.6 8.2,55.3 7.9,53.9 7.7,52.5 7.6,51 			"/>
			<polygon class="st0" points="5.6,54.4 5.7,56 5.9,57.5 6.3,58.9 6.7,60.3 7.3,61.7 8,62.9 8.7,64.2 9.5,65.3 10.4,66.5 
				11.3,67.6 13.3,69.8 15.5,71.8 17.7,73.9 19.9,75.9 22,78 24,80.2 25,81.3 25.9,82.4 26.7,83.6 27.4,84.9 28.1,86.1 28.6,87.5 
				29.1,88.9 29.5,90.3 29.7,91.8 29.8,93.4 29.7,106.6 29.6,105 29.4,103.5 29,102.1 28.6,100.7 28,99.4 27.3,98.1 26.6,96.8 
				25.8,95.7 24.9,94.5 24,93.4 22,91.2 19.8,89.1 17.6,87.1 15.4,85.1 13.3,83 11.3,80.8 10.3,79.7 9.4,78.5 8.6,77.3 7.9,76.1 
				7.2,74.8 6.7,73.5 6.2,72.1 5.9,70.7 5.7,69.2 5.5,67.6 			"/>
			<path class="st0" d="M46.4,16.3C20.8,16.3,0,37.5,0,63.4c0,25.9,20.8,47.2,46.4,47.2s46.4-21.2,46.4-47.2
				C92.8,37.5,72,16.3,46.4,16.3L46.4,16.3z M37.9,94.8v13.6c-1.6-0.3-3.2-0.7-4.7-1.2v-41h6.7c1.7,0,3,0.3,3.7,1
				c0.7,0.7,1,1.9,1,3.6v19.3c0,1.7-0.3,2.9-1,3.6c-1.1,1.1-3,1.1-4.7,1.1C38.6,94.8,38.2,94.8,37.9,94.8L37.9,94.8L37.9,94.8z
				 M46.4,109.2c-2.2,0-4.4-0.2-6.5-0.5V96.8c3.1,0,5.1-1.1,6.1-3.2v11.9c0,1.5,0.2,2.7,0.7,3.7C46.6,109.2,46.5,109.2,46.4,109.2
				L46.4,109.2L46.4,109.2z M59.2,81.1h-4.6V70.5h-2v35.7h2V83.1h4.6v22.4c0,0.7,0,1.3-0.2,1.8c-3.3,1-6.7,1.6-10.2,1.8
				c-0.8-0.9-0.9-2.4-0.9-3.6V71.2c0-1.8,0.4-3,1-3.7c0.7-0.7,1.9-1.1,3.6-1.1s4.3-0.2,5.6,1.1c0.7,0.7,1,2,1,3.7L59.2,81.1
				L59.2,81.1L59.2,81.1z M74,99.5c-1.6,1.2-3.2,2.4-4.9,3.4V83.3H67v20.8c-1.6,0.8-3.2,1.6-5,2.2V83.9c0-2.1,0.5-3.6,2.6-4.3
				l-2.3-12.7H67l0.8,13.9h0.6l0.8-13.9H74l-2.6,12.7c2.2,0.8,2.6,2.1,2.6,4.3L74,99.5L74,99.5L74,99.5z M61.2,79.5v-7.9l1.4,7.1
				C62,78.9,61.6,79.2,61.2,79.5L61.2,79.5z M75.7,80.8c-0.4-0.9-1-1.7-2.2-2.1l2.2-11.4V80.8L75.7,80.8L75.7,80.8z M91,69.8
				c0,0.2-0.1,0.4-0.1,0.6h-7.6v1.8h1.1c2.2-0.1,4.6-0.1,5.8,1.5c-1,4.3-2.6,8.4-4.7,12.1V76h-2.3v13.6c-1.5,2.2-3.2,4.3-5.1,6.2
				c-0.1,0.1-0.2,0.2-0.2,0.2V66.7h13L91,69.8L91,69.8L91,69.8z M59.9,64.9l0.5,2.3c-1-1.9-2.9-2.8-5.8-2.8h-2c-3.4,0-5.5,1.3-6.2,4
				c-0.7-2.8-2.9-4.2-6.4-4.2h-8.8v42.3c-6.3-2.3-11.9-6-16.5-10.7C6.5,87.5,1.4,76,1.4,63.4c0-12.6,5.1-24,13.2-32.3
				c8.2-8.3,19.4-13.4,31.8-13.4S70,22.8,78.2,31.1s13.2,19.7,13.2,32.3c0,0.5,0,1,0,1.4L59.9,64.9L59.9,64.9z M37.9,90.8h2V70.2h-2
				V90.8L37.9,90.8z"/>
			<path class="st0" d="M90.8,47.2H61.6c-0.3-0.7-0.7-1.2-1.3-1.2s-1,0.5-1.3,1.2h-1c-0.3-0.7-0.7-1.2-1.3-1.2s-1,0.5-1.3,1.2h-0.8
				c0.6-0.8,1-1.9,1-3c0-3-2.1-5.3-5.3-5.3s-5.8,2.4-5.8,5.3c0,1.3,1,2.6,1.3,3.5c-0.5,0.1-0.9,0.6-0.9,1.2c0,0.6,0.5,1.1,1,1.2
				c-0.3,1.1-1.5,2-1.5,3.8c0,3,2.6,5.3,5.8,5.3s5.3-2.4,5.3-5.3c0-1.1-0.4-2.1-1-3h0.8c0.3,0.7,0.7,1.2,1.3,1.2s1-0.5,1.3-1.2h1
				c0.3,0.7,0.7,1.2,1.3,1.2s1-0.5,1.3-1.2h21.5V52h-1v2.4h1l0.9,1.3l-2-0.3v3.2h2v-1.5h2.9v1.5h2v-3.2l-2,0.3l0.9-1.3h1V52h-1v-1.2
				h3c0.8,0,1.4-0.6,1.4-1.4v-0.9C92.2,47.8,91.6,47.2,90.8,47.2L90.8,47.2L90.8,47.2z M51.3,46.8c0.9,0,1.7,1,1.7,2.2
				s-0.7,2.1-1.7,2.2l-0.5,1.2c1.3,0,2.7,0.2,2.7,1.7c0,1.8-1.2,3.3-3.2,3.3s-3.7-1.5-3.7-3.3c0-1.4,0.5-1.6,1.9-2.1L48.2,51
				l0.9-0.8c-0.5-0.2-0.9-0.7-0.9-1.3s0.4-1.1,0.9-1.3L48.3,47l0.3-0.9c-1.4-0.5-1.9-0.7-1.9-2.1c0-1.8,1.7-3.3,3.7-3.3
				s3.2,1.5,3.2,3.3c0,1.5-1.2,1.7-2.7,1.7L51.3,46.8L51.3,46.8L51.3,46.8z"/>
			<polygon class="st0" points="30.5,55.7 30.5,63 41.4,52.3 41.4,45.1 			"/>
			<polygon class="st0" points="30.5,29 30.5,36.3 41.4,25.6 41.4,18.3 			"/>
			<polygon class="st0" points="30.5,37.9 30.5,45.2 41.4,34.5 41.4,27.2 			"/>
			<polygon class="st0" points="30.5,46.8 30.5,54.1 41.4,43.4 41.4,36.2 			"/>
			<polygon class="st0" points="29.5,55.7 29.5,63 18.5,52.3 18.5,45.1 			"/>
			<polygon class="st0" points="29.5,29 29.5,36.3 18.5,25.6 18.5,18.3 			"/>
			<polygon class="st0" points="29.5,37.9 29.5,45.2 18.5,34.5 18.5,27.2 			"/>
			<polygon class="st0" points="29.5,46.8 29.5,54.1 18.5,43.4 18.5,36.2 			"/>
			<g>
				<polygon class="st1" points="22.9,0.1 22.2,0.1 22.2,14.3 22.9,14.3 				"/>
				<polygon class="st1" points="26.6,0.1 25.9,0.1 25.9,17.1 26.6,17.1 				"/>
				<polygon class="st1" points="30.3,0.1 29.6,0.1 29.6,19.8 30.3,19.8 				"/>
				<polygon class="st1" points="34.1,0.1 33.4,0.1 33.4,17.5 34.1,17.5 				"/>
				<polygon class="st1" points="37.8,0.1 37.1,0.1 37.1,14.7 37.8,14.7 				"/>
				<polygon class="st1" points="41.3,0.1 40.6,0.1 40.6,12.1 41.3,12.1 				"/>
				<polygon class="st1" points="19.4,0.1 18.7,0.1 18.7,12 19.4,12 				"/>
			</g>
			<polygon class="st0" points="30.5,20.1 30.5,27.4 41.4,16.7 41.4,9.4 			"/>
			<polygon class="st0" points="29.5,20.1 29.5,27.4 18.5,16.7 18.5,9.4 			"/>
		</g>
	</g>
</g>
</svg>
