<svg width="1108" height="1119" viewBox="0 0 1108 1119" fill="none" xmlns="http://www.w3.org/2000/svg">
<g filter="url(#filter0_f_719_9902)">
<g filter="url(#filter1_f_719_9902)">
<path d="M268.678 809.827C339.661 750.635 403.379 719.299 438.192 681.307C474.82 655.536 466.075 634.22 491.089 602.353C530.545 551.582 585.072 503.456 628.45 576.002C671.031 683.84 669.64 782.327 622.169 826.877C583.609 871 524.136 882.388 461.439 872.031C389.133 868.311 272.837 862.169 268.678 809.827Z" fill="#00D1FF"/>
</g>
<g filter="url(#filter2_f_719_9902)">
<path d="M676.178 934.87C588.23 847.891 525.426 683.064 470.656 641.717C431.472 596.136 405.158 611.035 359.872 581.993C287.782 536.257 216.774 469.832 304.205 400.787C437.586 327.656 565.692 315.134 630.956 372.577C694.272 418.077 737.678 504.075 734.019 590.056C740.48 688.014 743.496 921.615 676.178 934.87Z" fill="#2346FA"/>
</g>
<g opacity="0.7" filter="url(#filter3_f_719_9902)">
<path d="M198.549 386.103C362.797 405.641 471.738 450.008 568.118 448.56C644.443 464.516 674.733 426.897 752.053 420.233C874.91 409.1 1005.77 420.838 914.134 566.591C759.499 754.745 584.39 874.153 465.779 867.198C355.419 871.314 285.279 807.921 250.833 713.566C196.582 614.872 109.607 455.94 198.549 386.103Z" fill="#B11CBC"/>
</g>
</g>
<defs>
<filter id="filter0_f_719_9902" x="60.332" y="236.53" width="984.535" height="798.34" filterUnits="userSpaceOnUse" color-interpolation-filters="sRGB">
<feFlood flood-opacity="0" result="BackgroundImageFix"/>
<feBlend mode="normal" in="SourceGraphic" in2="BackgroundImageFix" result="shape"/>
<feGaussianBlur stdDeviation="50" result="effect1_foregroundBlur_719_9902"/>
</filter>
<filter id="filter1_f_719_9902" x="168.676" y="439.055" width="590.465" height="536.54" filterUnits="userSpaceOnUse" color-interpolation-filters="sRGB">
<feFlood flood-opacity="0" result="BackgroundImageFix"/>
<feBlend mode="normal" in="SourceGraphic" in2="BackgroundImageFix" result="shape"/>
<feGaussianBlur stdDeviation="50" result="effect1_foregroundBlur_719_9902"/>
</filter>
<filter id="filter2_f_719_9902" x="113.754" y="186.53" width="773.43" height="898.34" filterUnits="userSpaceOnUse" color-interpolation-filters="sRGB">
<feFlood flood-opacity="0" result="BackgroundImageFix"/>
<feBlend mode="normal" in="SourceGraphic" in2="BackgroundImageFix" result="shape"/>
<feGaussianBlur stdDeviation="75" result="effect1_foregroundBlur_719_9902"/>
</filter>
<filter id="filter3_f_719_9902" x="108.332" y="334.104" width="888.535" height="585.383" filterUnits="userSpaceOnUse" color-interpolation-filters="sRGB">
<feFlood flood-opacity="0" result="BackgroundImageFix"/>
<feBlend mode="normal" in="SourceGraphic" in2="BackgroundImageFix" result="shape"/>
<feGaussianBlur stdDeviation="26" result="effect1_foregroundBlur_719_9902"/>
</filter>
</defs>
</svg>
