<?xml version="1.0" encoding="UTF-8"?>
<svg id="b" data-name="Слой 2" xmlns="http://www.w3.org/2000/svg" viewBox="0 0 192.85 53">
  <defs>
    <style>
      .e {
        fill: #828282;
        fill-rule: evenodd;
      }
    </style>
  </defs>
  <g id="c" data-name="Слой 1">
    <g id="d" data-name="2gis">
      <path class="e" d="m26.58,53C11.9,53,0,41.15,0,26.48S11.9,0,26.58,0s26.62,11.85,26.62,26.48-11.93,26.52-26.62,26.52h0Zm-.04-44.7c-9.14,0-15.31,7-15.31,14.59,0,3.04.63,5.67,2.19,8.96,9.07,0,10.74,6.07,11.11,10.07l.3,2.81h3.46l.3-2.78c.37-4.04,2.04-10.11,11.11-10.11,1.56-3.3,2.23-5.93,2.23-8.96,0-7.59-6.21-14.59-15.39-14.59h0Z"/>
      <path class="e" d="m77.06,8.3c-8.66,0-15.09,5.22-15.05,14.37h7.99c-.11-3.67,2.23-7.22,7.06-7.22,3.64,0,5.95,2.48,5.95,5.56s-2.53,4.96-6.62,6.96c-5.39,2.59-8.59,3.78-14.39,5.74v10.52h28.77v-7.19h-17.95c2.79-1.15,5.5-2.44,7.92-3.63,6.51-3.07,10.3-6.56,10.3-12.78,0-7.56-5.65-12.33-13.98-12.33h0Zm26.43,7.7h16.62v-7.19h-24.35v35.41h7.73v-28.22h0Zm28.29-7.19h-7.81v35.41h7.73l14.46-22.63v22.63h7.77V8.81h-7.77l-14.39,22.63V8.81h0Zm61.07,22.11h-8.03c-1.23,3.93-4.94,6.67-9.33,6.67-6.36,0-10.48-5.52-10.48-11.07s4.01-11.07,10.71-11.07c4.46,0,7.88,2.74,9.11,6.67h8.03c-1.19-7.93-7.43-13.81-17.36-13.81-10.93,0-18.25,7.67-18.25,18.22s7.32,18.22,18.29,18.22c9.89,0,16.13-5.78,17.32-13.81h0Z"/>
    </g>
  </g>
</svg>