<?xml version="1.0" encoding="utf-8"?>
<!-- Generator: Adobe Illustrator 27.7.0, SVG Export Plug-In . SVG Version: 6.00 Build 0)  -->
<svg version="1.1" id="Слой_1" xmlns="http://www.w3.org/2000/svg" xmlns:xlink="http://www.w3.org/1999/xlink" x="0px" y="0px"
	 viewBox="0 0 195 40" style="enable-background:new 0 0 195 40;" xml:space="preserve">
<style type="text/css">
	.st0{fill:#FF5200;}
</style>
<g>
	<path class="st0" d="M51.4,12.7c3.2,0,4.5,2.1,4.8,2.6h2.9c-0.2-1.2-1.8-5.4-7.7-5.4c-4.6,0-8.3,3.7-8.3,8.4c0,4.8,3.7,8.6,8.3,8.6
		c5.8,0,7.5-4.5,7.7-5.5h-2.9c-0.3,0.6-1.5,2.8-4.8,2.8c-3.1,0-5.2-2.6-5.2-5.8S48.3,12.7,51.4,12.7z"/>
	<polygon class="st0" points="80.7,13 87.3,13 87.3,26.5 90.4,26.5 90.4,13 97,13 97,10.3 80.7,10.3 	"/>
	<path class="st0" d="M26.6,4.3L8.9,0.9C4.3,0,0,3.5,0,8.3v19.3c0,4.8,4.3,8.3,8.9,7.4l17.6-3.4c2.6-0.5,4.6-2.8,4.6-5.5V9.6
		C31.2,7,29.3,4.7,26.6,4.3z M10.7,25.8l13.2-2v2.9l-12.6,2c-2.5,0.3-4.6-1.5-4.6-4V11.8c0-2.5,2.1-4.3,4.6-4l12.4,2l0.2,2.9l-13-2
		c-0.6-0.2-1.2,0.3-1.2,0.9v13C9.7,25.3,10.3,25.8,10.7,25.8z"/>
	<polygon class="st0" points="65.7,22.5 65.7,10.3 62.6,10.3 62.6,26.5 65.7,26.5 75,14.3 75,26.5 78.1,26.5 78.1,10.3 75,10.3 	"/>
	<polygon class="st0" points="102.7,22.5 102.7,10.3 99.6,10.3 99.6,26.5 102.7,26.5 112,14.3 112,26.5 115.1,26.5 115.1,10.3 
		112,10.3 	"/>
	<polygon class="st0" points="184.9,18.1 194.6,10.3 190.3,10.3 181.7,17.3 181.7,10.3 178.8,10.3 178.8,26.5 181.7,26.5 
		181.7,19.2 190.8,26.5 195.1,26.5 	"/>
	<polygon class="st0" points="171.1,17 162.1,17 162.1,10.3 159,10.3 159,26.5 162.1,26.5 162.1,19.6 171.1,19.6 171.1,26.5 
		174.2,26.5 174.2,10.3 171.1,10.3 	"/>
	<polygon class="st0" points="142,22.5 142,10.3 138.9,10.3 138.9,26.5 142,26.5 151.3,14.3 151.3,26.5 154.4,26.5 154.4,10.3 
		151.3,10.3 	"/>
	<path class="st0" d="M121.2,19.3c-0.5,3.7-0.9,4.8-3.1,4.8h-0.5v2.8h0.9c3.5,0,4.8-2.3,5.2-7.4l0.6-6.4h6.8v13.5h3.1V10.3h-12.1
		L121.2,19.3z"/>
</g>
<path class="st0" d="M44,32.4h2.5c0.9,0,1.7,0.3,1.7,1.2c0,0.6-0.3,0.9-0.6,1.1c0.3,0.2,0.8,0.5,0.8,1.1c0,0.8-0.6,1.4-1.7,1.4H44
	V32.4z M45,33.1v1.2h1.5c0.5,0,0.8-0.3,0.8-0.6c0-0.5-0.2-0.6-0.8-0.6H45z M45,35.1v1.2h1.7c0.5,0,0.8-0.3,0.8-0.8
	c0-0.3-0.3-0.5-0.8-0.5H45z M51.7,33c-0.9,0-1.5,0.8-1.5,1.7c0,0.9,0.6,1.7,1.5,1.7c0.9,0,1.2-0.6,1.4-0.8h0.8
	c0,0.3-0.5,1.7-2.1,1.7c-1.4,0-2.5-1.1-2.5-2.6c0-1.4,1.1-2.5,2.5-2.5c1.7,0,2.1,1.2,2.1,1.5h-0.8C52.9,33.7,52.6,33,51.7,33
	 M59.5,34.8h-3.8c0,0.9,0.6,1.5,1.5,1.5c0.9,0,1.4-0.5,1.4-0.6h0.9c-0.2,0.5-0.8,1.5-2.3,1.5c-1.4,0-2.5-1.2-2.5-2.6
	s0.9-2.5,2.3-2.5C58.6,32.2,59.5,33.3,59.5,34.8 M55.7,34.1h2.9c-0.2-0.6-0.8-1.1-1.4-1.1C56.5,33,55.9,33.4,55.7,34.1 M63.7,32.4
	h3.5v4.8h-0.8v-4h-2L64.3,35c-0.2,1.5-0.6,2.1-1.5,2.1h-0.3v-0.8h0.2c0.6,0,0.8-0.3,0.9-1.4L63.7,32.4z M70.3,37l-2.1-4.6h1.1
	l1.5,3.5l1.7-3.5h0.9l-3.2,6.9h-0.8L70.3,37z M77.5,35.3l-1.4,0.2c-1.2,0-2-0.5-2-1.8v-1.2H75v1.1c0,0.8,0.2,1.2,1.1,1.2l1.4-0.2
	v-2.1h0.9v4.8h-0.9V35.3z M80.9,32.4v4H83v-4h0.9v4h2.1v-4H87v4.8H80v-4.8H80.9z M93,34.8h-3.8c0,0.9,0.6,1.5,1.5,1.5
	c0.9,0,1.4-0.5,1.4-0.6H93c0,0.5-0.6,1.5-2.3,1.5c-1.4,0-2.5-1.2-2.5-2.6s1.1-2.5,2.5-2.5C92.1,32.2,93,33.3,93,34.8 M89.2,34.1h2.9
	c-0.3-0.8-1.1-1.2-1.9-1C89.7,33.2,89.3,33.6,89.2,34.1 M98.8,34.8h-4c0,0.9,0.6,1.5,1.5,1.5c1.1,0,1.4-0.5,1.4-0.6h0.9
	c0,0.5-0.6,1.5-2.3,1.5c-1.4,0-2.5-1.2-2.5-2.6s1.1-2.5,2.5-2.5C97.8,32.2,98.8,33.3,98.8,34.8 M94.8,34.1h2.9
	C97.6,33.4,97,33,96.4,33C95.6,33,95,33.4,94.8,34.1 M101.4,38.5v-2.1h0.6c0.3-0.5,0.5-1.1,0.6-2.3l0.2-1.7h3.5v4h0.9v2.1h-0.8v-1.4
	h-4.3v1.4H101.4z M105.4,33.1h-1.8l-0.2,1.1c-0.2,1.1-0.3,1.7-0.6,2.1h2.6V33.1z M109.1,32.4h3.5v4.8h-0.9v-4h-2l-0.2,1.8
	c-0.2,1.5-0.5,2.1-1.5,2.1h-0.3v-0.8h0.2c0.6,0,0.8-0.3,0.9-1.4L109.1,32.4z M117.3,37.1v-1.7h-1.4l-1.1,1.7h-1.1l1.2-1.8
	c-0.8-0.2-1.1-0.8-1.1-1.5c0-0.8,0.5-1.4,1.7-1.4h2.6v4.8H117.3z M117.3,34.5v-1.4h-1.5c-0.6,0-0.9,0.3-0.9,0.8s0.3,0.8,0.8,0.8h1.7
	V34.5z M123.4,33.1h-2v-0.8h4.8v0.8h-1.8v4h-0.9V33.1z M131.5,34.8h-4c0.2,0.9,0.8,1.5,1.7,1.5s1.4-0.5,1.4-0.6h0.9
	c-0.2,0.5-0.8,1.5-2.3,1.5c-1.5,0-2.6-1.2-2.6-2.6s1.1-2.5,2.5-2.5C130.5,32.2,131.5,33.3,131.5,34.8 M127.7,34.1h2.9
	c-0.3-0.6-0.8-1.1-1.5-1.1C128.3,33,127.8,33.4,127.7,34.1 M137.5,34.8c0,1.4-1.1,2.5-2.6,2.5c-1.4,0-2.5-1.1-2.5-2.6l0.2-1.5
	c0.2-1.5,0.8-2.5,2.6-2.8l1.8-0.3v0.8l-1.8,0.3c-1.2,0.2-1.7,0.8-1.8,2.1c0.3-0.5,0.9-0.9,1.7-0.9C136.4,32.4,137.5,33.3,137.5,34.8
	 M136.6,34.8c0-0.9-0.6-1.5-1.7-1.5s-1.5,0.6-1.5,1.5c0,0.9,0.6,1.5,1.7,1.5C136,36.4,136.6,35.7,136.6,34.8 M141.8,37.1v-1.7h-1.4
	l-1.2,1.7h-0.9l1.2-1.8c-0.8-0.2-1.1-0.8-1.1-1.5c0-0.8,0.5-1.4,1.7-1.4h2.6v4.8H141.8z M141.8,34.5v-1.4h-1.7
	c-0.5,0-0.8,0.3-0.8,0.8s0.3,0.8,0.8,0.8h1.7V34.5z"/>
</svg>
