<?xml version="1.0" encoding="UTF-8"?>
<svg id="b" data-name="Слой 2" xmlns="http://www.w3.org/2000/svg" viewBox="0 0 172.77 43">
  <defs>
    <style>
      .e {
        fill: #828282;
        fill-rule: evenodd;
      }
    </style>
  </defs>
  <g id="c" data-name="Слой 1">
    <g id="d" data-name="mts">
      <path class="e" d="m15.36,0c-3.21,0-7.01,3.08-10.14,8.26C1.95,13.63,0,20.27,0,26.04c0,8.44,4.74,16.96,15.36,16.96s15.36-8.52,15.36-16.96c0-5.77-1.95-12.41-5.2-17.78C22.35,3.08,18.55,0,15.36,0Z"/>
      <polygon class="e" points="98.29 12.67 109.04 12.67 109.04 40.7 120.55 40.7 120.55 12.67 131.3 12.67 131.3 2.3 98.29 2.3 98.29 12.67 98.29 12.67"/>
      <path class="e" d="m155.87,12.67h16.89V2.3h-16.89c-15.52,0-23.81,7.72-23.81,19.2s8.29,19.2,23.81,19.2h16.89v-10.37h-16.89c-7.18,0-11.9-2.57-11.9-8.83s4.72-8.83,11.9-8.83Z"/>
      <polygon class="e" points="74.86 2.3 68.72 25.22 62.58 2.3 42.23 2.3 42.23 40.7 53.75 40.7 53.75 9.47 62.12 40.7 75.32 40.7 83.7 9.45 83.7 40.7 95.21 40.7 95.21 2.3 74.86 2.3"/>
    </g>
  </g>
</svg>