<?xml version="1.0" encoding="UTF-8"?>
<svg id="b" data-name="Слой 2" xmlns="http://www.w3.org/2000/svg" viewBox="0 0 239.66 73">
  <defs>
    <style>
      .e {
        fill: #828282;
        fill-rule: evenodd;
      }
    </style>
  </defs>
  <g id="c" data-name="Слой 1">
    <g id="d" data-name="s7">
      <path class="e" d="m121.49,17.42h6.49v5.47h-6.49v-5.47h0Zm0,8.71h6.49v23.07h-6.49v-23.07h0Z"/>
      <path class="e" d="m137.69,29.78h.1c1.56-2.59,3.17-3.94,6.05-3.94.68,0,1.12,0,1.51.14v5.37h-.15c-4.2-.42-7.32,1.71-7.32,6.58v11.26h-6.39v-23.11h6.2v3.71h0Z"/>
      <path class="e" d="m157.85,17.42h6.49v5.47h-6.49v-5.47h0Zm0,8.71h6.49v23.07h-6.49v-23.07h0Z"/>
      <path class="e" d="m174.15,29.23h.15c1.66-2.45,3.9-3.75,7.27-3.75,5.03,0,8.4,3.57,8.4,8.62v15.1h-6.44v-14.22c0-2.45-1.51-4.22-4.25-4.22-2.88,0-4.98,2.18-4.98,5.28v13.15h-6.39v-23.11h6.3v3.15h-.05Z"/>
      <path class="e" d="m192.56,37.61c0-6.86,4.83-12.14,12.01-12.14,7.86,0,12.01,5.65,12.01,13.9h-17.67c.49,3.57,2.59,5.79,6.25,5.79,2.49,0,3.95-1.07,4.69-2.87h6.39c-.93,4.17-4.73,7.6-11.03,7.6-8.1,0-12.64-5.33-12.64-12.27h0Zm6.44-2.45h10.84c-.2-2.92-2.25-5-5.17-5-3.42,0-5.08,1.99-5.66,5h0Z"/>
      <path class="e" d="m218.03,41.73h5.95c.39,2.69,2.39,3.84,5.32,3.84s4.49-1.02,4.49-2.69c0-2.22-3.12-2.45-6.44-3.06-4.39-.83-8.64-1.95-8.64-6.95s4.34-7.41,9.91-7.41c6.44,0,9.96,2.96,10.45,7.64h-5.81c-.29-2.5-1.95-3.38-4.73-3.38-2.54,0-4.2.88-4.2,2.59,0,1.99,3.22,2.13,6.74,2.83,4.1.83,8.59,1.9,8.59,7.27,0,4.68-4.2,7.46-10.25,7.46-7.08,0-11.03-3.24-11.37-8.15h0Z"/>
      <path class="e" d="m106.31,17.42h-7.57l-13.52,31.78h7.66l2.49-6.48h13.86l2.59,6.48h7.71l-13.23-31.78h0Zm-9.08,19.87l4.98-13.53,5.13,13.53h-10.1Z"/>
      <polygon class="e" points="147.85 49.19 147.85 17.42 154.34 17.42 154.34 49.19 147.85 49.19 147.85 49.19"/>
      <path class="e" d="m76.92,36.5c0,20.2-17.18,36.5-38.46,36.5S0,56.7,0,36.5,17.18,0,38.46,0s38.46,16.3,38.46,36.5h0Zm-41.24-19.08h5.47l-2.68,6.3h-3.76c-4,0-6.59.05-7.96.46-1.37.42-2.39.88-2.98,1.67-.49.6-.68,1.44-.68,2.18s.1,1.48.88,2.41c1.07.93,2.68,2.13,5.81,3.98,6.35,3.8,8.2,6.76,8.2,10.65,0,6.35-6.3,12.41-16.94,12.41-3.17,0-7.61-.46-9.47-1.02l-.98-.28c.34-1.2,1.61-4.54,2.15-5.93l1.03.23c2.05.51,5.32.79,7.47.79,6.25,0,8.64-2.69,8.64-5,0-2.13-1.22-3.29-7.42-6.81-5.76-3.43-7.71-6.35-7.71-10.42,0-4.86,3.27-8.57,8.05-10.33,2.88-1.02,6.83-1.3,12.89-1.3h0Zm28.31,0c.93,0,1.07.56.73,1.2-1.22,2.92-12.84,30.52-12.84,30.52h-7.81s9.23-22.19,10.74-25.48c-1.03,0-1.85.05-6.1.05h-6.25l2.68-6.3h18.84Z"/>
    </g>
  </g>
</svg>