<?xml version="1.0" encoding="UTF-8"?>
<svg id="b" data-name="Слой 2" xmlns="http://www.w3.org/2000/svg" viewBox="0 0 172.64 83">
  <defs>
    <style>
      .n {
        fill: #828282;
      }
    </style>
  </defs>
  <g id="c" data-name="Слой 1">
    <g id="d" data-name="gazprom">
      <path id="e" data-name="path26" class="n" d="m53.32,54.27h10.96v3.58h-5.21v25.15h-5.74v-28.73"/>
      <path id="f" data-name="path28" class="n" d="m70.78,72.21l.98-14.37h.33l.98,14.37h-2.3Zm-6.36,10.79h5.62l.53-7.63h2.71l.53,7.63h5.62l-3-28.73h-9.03l-3,28.73"/>
      <path id="g" data-name="path30" class="n" d="m87.66,72.94v5.42c0,.73.57.94.9.94.54,0,.92-.45.92-.94v-6.69c0-.89-.16-1.88-2.31-1.88h-2.33v-3.16h2.43c1.63,0,2.21-.38,2.21-2.14v-5.7c0-.49-.38-.94-.92-.94-.33,0-.9.19-.9.94v4.69h-5.75v-4.07c0-2,.24-5.13,4.26-5.13h4.76c4.03,0,4.29,3.13,4.29,5.13v4.59c0,3.13-2.19,3.98-3.91,3.91v.28c3.86-.09,3.91,2.87,3.91,3.89v5.79c0,2.03-.26,5.13-4.29,5.13h-4.76c-4.03,0-4.26-3.11-4.26-5.13v-4.92h5.75"/>
      <path id="h" data-name="path32" class="n" d="m98.99,54.27h13.31v28.73h-5.75v-25.15h-1.81v25.15h-5.75v-28.73"/>
      <path id="i" data-name="path34" class="n" d="m121.81,70.07v-12.22h.75c.61,0,1.06.52,1.06,1.44v9.35c0,.92-.45,1.44-1.06,1.44h-.75Zm-5.75,12.93h5.75v-9.77h3.3c4,0,4.26-3.11,4.26-5.13v-8.69c0-2-.26-5.13-4.26-5.13h-9.04v28.73"/>
      <path id="j" data-name="path36" class="n" d="m140.7,78.36c0,.49-.38.94-.92.94-.33,0-.9-.21-.9-.94v-19.57c0-.75.57-.94.9-.94.54,0,.92.45.92.94v19.57Zm-7.56-.49c0,2.03.26,5.13,4.26,5.13h4.78c4,0,4.26-3.11,4.26-5.13v-18.47c0-2-.26-5.13-4.26-5.13h-4.78c-4,0-4.26,3.13-4.26,5.13v18.47"/>
      <path id="k" data-name="path38" class="n" d="m165.15,54.27h7.49v28.73h-5.75v-18.02h-.21l-2.97,18.02h-4.59l-2.94-18.02h-.21v18.02h-5.75v-28.73h7.47l3.74,20.21,3.72-20.21"/>
      <path id="l" data-name="path40" class="n" d="m45.88,14.98c-1.76-7.7-6.17-13.97-6.78-14.98-.96,1.44-4.48,6.97-6.27,13.1-1.95,6.85-2.24,12.93-1.57,18.89.67,5.98,3.2,12.13,3.2,12.13,1.34,3.2,3.35,6.67,4.66,8.36,1.92-2.5,6.33-9.94,7.71-19.64.77-5.42.8-10.15-.96-17.85Zm-6.78,35.56c-.86-1.63-2.21-4.71-2.33-9.52-.03-4.62,1.82-8.6,2.36-9.42.48.82,2.08,4.29,2.27,9.02.13,4.62-1.41,8.27-2.3,9.92Zm6.27-22.49c-.07,2.94-.42,6.05-.86,7.91.16-3.2-.22-7.7-.96-11.23-.73-3.51-2.81-9.4-4.47-12.11-1.53,2.59-3.42,7.68-4.41,12.08-.99,4.4-1.02,9.75-1.02,11.35-.26-1.34-.92-6.17-.74-11,.16-3.98,1.09-8.1,1.6-9.99,1.95-6.29,4.16-10.32,4.57-10.95.41.64,3.19,5.61,4.64,10.81,1.43,5.21,1.72,10.2,1.66,13.12"/>
      <path id="m" data-name="path42" class="n" d="m42.08,54.27h-13.38v8.97s.02-.02.03-.02c3.15-3.16,8.26-3.16,11.42,0,3.15,3.13,3.15,8.24,0,11.4-.01.02-.03.02-.04.05h0s-.03.02-.05.05c-3.14,3.11-7.25,4.66-11.36,4.66s-8.25-1.56-11.4-4.71c-5.55-5.54-6.21-14.13-1.98-20.4.57-.85,1.23-1.65,1.98-2.4,3.15-3.16,7.27-4.71,11.4-4.71v-21.57C12.85,25.58,0,38.41,0,54.27s12.85,28.71,28.71,28.71c8.27,0,15.71-3.51,20.95-9.09v-19.62h-7.58"/>
    </g>
  </g>
</svg>