<svg width="64" height="59" viewBox="0 0 64 59" fill="none" xmlns="http://www.w3.org/2000/svg">
<path opacity="0.5" d="M37.4088 42.4885C45.732 34.1653 45.732 20.6707 37.4088 12.3475C29.0856 4.02426 15.591 4.02426 7.26777 12.3475C-1.05544 20.6707 -1.05544 34.1653 7.26776 42.4885C15.591 50.8117 29.0856 50.8117 37.4088 42.4885Z" fill="white"/>
<path d="M62.2466 56.2247C60.9482 58.0307 58.3975 58.3602 56.6772 56.9563L39.6197 43.0296L38.084 41.7773C38.6311 41.1973 39.1451 40.5579 39.6262 39.8923C40.1074 39.2266 40.549 38.5412 40.9312 37.8359L42.6054 38.8971L61.192 50.7082C63.0639 51.9011 63.5516 54.4254 62.2466 56.2247Z" fill="#0100FF"/>
<path d="M62.2466 56.2247C60.9482 58.0307 58.3975 58.3602 56.6772 56.9563L39.6197 43.0296L38.084 41.7773C38.6311 41.1973 39.1451 40.5579 39.6262 39.8923C40.1074 39.2266 40.549 38.5412 40.9312 37.8359L42.6054 38.8971L61.192 50.7082C63.0639 51.9011 63.5516 54.4254 62.2466 56.2247Z" fill="black" fill-opacity="0.2"/>
<path opacity="0.5" d="M13.7049 26.2351V56.5406C13.7049 57.2854 13.0985 57.8917 12.3538 57.8917H8.03667C7.2853 57.8917 6.68555 57.2854 6.68555 56.5406V26.2351C6.68555 25.4904 7.2853 24.8906 8.03667 24.8906H12.3538C13.0985 24.8906 13.7049 25.4904 13.7049 26.2351Z" fill="#F0F0FF"/>
<path d="M23.9139 19.8759V56.5416C23.9139 57.2864 23.3075 57.8928 22.5628 57.8928H18.2457C17.4943 57.8928 16.8945 57.2864 16.8945 56.5416V19.8759C16.8945 19.1311 17.4943 18.5312 18.2457 18.5312H22.5628C23.3075 18.5312 23.9139 19.131 23.9139 19.8759Z" fill="#0100FF"/>
<path d="M23.9139 19.8759V56.5416C23.9139 57.2864 23.3075 57.8928 22.5628 57.8928H18.2457C17.4943 57.8928 16.8945 57.2864 16.8945 56.5416V19.8759C16.8945 19.1311 17.4943 18.5312 18.2457 18.5312H22.5628C23.3075 18.5312 23.9139 19.131 23.9139 19.8759Z" fill="black" fill-opacity="0.2"/>
<path opacity="0.5" d="M34.123 32.7216V56.5415C34.123 57.2862 33.5166 57.8926 32.7719 57.8926H28.4548C27.7034 57.8926 27.1035 57.2862 27.1035 56.5415V32.7216C27.1035 31.9768 27.7033 31.377 28.4548 31.377H32.7719C33.5168 31.3771 34.123 31.9768 34.123 32.7216Z" fill="#F0F0FF"/>
<path d="M61.5438 50.154C61.5438 50.154 61.5438 50.154 61.5438 50.1536L41.8084 37.6133C46.8018 28.0942 44.1704 16.0721 35.2067 9.60121C35.2067 9.60084 35.2067 9.60084 35.2067 9.60084C25.3827 2.50871 11.6188 4.73159 4.52704 14.5557C-1.73183 23.2253 -0.699084 34.7167 6.02479 42.1388V56.541C6.02479 57.6487 6.92592 58.5498 8.03367 58.5498H12.3525C13.4603 58.5498 14.3614 57.6487 14.3614 56.541V47.8903C14.9767 48.1316 15.6019 48.3402 16.2344 48.524V56.541C16.2344 57.6487 17.1355 58.5498 18.2433 58.5498H22.5622C23.6699 58.5498 24.571 57.6487 24.571 56.541V49.2693C25.7828 49.1446 25.8188 49.1222 26.444 49.004V56.541C26.444 57.6487 27.3452 58.5498 28.4529 58.5498H32.7718C33.8795 58.5498 34.7807 57.6487 34.7807 56.541V45.5512C35.9923 44.7186 37.1198 43.7591 38.151 42.6868L56.2632 57.4687C58.2832 59.1162 61.2647 58.7176 62.784 56.6127C64.3012 54.5102 63.7489 51.5553 61.5438 50.154ZM13.0432 56.5408C13.0432 56.9216 12.7335 57.2315 12.3525 57.2315H8.03367C7.64617 57.2315 7.34304 56.928 7.34304 56.5408V43.4726C8.01517 44.098 8.72554 44.6898 9.48192 45.2358C10.6127 46.0523 11.8083 46.7376 13.0433 47.3181V56.5408H13.0432ZM13.0432 45.8646C12.0795 45.3758 11.1459 44.8117 10.2529 44.167C9.19404 43.4025 8.22379 42.5488 7.34292 41.6227V26.2373C7.34292 25.8592 7.65254 25.5516 8.03354 25.5516H12.3524C12.7334 25.5516 13.043 25.8592 13.043 26.2373L13.0432 45.8646ZM23.2528 56.5408C23.2528 56.9216 22.9432 57.2315 22.5622 57.2315H18.2433C17.8558 57.2315 17.5527 56.928 17.5527 56.5408V48.8677C19.7499 49.3586 21.4623 49.4395 23.2529 49.3625V56.5408H23.2528ZM23.2528 48.0555C21.321 48.1443 19.4058 47.9671 17.5525 47.525V19.8762C17.5525 19.4981 17.8622 19.1905 18.2432 19.1905H22.562C22.943 19.1905 23.2527 19.4981 23.2527 19.8762L23.2528 48.0555ZM33.4624 56.5408C33.4624 56.9216 33.1528 57.2315 32.7718 57.2315H28.4529C28.0654 57.2315 27.7623 56.928 27.7623 56.5408V48.7151C29.7827 48.2046 31.6959 47.4167 33.4625 46.3812V56.5408H33.4624ZM33.4624 44.8366C31.7134 45.9541 29.7977 46.8053 27.7622 47.3546V32.7206C27.7622 32.3425 28.0718 32.0347 28.4528 32.0347H32.7717C33.1527 32.0347 33.4623 32.3423 33.4623 32.7206V44.8366H33.4624ZM34.7807 43.9235V32.7205C34.7807 31.6153 33.8795 30.7165 32.7718 30.7165H28.4529C27.3452 30.7165 26.444 31.6153 26.444 32.7205V47.6631C25.8542 47.7818 25.3789 47.8685 24.571 47.9572V19.8761C24.571 18.771 23.6699 17.8721 22.5622 17.8721H18.2433C17.1355 17.8721 16.2344 18.771 16.2344 19.8761V47.1578C15.6005 46.9607 14.9758 46.7327 14.3614 46.4738V26.2373C14.3614 25.1322 13.4603 24.2333 12.3525 24.2333H8.03367C6.92592 24.2333 6.02479 25.1322 6.02479 26.2373V40.093C0.611041 33.1455 0.0186658 23.0532 5.59542 15.3275C12.2629 6.09134 25.2012 4.00396 34.4355 10.67C43.6828 17.3461 45.7435 30.2887 39.091 39.5082C37.9534 41.0852 36.4744 42.6433 34.7807 43.9235ZM61.7155 55.841C60.6463 57.3216 58.5395 57.6243 57.096 56.4473L39.0352 41.707C39.5135 41.1548 40.0964 40.3716 40.1615 40.2812C40.2257 40.1923 40.8184 39.3373 41.1598 38.7632L60.8369 51.2665C62.3793 52.2471 62.8018 54.3351 61.7155 55.841Z" fill="#000071"/>
</svg>
