<svg width="64" height="64" viewBox="0 0 64 64" fill="none" xmlns="http://www.w3.org/2000/svg">
<path d="M4.75002 31.1725L4.75001 31.1712C4.74457 27.9708 6.3099 25.1438 8.71385 23.3927L8.71393 23.3927C9.37154 22.9135 9.62504 21.9772 9.14795 21.2272L9.14794 21.2272C8.36802 20.0012 7.91564 18.547 7.91564 16.9826C7.91564 12.6062 11.4669 9.0615 15.8303 9.0615C16.6633 9.0615 17.4632 9.19008 18.2123 9.42765L18.2124 9.4277C18.8375 9.62581 19.5425 9.43337 19.964 8.89364L19.9641 8.89349C22.8854 5.15107 27.4359 2.75 32.5486 2.75C41.3714 2.75 48.5234 9.89622 48.5234 18.7182C48.5234 19.1042 48.4828 19.698 48.44 20.2107L48.44 20.2108C48.3676 21.079 49.0024 21.8773 49.9013 21.9518C53.6671 22.2638 56.9713 24.7602 58.072 28.375L58.0721 28.3752C60.0536 34.876 55.2557 40.7903 49.0978 40.7903H14.6733C9.35842 40.7903 4.75002 36.431 4.75002 31.1725Z" fill="#F0F0FF" stroke="#000071" stroke-width="1.5"/>
<path d="M15.3164 50V58.1053" stroke="#000071" stroke-width="1.5" stroke-linecap="round"/>
<path d="M12 55.8951L19 52.2109" stroke="#000071" stroke-width="1.5" stroke-linecap="round"/>
<path d="M12 52.2109L18.6316 55.8951" stroke="#000071" stroke-width="1.5" stroke-linecap="round"/>
<path d="M32.3164 45V53.1053" stroke="#000071" stroke-width="1.5" stroke-linecap="round"/>
<path d="M29 50.8951L36 47.2109" stroke="#000071" stroke-width="1.5" stroke-linecap="round"/>
<path d="M29 47.2109L35.6316 50.8951" stroke="#000071" stroke-width="1.5" stroke-linecap="round"/>
<path d="M47.3164 54V62.1053" stroke="#000071" stroke-width="1.5" stroke-linecap="round"/>
<path d="M44 59.8951L51 56.2109" stroke="#000071" stroke-width="1.5" stroke-linecap="round"/>
<path d="M44 56.2109L50.6316 59.8951" stroke="#000071" stroke-width="1.5" stroke-linecap="round"/>
</svg>
