<svg width="64" height="64" viewBox="0 0 64 64" fill="none" xmlns="http://www.w3.org/2000/svg">
<path d="M63.1625 23.2812H60.3642C59.9977 23.2812 59.7012 23.5781 59.7012 23.9443C59.7012 24.3104 59.9977 24.6073 60.3642 24.6073H63.1625C63.529 24.6073 63.8255 24.3104 63.8255 23.9443C63.8255 23.5781 63.5289 23.2812 63.1625 23.2812Z" fill="#000071"/>
<path d="M55.3561 23.9398C55.3561 28.9521 52.3196 33.2418 47.9835 35.085C47.3668 35.3502 46.7171 35.5623 46.0475 35.7215C45.3911 27.8913 39.3445 21.606 31.627 20.5783C31.8192 19.922 32.058 19.2855 32.3563 18.6755C34.3122 14.6312 38.456 11.8398 43.2496 11.8398C49.9393 11.84 55.3561 17.2567 55.3561 23.9398Z" fill="#D8D8F3"/>
<path d="M45.9376 59.966H11.5131C5.81248 59.966 0.839859 55.2989 0.839859 49.5983C0.833984 46.1455 2.52398 43.0975 5.11211 41.2123C5.48061 40.9438 5.59973 40.4403 5.35498 40.0555C4.50086 38.7129 4.00548 37.1197 4.00548 35.4084C4.00548 30.6178 7.89248 26.7373 12.6701 26.7373C13.5807 26.7373 14.4571 26.8779 15.2789 27.1385C15.6192 27.2464 15.993 27.1392 16.2127 26.8578C19.2702 22.9409 24.0352 20.4258 29.3885 20.4258C38.6251 20.4258 46.1132 27.9074 46.1132 37.144C46.1132 37.5648 46.07 38.1868 46.0272 38.6989C45.988 39.1695 46.3324 39.5912 46.8031 39.6302C50.8526 39.9657 54.4327 42.6525 55.6294 46.5823C57.7612 53.5765 52.5872 59.966 45.9376 59.966Z" fill="#F0F0FF"/>
<path d="M11.5124 60.6291H45.9364C53.0389 60.6291 58.5208 53.7984 56.2629 46.389C55.0217 42.3145 51.2418 39.3329 46.8572 38.9696C46.7518 38.9606 46.6784 38.8607 46.6869 38.754C46.7271 38.2745 46.7749 37.606 46.7749 37.1441C46.7749 36.8314 46.7657 36.5209 46.7493 36.2122C52.2312 34.6594 56.0163 29.6994 56.0163 23.9406C56.0163 16.9032 50.2882 11.1777 43.2469 11.1777C37.7825 11.1777 32.9022 14.7204 31.1685 19.8539C30.5828 19.7941 29.9885 19.7632 29.3873 19.7632C23.999 19.7632 19.0064 22.2006 15.6894 26.4504C15.6428 26.5096 15.5573 26.5306 15.4783 26.507C14.5738 26.2201 13.6284 26.0749 12.6689 26.0749C7.52542 26.0749 3.34142 30.2621 3.34142 35.4087C3.34142 37.1876 3.8438 38.9177 4.7943 40.4121C4.85192 40.5025 4.80205 40.6174 4.72055 40.677C1.86905 42.7537 0.170046 46.0895 0.175796 49.5985C0.175796 55.5775 5.3673 60.6291 11.5124 60.6291ZM43.2469 12.5036C49.5565 12.5036 54.6903 17.6341 54.6903 23.9405C54.6903 29.0202 51.4093 33.4159 46.6225 34.8795C45.6344 27.327 39.7865 21.3451 32.495 20.0444C34.1137 15.5687 38.4317 12.5036 43.2469 12.5036ZM5.50067 41.7485C6.15855 41.2704 6.3398 40.3704 5.91317 39.6999C5.09805 38.4185 4.66742 36.9349 4.66742 35.4085C4.66742 30.9931 8.25705 27.4006 12.6688 27.4006C13.4924 27.4006 14.303 27.5252 15.0774 27.7706C15.6867 27.9626 16.3497 27.7592 16.7343 27.2659C19.7988 23.3402 24.41 21.089 29.3872 21.089C38.2875 21.089 45.4489 28.3929 45.4489 37.144C45.4489 37.5604 45.4035 38.1894 45.366 38.6435C45.2947 39.4805 45.9125 40.2217 46.747 40.291C50.5963 40.6099 53.91 43.2156 54.9945 46.7754C56.9743 53.2716 52.2167 59.303 45.9364 59.303H11.5124C6.08592 59.303 1.50192 54.8587 1.50192 49.5974C1.49667 46.5104 2.99167 43.5764 5.50067 41.7485Z" fill="#000071"/>
<path d="M43.2489 7.49389C43.6154 7.49389 43.9119 7.19702 43.9119 6.83089V4.03214C43.9119 3.66602 43.6154 3.36914 43.2489 3.36914C42.8824 3.36914 42.5859 3.66602 42.5859 4.03214V6.83089C42.5859 7.19702 42.8824 7.49389 43.2489 7.49389Z" fill="#000071"/>
<path d="M55.8192 12.3119L57.7979 10.3329C58.0569 10.0739 58.0569 9.65405 57.7979 9.39542C57.5389 9.13642 57.1194 9.13642 56.8604 9.39542L54.8818 11.3744C54.6227 11.6334 54.6227 12.0533 54.8818 12.3119C55.1407 12.5709 55.5602 12.5709 55.8192 12.3119Z" fill="#000071"/>
<path d="M57.7979 37.5561L55.8192 35.5771C55.5602 35.3181 55.1407 35.3181 54.8818 35.5771C54.6227 35.8357 54.6227 36.2556 54.8818 36.5146L56.8604 38.4936C57.1194 38.7526 57.5389 38.7526 57.7979 38.4936C58.0569 38.2349 58.0569 37.8151 57.7979 37.5561Z" fill="#000071"/>
<path d="M30.6787 12.3119C30.9377 12.5709 31.3572 12.5709 31.6162 12.3119C31.8752 12.0533 31.8752 11.6334 31.6162 11.3744L29.6376 9.39542C29.3786 9.13642 28.9591 9.13642 28.7001 9.39542C28.4411 9.65405 28.4411 10.0739 28.7001 10.3329L30.6787 12.3119Z" fill="#000071"/>
</svg>
